<svg width="42" height="42" viewBox="0 0 42 42" fill="none" xmlns="http://www.w3.org/2000/svg">
<rect width="42" height="42" rx="21" fill="#2B6FF6"/>
<path d="M10.1316 21.2863C10.6697 21.766 11.2074 22.2195 11.7461 22.6465C12.457 21.5668 13.2316 20.5768 14.0736 19.682C13.9146 19.3826 13.8248 19.0406 13.8248 18.6783C13.8248 18.4994 13.8465 18.3258 13.8881 18.1592C13.0084 17.5893 12.1031 16.9537 11.1605 16.2455C10.4635 17.683 10.0732 19.2957 10.0732 20.9996H10.0756V21.0002H10.073C10.073 21.1158 10.0754 21.2311 10.0789 21.3457L10.1316 21.2863ZM11.6809 15.2951C12.6244 16.0068 13.5273 16.6447 14.4031 17.2152C14.7937 16.7984 15.3496 16.5381 15.9654 16.5381C16.4539 16.5381 16.9039 16.702 17.2643 16.9775C17.5221 16.8066 17.7852 16.6418 18.0527 16.4846C19.1676 15.8291 20.3639 15.2945 21.6484 14.8875C21.6391 14.8023 21.6348 14.716 21.6348 14.6293C21.6348 14.3023 21.7002 13.9906 21.8193 13.7072C20.5145 12.6016 18.9691 11.6225 17.1904 10.7574C15.7063 11.3102 14.3748 12.1762 13.2756 13.2754C12.6686 13.8818 12.1326 14.56 11.6809 15.2951ZM18.6883 10.3189C20.0949 11.076 21.3498 11.9107 22.4482 12.832C22.8154 12.5102 23.2822 12.2984 23.7959 12.2496C23.9111 11.6854 24.0199 11.1117 24.1232 10.5271C23.1334 10.232 22.0854 10.0727 21.0004 10.0727V10.075H20.9994V10.0727C20.2064 10.0727 19.4336 10.1582 18.6883 10.3189ZM25.1484 10.8904C25.0576 11.398 24.9625 11.898 24.8629 12.39C25.5791 12.6588 26.1322 13.2611 26.3328 14.008C27.3023 13.9367 28.3107 13.9229 29.3609 13.9689C29.1586 13.7289 28.9469 13.4969 28.725 13.2748C27.7098 12.2602 26.4967 11.4445 25.1484 10.8904ZM30.1924 15.0945C28.8504 14.9939 27.5777 14.9914 26.3717 15.0822C26.2729 15.5982 26.0076 16.0553 25.6348 16.3955C25.952 16.8844 26.2395 17.391 26.4963 17.916C26.8705 18.6818 27.1787 19.4861 27.4219 20.3289C27.4959 20.3213 27.5711 20.317 27.6477 20.317C28.6084 20.317 29.4215 20.9498 29.6922 21.8225C30.4004 21.8473 31.1326 21.8604 31.8928 21.865C31.9152 21.5793 31.9273 21.2912 31.9273 21.0004H31.925V20.9998V20.9994H31.9273C31.9268 18.8246 31.2898 16.7979 30.1924 15.0945ZM31.7555 22.9346C31.0631 22.9297 30.3934 22.9176 29.7432 22.8961C29.5695 23.7301 28.91 24.3865 28.0738 24.5557C28.1105 25.5551 28.0762 26.6 27.968 27.691C28.5811 27.6264 29.2027 27.5373 29.8354 27.4254C30.7891 26.1172 31.459 24.5904 31.7555 22.9346ZM30.4523 28.3914L30.4547 28.4025L30.4418 28.4049C30.1447 28.784 29.8254 29.1445 29.4848 29.4852C27.315 31.6549 24.315 32.9973 21.0008 32.9977V33H21.0004H20.9998V32.9977C17.6855 32.9977 14.6857 31.6549 12.515 29.4846C10.3451 27.3145 9.00254 24.3145 9.00215 21.0002H9V20.9996H9.00215C9.00215 17.685 10.3451 14.6852 12.5154 12.5148C14.6857 10.3445 17.685 9.00215 20.9994 9.00215V9H21.0004V9.00215C24.315 9.00215 27.3148 10.3447 29.485 12.5154C31.6553 14.6852 32.9977 17.685 32.9977 20.9994H33V20.9998V21.0004H32.9977C32.9977 23.7893 32.0469 26.3549 30.4523 28.3914ZM28.7732 28.6748C28.4592 28.7166 28.1479 28.7527 27.8387 28.7826C27.8002 29.059 27.7568 29.3381 27.7098 29.6205C28.0664 29.3428 28.4057 29.0439 28.725 28.7246L28.7732 28.6748ZM26.4648 30.4613C26.5742 29.9174 26.6672 29.385 26.7439 28.8637C24.7867 28.9654 22.9162 28.8242 21.1061 28.442C20.7521 28.8617 20.223 29.1295 19.6312 29.1295C19.5873 29.1295 19.5439 29.1277 19.5014 29.1252C19.1598 29.9965 18.8291 30.8441 18.526 31.6447C19.3209 31.8289 20.1494 31.927 20.9996 31.927V31.9246H21.0002H21.0006V31.927C22.9906 31.927 24.857 31.3932 26.4648 30.4613ZM17.4928 31.3508C17.8246 30.4688 18.1559 29.6172 18.4924 28.7574C18.0686 28.4471 17.7762 27.9674 17.7146 27.4178C15.773 26.6484 13.8906 25.5811 12.0295 24.2139C11.7311 24.7166 11.4453 25.2377 11.1715 25.7773C11.7064 26.8748 12.4209 27.8705 13.2754 28.725C14.449 29.8982 15.8873 30.8062 17.4928 31.3508ZM10.6418 24.4859C10.8141 24.1715 10.9908 23.8633 11.1719 23.5611C10.8535 23.3105 10.5354 23.051 10.2178 22.783C10.3141 23.3672 10.4566 23.9369 10.6418 24.4859ZM17.9277 17.8229C18.0424 18.085 18.1062 18.3742 18.1062 18.6785C18.1062 18.8832 18.0771 19.0814 18.0234 19.2689C19.1994 19.8314 20.3553 20.2779 21.5268 20.6305C21.9525 19.3557 22.3617 18.0318 22.7428 16.6469C22.4434 16.4563 22.1895 16.2012 22.0004 15.901C20.7807 16.2846 19.6477 16.7891 18.5943 17.4082C18.3689 17.5406 18.1461 17.6793 17.9277 17.8229ZM17.4746 20.1963C17.0877 20.5816 16.5543 20.8195 15.9652 20.8195C15.5352 20.8195 15.1344 20.6924 14.7984 20.4744C14.0035 21.3258 13.2719 22.2695 12.598 23.2992C14.3432 24.5891 16.101 25.602 17.9049 26.3393C18.2217 25.7072 18.8758 25.273 19.6309 25.273C19.7035 25.273 19.7748 25.2771 19.8457 25.2852C20.2943 24.1129 20.7439 22.9043 21.1803 21.6467C19.9395 21.2717 18.717 20.7961 17.4746 20.1963ZM24.6967 16.9242C24.4836 16.9861 24.2582 17.0193 24.0248 17.0193C23.9346 17.0193 23.8451 17.0148 23.7574 17.0047C23.3818 18.3645 22.9805 19.6648 22.5629 20.9168C23.5883 21.176 24.6344 21.3699 25.726 21.5127C25.8848 21.1906 26.1219 20.9146 26.4131 20.7092C26.1836 19.8951 25.8891 19.1213 25.5303 18.3869C25.283 17.8813 25.0049 17.3943 24.6967 16.9242ZM26.9973 24.4975C26.1658 24.2328 25.5547 23.474 25.5096 22.566C24.3752 22.415 23.2857 22.2104 22.2166 21.9365C21.7656 23.2377 21.301 24.4873 20.8373 25.6977C21.2771 26.0512 21.5588 26.5938 21.5588 27.2014C21.5588 27.2814 21.5535 27.3602 21.5441 27.4379C23.2543 27.7779 25.0248 27.8928 26.8807 27.7811C27.0029 26.6312 27.041 25.5373 26.9973 24.4975Z" fill="white"/>
</svg>
