<svg width="62" height="62" viewBox="0 0 62 62" fill="none" xmlns="http://www.w3.org/2000/svg">
<rect width="62" height="62" rx="31" fill="#2B6FF6"/>
<path d="M31.0376 24.0251C33.8061 24.0251 36.0502 26.2693 36.0502 29.0376C36.0502 31.2718 34.5886 33.1645 32.5695 33.8118L32.2908 33.8923V37.3919H41.0627C43.8312 37.3919 46.0753 39.636 46.0753 42.4044C46.0753 45.074 43.9886 47.256 41.3573 47.4085L41.0627 47.417H21.0125C18.2442 47.417 16 45.1729 16 42.4044C16 39.7349 18.0868 37.5529 20.718 37.4004L21.0125 37.3919H29.7845V33.8923C27.6226 33.3359 26.0251 31.3733 26.0251 29.0376C26.0251 26.2693 28.2692 24.0251 31.0376 24.0251ZM41.0627 39.8982H21.0125C19.6284 39.8982 18.5063 41.0203 18.5063 42.4044C18.5063 43.7886 19.6284 44.9107 21.0125 44.9107H41.0627C42.4469 44.9107 43.569 43.7886 43.569 42.4044C43.569 41.0203 42.4469 39.8982 41.0627 39.8982ZM31.0376 26.5314C29.6535 26.5314 28.5314 27.6535 28.5314 29.0376C28.5314 30.4218 29.6535 31.5439 31.0376 31.5439C32.4218 31.5439 33.5439 30.4218 33.5439 29.0376C33.5439 27.6535 32.4218 26.5314 31.0376 26.5314ZM31.0376 14C39.3428 14 46.0753 20.7326 46.0753 29.0376V29.4554C46.0753 30.1474 45.5142 30.7085 44.8222 30.7085C44.1301 30.7085 43.569 30.1474 43.569 29.4554V29.0376C43.569 22.1168 37.9585 16.5063 31.0376 16.5063C24.1168 16.5063 18.5063 22.1168 18.5063 29.0376V29.4554C18.5063 30.1474 17.9452 30.7085 17.2531 30.7085C16.5611 30.7085 16 30.1474 16 29.4554V29.0376C16 20.7326 22.7326 14 31.0376 14ZM31.0376 19.0125C36.5743 19.0125 41.0627 23.5009 41.0627 29.0376V29.4554C41.0627 30.1474 40.5017 30.7085 39.8096 30.7085C39.1175 30.7085 38.5565 30.1474 38.5565 29.4554V29.0376C38.5565 24.8851 35.1902 21.5188 31.0376 21.5188C26.8851 21.5188 23.5188 24.8851 23.5188 29.0376V29.4554C23.5188 30.1474 22.9578 30.7085 22.2657 30.7085C21.5736 30.7085 21.0125 30.1474 21.0125 29.4554V29.0376C21.0125 23.5009 25.5009 19.0125 31.0376 19.0125Z" fill="white"/>
</svg>
