<svg width="62" height="62" viewBox="0 0 62 62" fill="none" xmlns="http://www.w3.org/2000/svg">
<rect width="62" height="62" rx="31" fill="#2B6FF6"/>
<g clip-path="url(#clip0_3302_3172)">
<path d="M38.8945 24.7275C40.087 23.9188 41.5178 23.5435 42.9482 23.6592L43.2344 23.6895C44.7591 23.8831 46.1607 24.6261 47.1768 25.7793C48.1928 26.9325 48.7538 28.4162 48.7539 29.9531C48.7539 31.4901 48.1928 32.9747 47.1768 34.1279C46.1607 35.281 44.759 36.0242 43.2344 36.2178C41.7097 36.4113 40.1665 36.0424 38.8945 35.1797C37.6225 34.317 36.7093 33.0194 36.3252 31.5312L36.2764 31.3438H26.7236L26.6748 31.5312C26.2878 33.016 25.3734 34.3092 24.1025 35.1689C22.8316 36.0286 21.2907 36.3965 19.7686 36.2031C18.2465 36.0097 16.8467 35.2683 15.8311 34.1182C14.8155 32.968 14.2535 31.4874 14.25 29.9531L14.2568 29.666C14.3216 28.2325 14.873 26.8605 15.8252 25.7793C16.7774 24.6982 18.0687 23.9769 19.4824 23.7314L19.7676 23.6895C21.1966 23.508 22.6414 23.8208 23.8643 24.5713L24.1064 24.7275C25.378 25.5902 26.2911 26.8871 26.6748 28.375L26.7236 28.5625H36.2764L36.3252 28.375C36.6853 26.9801 37.5106 25.7532 38.6602 24.8945L38.8945 24.7275ZM20.5625 26.4219C19.6844 26.4219 18.8402 26.7493 18.1924 27.3359L18.0654 27.4561C17.4033 28.1182 17.0313 29.0167 17.0312 29.9531C17.0312 30.831 17.358 31.6755 17.9443 32.3232L18.0654 32.4502C18.7277 33.1124 19.626 33.4844 20.5625 33.4844C21.499 33.4844 22.3973 33.1124 23.0596 32.4502C23.7217 31.788 24.0938 30.8896 24.0938 29.9531C24.0937 29.0752 23.7671 28.2307 23.1807 27.583L23.0596 27.4561C22.3973 26.7939 21.499 26.4219 20.5625 26.4219ZM42.4375 26.4219C41.5594 26.4219 40.7152 26.7493 40.0674 27.3359L39.9404 27.4561C39.2783 28.1182 38.9063 29.0167 38.9062 29.9531C38.9062 30.8896 39.2783 31.788 39.9404 32.4502C40.6027 33.1124 41.501 33.4844 42.4375 33.4844C43.374 33.4844 44.2723 33.1124 44.9346 32.4502C45.5967 31.788 45.9688 30.8896 45.9688 29.9531C45.9687 29.0752 45.6421 28.2307 45.0557 27.583L44.9346 27.4561C44.2723 26.7939 43.374 26.4219 42.4375 26.4219Z" fill="white" stroke="#2B6FF6" stroke-width="0.5"/>
</g>
<defs>
<clipPath id="clip0_3302_3172">
<rect width="35" height="35" fill="white" transform="translate(14 13)"/>
</clipPath>
</defs>
</svg>
