<svg width="62" height="62" viewBox="0 0 62 62" fill="none" xmlns="http://www.w3.org/2000/svg">
<rect width="62" height="62" rx="31" fill="#2B6FF6"/>
<path d="M15.625 28.2955C15.625 22.8329 15.625 20.1016 16.2699 19.1828C16.9148 18.2639 19.483 17.3848 24.6192 15.6267L25.5978 15.2917C28.2752 14.3752 29.6139 13.917 31 13.917C32.3861 13.917 33.7248 14.3752 36.4023 15.2917L37.3808 15.6267C42.5171 17.3848 45.0852 18.2639 45.7301 19.1828C46.375 20.1016 46.375 22.8329 46.375 28.2955C46.375 29.1205 46.375 30.0153 46.375 30.9856C46.375 40.6172 39.1334 45.2914 34.5899 47.2761C33.3575 47.8144 32.7413 48.0837 31 48.0837C29.2587 48.0837 28.6425 47.8144 27.41 47.2761C22.8666 45.2914 15.625 40.6172 15.625 30.9856C15.625 30.0153 15.625 29.1205 15.625 28.2955Z" stroke="white" stroke-width="3"/>
<path d="M30.7715 22.8496C31.8114 22.8497 32.841 23.0552 33.8018 23.4531C34.7627 23.8512 35.6365 24.4344 36.3721 25.1699C37.1075 25.9053 37.6908 26.7785 38.0889 27.7393C38.487 28.7003 38.6924 29.7313 38.6924 30.7715C38.6923 31.8115 38.4869 32.8418 38.0889 33.8027C37.6908 34.7635 37.1075 35.6366 36.3721 36.3721C35.6366 37.1075 34.7635 37.6908 33.8027 38.0889C32.8418 38.4869 31.8115 38.6923 30.7715 38.6924C29.7313 38.6924 28.7003 38.487 27.7393 38.0889V38.0879C26.7786 37.6898 25.9052 37.1074 25.1699 36.3721C24.4344 35.6365 23.8512 34.7627 23.4531 33.8018C23.0552 32.841 22.8497 31.8114 22.8496 30.7715C22.8496 29.7314 23.0551 28.7011 23.4531 27.7402C23.8512 26.7792 24.4344 25.9055 25.1699 25.1699C25.9055 24.4344 26.7792 23.8512 27.7402 23.4531C28.7011 23.0551 29.7314 22.8496 30.7715 22.8496Z" stroke="white" stroke-width="2.3"/>
<path d="M33.2732 33.3621C33.4093 32.5407 33.4793 31.6602 33.4793 30.771C33.4793 29.8818 33.4093 29.0013 33.2732 28.1799C33.137 27.3584 32.9375 26.6119 32.686 25.9832C32.4345 25.3544 32.1359 24.8557 31.8074 24.5154C31.4787 24.1751 31.1265 24 30.7709 24C30.4153 24 30.0631 24.1751 29.7344 24.5154C29.4059 24.8557 29.1073 25.3544 28.8558 25.9832C28.6043 26.6119 28.4048 27.3583 28.2686 28.1799C28.1325 29.0013 28.0625 29.8818 28.0625 30.771C28.0625 31.6602 28.1325 32.5407 28.2686 33.3621C28.4047 34.1836 28.6043 34.93 28.8558 35.5588C29.1073 36.1875 29.4059 36.6863 29.7344 37.0266C30.0631 37.3669 30.4153 37.542 30.7709 37.542C31.1265 37.542 31.4787 37.3669 31.8074 37.0266C32.1359 36.6863 32.4345 36.1875 32.686 35.5588C32.9375 34.93 33.137 34.1836 33.2732 33.3621Z" stroke="white" stroke-width="2.3"/>
<path d="M24 30.7715H37.542" stroke="white" stroke-width="2.3" stroke-linecap="round"/>
</svg>
