<svg width="52" height="52" viewBox="0 0 52 52" fill="none" xmlns="http://www.w3.org/2000/svg">
<rect width="52" height="52" rx="26" fill="#2B6FF6"/>
<path d="M17.8333 17.3718V28.0871C17.8333 29.6474 18.6131 31.1045 19.9114 31.97L26 36.0291L32.0886 31.97C33.3869 31.1045 34.1667 29.6474 34.1667 28.0871V17.3718L26 15.557L17.8333 17.3718ZM16.4136 15.2971L26 13.1667L35.5864 15.2971C36.1202 15.4157 36.5 15.8891 36.5 16.4359V28.0871C36.5 30.4276 35.3303 32.6132 33.3829 33.9115L26 38.8334L18.6171 33.9115C16.6697 32.6132 15.5 30.4276 15.5 28.0871V16.4359C15.5 15.8891 15.8798 15.4157 16.4136 15.2971ZM26 27.7501L22.5712 29.5527L23.2261 25.7347L20.4522 23.0308L24.2856 22.4738L26 19.0001L27.7144 22.4738L31.5478 23.0308L28.7739 25.7347L29.4287 29.5527L26 27.7501Z" fill="white"/>
</svg>
