<svg width="62" height="62" viewBox="0 0 62 62" fill="none" xmlns="http://www.w3.org/2000/svg">
<rect width="62" height="62" rx="31" fill="#2B6FF6"/>
<g clip-path="url(#clip0_3247_3304)">
<path d="M45.5831 15.4443H34.9859C34.728 15.4443 34.4808 15.5468 34.2984 15.7291C34.1161 15.9114 34.0137 16.1587 34.0137 16.4166C34.0137 16.6744 34.1161 16.9217 34.2984 17.104C34.4808 17.2864 34.728 17.3888 34.9859 17.3888H43.2789L34.7039 26.1388C34.6146 26.2301 34.5441 26.3381 34.4964 26.4566C34.4488 26.5751 34.425 26.7019 34.4263 26.8296C34.4277 26.9574 34.4542 27.0836 34.5043 27.2011C34.5545 27.3186 34.6272 27.4251 34.7185 27.5145C34.8098 27.6038 34.9178 27.6744 35.0364 27.722C35.1549 27.7696 35.2817 27.7935 35.4094 27.7921C35.5371 27.7907 35.6634 27.7642 35.7809 27.7141C35.8984 27.664 36.0049 27.5912 36.0942 27.4999L44.6109 18.8082V27.0138C44.6109 27.2716 44.7133 27.5189 44.8956 27.7012C45.078 27.8836 45.3253 27.986 45.5831 27.986C45.841 27.986 46.0883 27.8836 46.2706 27.7012C46.4529 27.5189 46.5553 27.2716 46.5553 27.0138V16.4166C46.5553 16.1587 46.4529 15.9114 46.2706 15.7291C46.0883 15.5468 45.841 15.4443 45.5831 15.4443Z" fill="white"/>
<path d="M24.7185 23.932L15.9685 28.9584C15.8202 29.0441 15.6971 29.1674 15.6117 29.3159C15.5263 29.4645 15.4817 29.6329 15.4824 29.8042V40.4987C15.4817 40.67 15.5263 40.8384 15.6117 40.987C15.6971 41.1355 15.8202 41.2589 15.9685 41.3445L24.7185 46.3515C24.8663 46.4368 25.034 46.4817 25.2047 46.4817C25.3753 46.4817 25.543 46.4368 25.6908 46.3515L34.4408 41.3445C34.5891 41.2589 34.7122 41.1355 34.7976 40.987C34.883 40.8384 34.9276 40.67 34.9269 40.4987V29.8042C34.9276 29.6329 34.883 29.4645 34.7976 29.3159C34.7122 29.1674 34.5891 29.0441 34.4408 28.9584L25.6908 23.932C25.543 23.8467 25.3753 23.8018 25.2047 23.8018C25.034 23.8018 24.8663 23.8467 24.7185 23.932ZM24.1935 43.7167L17.388 39.8278V31.4278L24.1935 35.3167V43.7167ZM25.1658 33.9167L18.1755 29.9015L25.1658 25.9251L32.1755 29.9306L25.1658 33.9167ZM32.9435 39.8376L26.138 43.7265V35.3167L32.9435 31.4278V39.8376Z" fill="white"/>
</g>
<defs>
<clipPath id="clip0_3247_3304">
<rect width="35" height="35" fill="white" transform="translate(13.5 13.5)"/>
</clipPath>
</defs>
</svg>
