<svg width="115" height="115" viewBox="0 0 115 115" fill="none" xmlns="http://www.w3.org/2000/svg">
<rect width="115" height="115" rx="57.5" fill="#2B6FF6"/>
<g clip-path="url(#clip0_1776_5284)">
<path d="M79.8852 28.7386L85.8375 48.7573C85.6846 49.1384 85.3593 49.2284 84.9974 49.0378L78.6659 44.6503C77.6168 45.0486 72.6317 49.2797 71.9488 49.0999C71.8002 49.0613 71.6795 48.92 71.5869 48.798L77.5801 29.0748C77.5866 28.7279 76.6366 28.1219 76.4082 27.5909C75.5939 25.6959 77.1105 23.8565 79.1205 24.0963C81.4363 24.3704 82.0783 27.7643 79.8874 28.7386H79.8852ZM78.6508 25.1177C76.7141 25.167 76.9511 28.062 78.6508 28.077C80.6759 28.0941 80.6996 25.0642 78.6508 25.1177ZM78.8921 29.1883C78.4806 29.124 78.6422 29.2247 78.5582 29.4131C78.36 29.8478 77.1579 33.6678 77.1902 33.8991L78.6767 35.2352C79.1334 34.8947 80.1847 34.2952 80.1868 33.7385C80.1933 32.5929 78.8986 30.4816 78.8921 29.1883ZM77.7697 35.7298L76.8089 35.0896L76.1669 37.3208C76.4211 37.1473 77.9938 36.036 77.7697 35.7298ZM81.2984 37.3208L80.5789 35.0896L79.5384 35.9654L81.2984 37.3208ZM82.2291 40.7961C82.9788 39.5199 79.547 37.4386 78.7887 36.6955C77.3906 37.794 75.4625 38.6998 75.079 40.5969L78.6788 43.1964L82.2269 40.7982L82.2291 40.7961ZM77.7719 44.0165L77.2764 43.4748L74.7236 41.7875L73.1186 47.2091L77.7697 44.0165H77.7719ZM82.744 41.7853L79.8982 43.6568L79.6978 43.9352L84.3489 47.207L82.744 41.7853Z" fill="white"/>
<path d="M74.3895 22.1842C74.732 22.6574 73.8078 23.3876 73.6247 23.7109C72.7436 25.2783 72.4291 26.88 73.1529 28.593C73.4114 29.2033 74.6631 30.4837 74.3292 30.9505C73.7604 31.7471 72.5777 29.8242 72.3601 29.381C71.3799 27.3853 71.4726 25.1199 72.6639 23.2356C72.8987 22.863 73.9048 21.514 74.3873 22.1842H74.3895Z" fill="white"/>
<path d="M83.3235 22.0194C83.9224 21.8438 84.8422 23.2849 85.0771 23.7581C86.0056 25.636 85.9258 27.8458 84.9155 29.6701C84.7022 30.0534 83.4204 31.9099 83.0779 30.8414C82.9314 30.3874 84.1938 28.9378 84.4265 28.2269C84.9413 26.6424 84.6613 25.015 83.778 23.6168C83.6272 23.3769 82.395 22.2935 83.3256 22.0215L83.3235 22.0194Z" fill="white"/>
<path d="M75.0896 29.6144C73.4373 28.2611 73.5299 24.2869 75.6023 23.2805L76.1409 23.8158C75.1758 25.0342 74.6243 26.411 75.2447 27.9485C75.4106 28.3575 76.2055 29.0748 76.1409 29.4024C76.0526 29.8585 75.4429 29.9034 75.0896 29.6144Z" fill="white"/>
<path d="M81.7334 23.304C82.3797 23.1392 83.1876 24.8222 83.3405 25.3254C83.6744 26.4196 83.5861 27.4645 83.0928 28.4987C82.7782 29.1583 81.7593 30.5651 81.2939 29.2675C82.3582 28.0341 82.8515 26.6701 82.1298 25.0941C81.9144 24.6231 80.6886 23.5696 81.7334 23.304Z" fill="white"/>
<path d="M68.4156 55.785L71.1127 52.0527L71.6039 51.9649L83.8489 55.179L84.5124 55.6479L84.4542 75.1805C83.7239 76.0627 82.7308 75.5916 82.468 74.5981L82.3969 57.0462L72.192 54.2647L68.4242 59.8105L68.4091 77.8421C68.1247 78.8935 67.0691 79.311 66.3625 78.341L66.2721 36.8412C66.2484 36.7084 66.1493 36.6913 66.0502 36.6399C65.3005 36.2502 63.5038 36.0018 62.5301 35.6271C60.8088 34.9676 59.2383 33.8541 57.4976 33.2289V81.0219H69.7663C69.9322 81.0219 70.5462 81.6321 70.5462 81.797V90.7496H79.5532C80.2965 90.7496 80.9148 92.6789 79.2732 92.8673L46.7822 92.8716C45.9076 92.9466 45.3044 92.0001 45.7417 91.2593C45.8236 91.1179 46.2501 90.7496 46.3643 90.7496H50.9745V87.2958C51.3364 86.5185 50.7159 85.5935 51.9051 85.4008C54.5333 84.9725 58.2366 85.7091 60.9811 85.3858C61.2827 85.283 61.8967 85.9982 61.8967 86.1673V90.7496H68.422V83.1374H48.4216C47.7387 85.3408 45.7158 86.9425 43.4711 87.3814C43.2341 87.6555 43.7856 91.5869 43.2363 92.4348C42.8205 93.0751 41.5753 92.9723 41.39 92.3149C41.1681 91.5269 41.4977 87.5484 41.3232 87.3729L39.0591 86.662V92.2314C39.0591 92.2892 38.3719 92.9873 38.1435 92.8738C34.6773 92.5397 30.4398 93.2913 27.0662 92.8738C26.226 92.7688 26.0644 92.1393 26.002 91.392L26.0386 58.438L26.2605 57.7999L37.745 50.8793C40.1147 51.1363 42.2388 52.4681 44.5891 52.8279V35.413C44.5891 35.3102 45.0652 34.9783 45.2182 34.9098C46.4698 34.3466 48.329 34.1154 49.6927 33.5779C51.6337 32.8135 53.9732 31.1026 55.8324 30.518C56.4076 30.3382 56.6919 30.3703 57.2456 30.5866C59.2491 31.3638 61.3194 32.8713 63.3788 33.6529C64.6197 34.1239 66.7115 34.3959 67.7456 34.9526C67.9416 35.0575 68.4177 35.5265 68.4177 35.6956V55.785H68.4156ZM55.3671 33.2267C53.6242 33.8156 52.0602 34.9954 50.3583 35.6507C49.8241 35.8562 46.8382 36.5329 46.7327 36.8412L46.7176 68.8295C46.7607 70.2342 45.2527 70.7802 44.587 69.5254L44.5655 55.3096L39.0526 53.3867V73.688C44.1691 69.6368 48.8977 76.2083 48.8396 81.0197H55.3649V33.2267H55.3671ZM28.2747 62.1274L36.9263 58.2495V53.8086L28.2747 58.8834V62.1252V62.1274ZM36.9263 60.7184L28.2747 64.3843V67.6261L36.9263 64.7354V60.7184ZM36.9263 67.063L28.2747 69.883V73.1249L36.9263 71.292V67.063ZM36.9263 73.5467L28.2747 75.3796V78.7628L36.2671 77.8956C36.4179 77.8485 36.9285 76.7886 36.9285 76.7201V73.5489L36.9263 73.5467ZM41.9997 74.5638C40.1125 74.8336 38.3891 77.8935 38.1263 79.6022C37.0578 86.5292 45.9313 87.178 46.6767 81.4758C46.9826 79.144 44.852 74.1548 41.9997 74.5638ZM36.9263 90.7475V84.4736C36.9263 84.3837 36.2628 83.2445 36.1465 82.8527C35.9181 82.0775 35.7006 81.0176 35.9268 80.251L35.7135 80.0412L28.2747 80.8784V90.7475H36.9263ZM59.764 87.5056H53.2386V90.7475H59.5507L59.764 90.5355V87.5035V87.5056Z" fill="white"/>
<path d="M61.8428 40.0359C62.293 40.0124 62.9006 40.4085 62.8919 40.9031L62.823 72.8508C62.2737 73.8593 60.8195 73.4996 60.7549 72.3518L60.8217 40.8325C60.9875 40.4427 61.399 40.0595 61.8428 40.0359Z" fill="white"/>
<path d="M84.4006 92.5398C84.0408 92.9809 83.1188 92.9809 82.7375 92.5141C82.1106 91.7475 82.6836 89.4757 82.3928 88.4864C78.5345 87.5207 76.8283 82.9962 79.3402 79.825C81.432 77.1848 85.523 77.1184 87.7031 79.6837C90.4089 82.8699 88.6381 87.5935 84.644 88.4885C84.4803 89.3429 84.8164 92.0302 84.4006 92.5398ZM86.8414 83.1761C86.8414 81.386 85.3808 79.9342 83.5798 79.9342C81.7788 79.9342 80.3182 81.386 80.3182 83.1761C80.3182 84.9662 81.7788 86.4179 83.5798 86.4179C85.3808 86.4179 86.8414 84.9662 86.8414 83.1761Z" fill="white"/>
<path d="M74.6178 66.2557C75.1284 66.761 75.165 69.7374 74.3722 70.0907C72.442 70.9493 72.5088 67.973 72.707 66.8831C72.8664 65.9944 73.9931 65.6369 74.62 66.2557H74.6178Z" fill="white"/>
<path d="M74.6115 77.4503C74.1828 77.9149 73.2026 77.8914 72.9118 77.3154C72.3862 76.2747 72.3582 72.7245 74.3724 73.6196C75.1717 73.975 75.1264 76.8936 74.6137 77.4503H74.6115Z" fill="white"/>
<path d="M74.6197 62.3735C73.954 63.0823 72.8553 62.5834 72.7045 61.6005C72.5688 60.7012 72.4934 58.5706 73.6546 58.3801C75.3392 58.1038 75.182 61.7718 74.6176 62.3735H74.6197Z" fill="white"/>
<path d="M73.6268 81.0411C75.1628 80.7649 75.1305 83.5935 74.8462 84.5207C74.4584 85.7862 72.8276 85.5613 72.6725 84.0517C72.5842 83.2038 72.5389 81.2381 73.6268 81.0411Z" fill="white"/>
<path d="M80.0055 58.6456C80.4429 59.0161 80.4278 61.3158 80.2985 61.8854C80.0465 63.0031 78.3855 62.8639 78.2045 61.911C78.127 61.4956 78.1399 59.5364 78.2326 59.1253C78.4049 58.3501 79.4627 58.1831 80.0055 58.6435V58.6456Z" fill="white"/>
<path d="M80.0099 69.9859C79.6868 70.2878 78.7259 70.2322 78.42 69.8767C78.1314 69.5427 78.112 67.2151 78.2068 66.7119C78.3877 65.7612 80.0487 65.6199 80.3007 66.7376C80.4278 67.3008 80.4214 69.6005 80.012 69.9838L80.0099 69.9859Z" fill="white"/>
<path d="M78.8702 73.5789C79.4174 73.4547 79.9021 73.5425 80.1692 74.0606C80.3976 74.5082 80.4234 76.5809 80.2662 77.0798C79.9581 78.0562 78.3941 77.9877 78.2045 76.9984C78.0602 76.2469 77.9697 73.7823 78.8702 73.5789Z" fill="white"/>
<path d="M51.2977 45.9586C51.9418 45.2605 53.019 45.6567 53.2064 46.5817C53.3098 47.0935 53.3206 49.4103 53.2086 49.9028C53.0125 50.7743 51.7781 51.2197 51.2439 50.3632C50.8496 49.7315 50.785 46.5132 51.2977 45.9586Z" fill="white"/>
<path d="M52.7711 60.9025C53.3958 61.3564 53.329 63.9559 53.2256 64.7246C53.0274 66.2 51.5323 66.3541 51.0713 65.0608C50.8624 64.472 50.8839 61.8104 51.192 61.2943C51.5 60.7783 52.2648 60.5363 52.7689 60.9046L52.7711 60.9025Z" fill="white"/>
<path d="M49.9037 38.0874C50.6749 38.0595 50.9162 38.5306 50.9765 39.2115C51.0368 39.8924 51.0713 41.9973 50.9399 42.5712C50.7245 43.5047 49.1971 43.4898 48.9063 42.539C48.7748 42.1108 48.7684 39.4363 48.8718 38.9653C48.9687 38.5306 49.447 38.1023 49.9037 38.0874Z" fill="white"/>
<path d="M49.5097 68.3606C50.2055 68.155 50.8367 68.3542 50.9617 69.1143C51.0586 69.7032 51.0586 72.035 50.9617 72.6217C50.7893 73.6645 49.4171 73.7009 49.0034 72.8936C48.7729 72.4418 48.7557 69.8488 48.8505 69.2556C48.9 68.9452 49.1995 68.4527 49.5097 68.3606Z" fill="white"/>
<path d="M49.5094 53.2754C50.2052 53.0698 50.8365 53.269 50.9614 54.0291C51.0476 54.5559 51.0627 57.0419 50.9657 57.5429C50.802 58.3973 49.4512 58.6864 49.001 57.8084C48.7705 57.3566 48.7533 54.7636 48.848 54.1704C48.8976 53.8599 49.197 53.3675 49.5073 53.2754H49.5094Z" fill="white"/>
</g>
<defs>
<clipPath id="clip0_1776_5284">
<rect width="63" height="71" fill="white" transform="translate(26 22)"/>
</clipPath>
</defs>
</svg>
