<svg width="42" height="42" viewBox="0 0 42 42" fill="none" xmlns="http://www.w3.org/2000/svg">
<rect width="42" height="42" rx="21" fill="#2B6FF6"/>
<path fill-rule="evenodd" clip-rule="evenodd" d="M14.8584 5H26.1363C26.6436 4.99932 27.1462 5.09677 27.6151 5.28678C28.084 5.4768 28.5101 5.75564 28.869 6.10735C29.2278 6.45905 29.5125 6.87672 29.7065 7.33644C29.9006 7.79616 30.0003 8.2889 30 8.78646V33.2135C30.0003 33.7111 29.9006 34.2038 29.7065 34.6636C29.5125 35.1233 29.2278 35.5409 28.869 35.8927C28.5101 36.2444 28.084 36.5232 27.6151 36.7132C27.1462 36.9032 26.6436 37.0007 26.1363 37H14.8584C13.8349 36.9993 12.8535 36.6001 12.1299 35.89C11.4064 35.18 11 34.2173 11 33.2135V8.78125C10.9997 8.28438 11.0992 7.79231 11.293 7.33322C11.4869 6.87414 11.7711 6.45704 12.1295 6.10582C12.4879 5.7546 12.9134 5.47614 13.3817 5.28639C13.8499 5.09664 14.3518 4.99932 14.8584 5ZM24.1287 19.1068C24.242 19.2151 24.3133 19.3588 24.3305 19.513C24.3411 19.5999 24.3339 19.6879 24.3093 19.772C24.2846 19.8561 24.2431 19.9345 24.1871 20.0026C24.0738 20.1391 23.9102 20.2262 23.7317 20.2453C23.5533 20.2643 23.3744 20.2136 23.2338 20.1042C22.8281 19.7782 22.3741 19.5147 21.8875 19.3229C21.0103 18.9705 20.0269 18.9705 19.1497 19.3229C18.6682 19.5136 18.2201 19.7772 17.8219 20.1042L17.8034 20.1198C17.6673 20.2203 17.4975 20.2668 17.328 20.25C17.2398 20.2419 17.1542 20.2166 17.0762 20.1754C16.9982 20.1342 16.9294 20.0781 16.8739 20.0104L16.8421 19.987C16.7389 19.8538 16.6905 19.6874 16.7066 19.5208C16.715 19.4344 16.7409 19.3504 16.7829 19.274C16.8249 19.1975 16.882 19.13 16.9509 19.0755C17.4753 18.6482 18.0661 18.3062 18.7009 18.0625C19.2817 17.8372 19.9006 17.7215 20.5252 17.7214C21.1543 17.7246 21.7773 17.8421 22.3628 18.0677C22.9891 18.3107 23.5739 18.6462 24.0969 19.0625C24.1089 19.0724 24.1196 19.0838 24.1287 19.0964V19.1068ZM26.4018 16.6562C26.5322 16.7737 26.6112 16.9361 26.6222 17.1094C26.6279 17.1969 26.6155 17.2847 26.5859 17.3675C26.5562 17.4502 26.5099 17.5263 26.4496 17.5911C26.3293 17.722 26.1615 17.8014 25.9822 17.8125C25.8927 17.8194 25.8026 17.8081 25.7176 17.7795C25.6327 17.7508 25.5546 17.7053 25.4883 17.6458C24.7495 16.9911 23.9086 16.4566 22.9975 16.0625C22.2082 15.7173 21.3511 15.5466 20.487 15.5623C19.6229 15.5781 18.7729 15.7799 17.9972 16.1536C17.0966 16.5888 16.2713 17.16 15.5515 17.8464C15.4874 17.9059 15.412 17.9525 15.3295 17.9833C15.247 18.0141 15.1591 18.0287 15.0709 18.026C14.8913 18.0223 14.7206 17.9493 14.5955 17.8229H14.5823C14.4626 17.6966 14.3986 17.5291 14.4043 17.3568C14.4104 17.1814 14.4856 17.0153 14.6141 16.8932L14.6274 16.8802C15.4605 16.0892 16.4181 15.435 17.4635 14.9427C18.3992 14.5021 19.4206 14.264 20.4584 14.2447C21.4962 14.2254 22.526 14.4253 23.4781 14.8307C24.5191 15.2706 25.4804 15.873 26.3248 16.6146C26.3492 16.6232 26.3711 16.6375 26.3885 16.6562H26.4018ZM18.2867 26.6458C18.0397 26.6458 17.7556 26.6328 17.4741 26.6042L16.6057 26.5182V25.5234H18.3451C18.4448 25.5326 18.5449 25.5088 18.6292 25.4557C18.6793 25.4149 18.7124 25.3574 18.7222 25.2943C18.7297 25.2416 18.7341 25.1886 18.7354 25.1354V24.9349C18.7421 24.8437 18.7198 24.7528 18.6717 24.6745C18.6424 24.6408 18.6049 24.615 18.5626 24.5995C18.5203 24.584 18.4747 24.5793 18.43 24.5859H18.1406C18.0608 24.5786 17.981 24.5988 17.9149 24.6432C17.8905 24.6642 17.8706 24.6897 17.8564 24.7183C17.8423 24.747 17.8342 24.7781 17.8326 24.8099H16.619L16.7571 21.8021H19.8082V22.9245H17.8512L17.8193 23.6536C17.8971 23.597 17.9886 23.5611 18.0848 23.5495C18.1903 23.5339 18.2968 23.5261 18.4035 23.526H18.9027C19.1223 23.5178 19.3397 23.5711 19.5294 23.6797C19.6896 23.7823 19.8153 23.9291 19.8906 24.1016C19.9729 24.2889 20.0136 24.4913 20.0101 24.6953V25.3984C20.0215 25.6494 19.9558 25.898 19.8215 26.112C19.6831 26.3053 19.4818 26.4467 19.2506 26.513C18.9372 26.6046 18.6109 26.6468 18.284 26.638L18.2867 26.6458ZM22.0043 26.6458C21.7436 26.6561 21.4856 26.59 21.2635 26.4557C21.0701 26.3248 20.9168 26.1448 20.82 25.9349C20.7069 25.6868 20.6325 25.4235 20.5996 25.1536C20.5559 24.8439 20.5346 24.5315 20.5358 24.2188C20.5337 23.8813 20.5595 23.5443 20.6129 23.2109C20.6497 22.9363 20.7398 22.6711 20.8784 22.4297C21.019 22.2069 21.2256 22.0316 21.4706 21.9271C21.7788 21.8007 22.1113 21.7411 22.4451 21.7526C22.7107 21.7526 22.9284 21.7526 23.1143 21.7812C23.2929 21.8001 23.4702 21.8288 23.6454 21.8672C23.8074 21.9036 23.9774 21.9453 24.1526 21.9922V22.9688C24.057 22.9505 23.9322 22.9349 23.7835 22.9219C23.6348 22.9089 23.4675 22.8984 23.2843 22.8906C23.101 22.8828 22.9045 22.8906 22.6974 22.8906C22.502 22.8773 22.3066 22.9159 22.1318 23.0026C22.0649 23.0491 22.0086 23.1088 21.9665 23.1778C21.9244 23.2469 21.8975 23.3238 21.8875 23.4036C21.8411 23.6729 21.8207 23.9458 21.8264 24.2188C21.8245 24.4354 21.8361 24.6519 21.8609 24.8672C21.8731 25.0011 21.91 25.1317 21.9698 25.2526C22.0122 25.3339 22.0802 25.3997 22.1637 25.4401C22.2539 25.4756 22.3506 25.4924 22.4478 25.4896C22.5924 25.49 22.7368 25.483 22.8806 25.4687C23.0081 25.4531 23.1064 25.4401 23.1701 25.4271V24.8047H22.485V23.8099C22.5806 23.8099 22.6974 23.7865 22.8302 23.7786L23.2471 23.75H23.6375H24.057H24.389V26.6146H23.4277L23.2551 26.2995C23.099 26.3918 22.9334 26.4677 22.7611 26.526C22.5201 26.6103 22.2656 26.6518 22.0096 26.6484L22.0043 26.6458ZM12.041 31.7422H28.9564V9.12761H12.041V31.7422ZM20.496 32.9271C20.8111 32.9271 21.1192 33.0187 21.3812 33.1904C21.6432 33.3621 21.8474 33.6061 21.968 33.8916C22.0886 34.1771 22.1202 34.4913 22.0587 34.7944C21.9972 35.0975 21.8455 35.3759 21.6226 35.5944C21.3998 35.813 21.1159 35.9618 20.8069 36.0221C20.4978 36.0823 20.1774 36.0514 19.8863 35.9331C19.5952 35.8149 19.3463 35.6146 19.1712 35.3577C18.9962 35.1007 18.9027 34.7986 18.9027 34.4896C18.9027 34.0752 19.0706 33.6778 19.3694 33.3847C19.6682 33.0917 20.0734 32.9271 20.496 32.9271Z" fill="white"/>
</svg>
