<svg width="42" height="42" viewBox="0 0 42 42" fill="none" xmlns="http://www.w3.org/2000/svg">
<rect width="42" height="42" rx="21" fill="#3E4D6E"/>
<g clip-path="url(#clip0_1758_5084)">
<path d="M11.1483 30.9246C11.3778 31.2021 11.3509 31.611 11.0775 31.8439C10.8041 32.0769 10.4012 32.0496 10.1717 31.7721C7.39586 28.4812 5.9652 24.7543 5.99938 20.9827C6.036 17.3003 7.44957 13.5981 10.3573 10.2206C10.5868 9.95295 10.9896 9.92569 11.263 10.1586C11.5267 10.3916 11.5536 10.8004 11.3241 11.078C8.62633 14.2053 7.30797 17.62 7.28356 20.9901C7.2567 24.4495 8.57506 27.8741 11.1483 30.9246ZM14.5028 27.7576C14.7396 28.0253 14.7128 28.4341 14.4491 28.677C14.1854 28.9174 13.7826 28.8901 13.5433 28.6225C11.4095 26.1717 10.3109 23.5747 10.3548 20.9455C10.3988 18.3857 11.5145 15.8185 13.7899 13.3677C14.0365 13.11 14.4393 13.0901 14.6957 13.3404C14.952 13.5907 14.9691 13.9996 14.7225 14.2598C12.6766 16.4702 11.6659 18.7351 11.6293 20.9653C11.5951 23.265 12.579 25.5671 14.493 27.7675L14.5028 27.7576ZM17.4715 24.7443C17.6913 25.0219 17.6571 25.4308 17.3739 25.6538C17.1005 25.8768 16.6976 25.8421 16.4779 25.5547C15.328 24.1199 14.7298 22.5587 14.7201 20.9728C14.7103 19.4314 15.2816 17.8777 16.451 16.4256C16.6708 16.148 17.0736 16.1034 17.347 16.3265C17.6205 16.5495 17.6644 16.9584 17.4447 17.2359C16.4706 18.4477 15.9945 19.7238 15.9945 20.9629C15.9945 22.2391 16.5047 23.5227 17.4618 24.7245L17.4715 24.7443ZM31.827 31.7696C31.5975 32.0471 31.1947 32.0719 30.9213 31.8414C30.6478 31.6085 30.6234 31.1996 30.8505 30.9221C33.4237 27.8716 34.7518 24.4395 34.7152 20.9901C34.6883 17.62 33.37 14.2053 30.6747 11.0755C30.4452 10.8079 30.472 10.399 30.7357 10.1561C30.9994 9.92321 31.4022 9.95047 31.6415 10.2181C34.5492 13.5981 35.9628 17.2978 35.9994 20.9802C36.0336 24.7543 34.6029 28.4812 31.827 31.7696ZM28.4628 28.615C28.2259 28.8827 27.8207 28.9099 27.557 28.6696C27.2933 28.4292 27.2665 28.0178 27.5033 27.7502C29.4271 25.5472 30.4012 23.2476 30.3671 20.948C30.3329 18.7079 29.3221 16.4429 27.2762 14.2424C27.0296 13.9847 27.0467 13.5734 27.3031 13.3231C27.557 13.0728 27.9623 13.0901 28.2088 13.3503C30.4842 15.8011 31.6 18.3609 31.6439 20.9282C31.6879 23.5574 30.599 26.1519 28.4554 28.6051L28.4628 28.615ZM25.5282 25.5571C25.3085 25.8347 24.9056 25.8793 24.6322 25.6563C24.3588 25.4332 24.3148 25.0244 24.5345 24.7468C25.5013 23.5425 26.0018 22.2589 26.0018 20.9852C26.0018 19.7362 25.5355 18.47 24.5516 17.2582C24.3319 16.9807 24.3661 16.5718 24.6493 16.3488C24.9227 16.1257 25.3255 16.1604 25.5453 16.4479C26.7147 17.9025 27.2836 19.4537 27.2762 20.9951C27.2665 22.581 26.6708 24.1347 25.5184 25.577L25.5282 25.5571ZM20.9872 23.3988C20.7796 23.3988 20.5697 23.3814 20.3622 23.3443C20.035 23.2501 19.7298 23.0915 19.4711 22.8759C19.4125 22.8263 19.3539 22.7743 19.3002 22.7198C18.8607 22.2737 18.597 21.6666 18.597 20.9901C18.597 20.3136 18.8705 19.7065 19.3002 19.2605C19.7396 18.8144 20.3378 18.5468 21.0043 18.5468C21.6708 18.5468 22.2689 18.8243 22.7084 19.2605C23.1478 19.7065 23.4115 20.3136 23.4115 20.9901C23.4115 21.3643 23.3285 21.7187 23.1796 22.0359C22.7572 22.9403 21.9711 23.4012 20.9872 23.3988Z" fill="white"/>
</g>
<defs>
<clipPath id="clip0_1758_5084">
<rect width="30" height="22" fill="white" transform="translate(6 10)"/>
</clipPath>
</defs>
</svg>
