<svg width="52" height="52" viewBox="0 0 52 52" fill="none" xmlns="http://www.w3.org/2000/svg">
<rect width="52" height="52" rx="26" fill="#2B6FF6"/>
<path d="M36.9996 32.25C36.1686 32.252 35.4016 32.527 34.7846 32.989L34.7946 32.982L31.4956 29.984C32.3156 28.887 32.8086 27.505 32.8086 26.007C32.8086 24.393 32.2366 22.913 31.2836 21.758L31.2926 21.769L34.9366 18.126C35.5206 18.517 36.2386 18.75 37.0106 18.75C39.0876 18.75 40.7706 17.067 40.7706 14.99C40.7706 12.913 39.0876 11.23 37.0106 11.23C34.9336 11.23 33.2506 12.913 33.2506 14.99C33.2506 15.763 33.4836 16.481 33.8836 17.078L33.8746 17.064L30.2316 20.707C29.0866 19.763 27.6046 19.19 25.9876 19.19C25.0506 19.19 24.1596 19.382 23.3496 19.73L23.3936 19.713L22.3616 17.839C23.1526 17.151 23.6496 16.144 23.6496 15.02C23.6496 12.96 21.9796 11.291 19.9206 11.291C17.8616 11.291 16.1916 12.961 16.1916 15.02C16.1916 17.08 17.8616 18.749 19.9206 18.749C19.9276 18.749 19.9356 18.749 19.9426 18.749C20.3406 18.743 20.7196 18.676 21.0746 18.555L21.0486 18.563L22.0856 20.446C20.3286 21.689 19.1956 23.711 19.1916 25.999V26C19.2016 26.697 19.3166 27.364 19.5216 27.99L19.5086 27.943L18.0856 28.546C17.4046 27.575 16.2906 26.949 15.0296 26.949C12.9736 26.949 11.3076 28.615 11.3076 30.671C11.3076 32.727 12.9736 34.393 15.0296 34.393C17.0856 34.393 18.7516 32.727 18.7516 30.671C18.7516 30.407 18.7246 30.15 18.6726 29.902L18.6766 29.926L20.0956 29.324C21.2626 31.417 23.4626 32.809 25.9876 32.809C27.7176 32.809 29.2956 32.155 30.4876 31.081L30.4816 31.086L33.7906 34.093C33.4556 34.637 33.2556 35.294 33.2516 35.999C33.2516 38.07 34.9306 39.75 37.0016 39.75C39.0726 39.75 40.7516 38.071 40.7516 36C40.7516 33.929 39.0726 32.25 37.0016 32.25H36.9996ZM17.6896 15C17.6896 13.757 18.6966 12.75 19.9396 12.75C21.1826 12.75 22.1896 13.757 22.1896 15C22.1896 16.243 21.1826 17.25 19.9396 17.25C18.6976 17.248 17.6916 16.242 17.6896 15ZM14.9996 32.92C13.7576 32.919 12.7516 31.913 12.7516 30.671C12.7516 29.429 13.7586 28.422 15.0006 28.422C16.2426 28.422 17.2486 29.428 17.2496 30.67C17.2476 31.912 16.2416 32.918 14.9996 32.92ZM36.9996 12.75C38.2426 12.75 39.2496 13.757 39.2496 15C39.2496 16.243 38.2426 17.25 36.9996 17.25C35.7566 17.25 34.7496 16.243 34.7496 15C34.7516 13.758 35.7576 12.752 36.9996 12.75ZM20.6896 26C20.6896 26 20.6896 26 20.6896 25.999C20.6896 23.067 23.0666 20.69 25.9986 20.69C28.9306 20.69 31.3076 23.067 31.3076 25.999C31.3076 28.931 28.9306 31.308 25.9986 31.308C23.0676 31.305 20.6936 28.93 20.6896 26ZM36.9996 38.25C35.7566 38.25 34.7496 37.243 34.7496 36C34.7496 34.757 35.7566 33.75 36.9996 33.75C38.2426 33.75 39.2496 34.757 39.2496 36C39.2476 37.242 38.2416 38.248 36.9996 38.25Z" fill="white"/>
</svg>
