<svg width="42" height="42" viewBox="0 0 42 42" fill="none" xmlns="http://www.w3.org/2000/svg">
<rect width="42" height="42" rx="21" fill="#2B6FF6"/>
<path fill-rule="evenodd" clip-rule="evenodd" d="M20.7493 20.6075H33.583C33.8127 20.6075 34 20.7982 34 21.032V30.2566C34 30.4905 33.8127 30.6812 33.583 30.6812H20.7493C20.5195 30.6812 20.3323 30.4905 20.3323 30.2566V21.032C20.3323 20.7982 20.5195 20.6075 20.7493 20.6075ZM18.2628 10.0641C18.0364 10.0929 17.8111 10.1301 17.5874 10.1756C16.9715 10.3007 16.37 10.4902 15.7925 10.7412L15.7927 10.7419C15.2065 10.9986 14.6609 11.2987 14.1572 11.6429C13.6525 11.9874 13.1823 12.3817 12.7534 12.8201L12.7515 12.822C12.4316 13.1465 12.1355 13.4945 11.8655 13.863H14.8642C15.724 12.6038 16.8552 11.3375 18.2628 10.0641ZM18.6231 25.5358H15.8998C16.625 26.4973 17.5336 27.4544 18.6231 28.4071V30.3633C18.2118 30.3301 17.8028 30.2723 17.3981 30.19C16.7255 30.0529 16.0684 29.8462 15.4371 29.573L15.4106 29.5624C14.7774 29.2851 14.1803 28.9555 13.62 28.5727C13.0626 28.1922 12.5432 27.7569 12.0694 27.273C11.5943 26.7906 11.167 26.2619 10.7935 25.6944C10.4175 25.124 10.0938 24.5158 9.82153 23.871L9.82227 23.8707L9.82153 23.869C9.27393 22.5643 9 21.1732 9 19.6995C9 18.9632 9.06836 18.247 9.20503 17.5517C9.33971 16.8668 9.54278 16.1976 9.81108 15.5547L9.82153 15.5278C10.0938 14.883 10.4175 14.2749 10.7935 13.7044C11.167 13.1369 11.5944 12.6081 12.0695 12.1257C12.5433 11.6418 13.0626 11.2066 13.62 10.8261C14.1803 10.4433 14.7774 10.1138 15.4106 9.8365L15.4109 9.83725L15.4125 9.8365C16.0514 9.55804 16.7168 9.34768 17.3982 9.20878C18.081 9.06961 18.7843 9 19.5074 9C20.2305 9 20.9337 9.06961 21.6165 9.20878C22.2891 9.34593 22.9463 9.5527 23.5776 9.82586L23.6041 9.8365C24.2372 10.1138 24.8345 10.4433 25.3948 10.8261C25.9521 11.2065 26.4714 11.6418 26.9451 12.1257C27.4203 12.608 27.8478 13.1368 28.2213 13.7044C28.5972 14.2749 28.9208 14.883 29.1932 15.5278L29.1924 15.5281L29.1932 15.5298C29.4667 16.1802 29.6733 16.8578 29.8097 17.5516C29.9091 18.0574 29.9724 18.5743 29.9995 19.102H29.0295C29.0035 18.6391 28.9471 18.1864 28.8602 17.7442C28.7374 17.1171 28.5513 16.5047 28.3047 15.9167L28.3041 15.9169C28.1469 15.5448 27.9732 15.1888 27.7828 14.8491H24.7693C25.5852 16.2757 26.0518 17.6933 26.1755 19.102H25.2061C25.0669 17.705 24.5471 16.2875 23.6391 14.8491H19.9916V19.102H19.8438C19.2231 19.102 18.7067 19.58 18.6323 20.1925H13.7774C13.8399 21.6548 14.3245 23.1071 15.2213 24.5497H18.6231V25.5358ZM14.7059 25.5358H11.8655C12.1355 25.9044 12.4316 26.2523 12.7515 26.5769L12.7534 26.5788C13.1823 27.0171 13.6525 27.4114 14.1572 27.756C14.6609 28.1002 15.2065 28.4002 15.7927 28.657L15.8158 28.6678C16.3862 28.9138 16.9798 29.0999 17.5873 29.2231C17.7872 29.2638 17.9893 29.298 18.1936 29.3256C16.7391 28.0781 15.5749 26.815 14.7059 25.5358ZM11.2319 24.5497H14.0963C13.2983 23.1173 12.8677 21.6649 12.812 20.1925H9.97988C10.0333 21.352 10.2768 22.4494 10.71 23.4821L10.7106 23.4819C10.8678 23.854 11.0416 24.2101 11.2319 24.5497ZM9.97988 19.2063H12.8305C12.9399 17.7633 13.4093 16.311 14.2454 14.8491H11.2319C11.0386 15.1948 10.8646 15.5513 10.7106 15.9169L10.7 15.9405C10.4584 16.5213 10.2756 17.1257 10.1545 17.7443C10.0611 18.2197 10.0029 18.7071 9.97988 19.2063ZM13.7988 19.2063H19.0231V14.8491H15.3756C14.445 16.3234 13.922 17.7756 13.7988 19.2063ZM16.0566 13.863H19.0231V10.691C17.8286 11.7594 16.8409 12.8167 16.0566 13.863ZM19.9916 13.863H22.958C22.1738 12.8167 21.186 11.7594 19.9916 10.691V13.863ZM24.1504 13.863H27.1492C26.8793 13.4944 26.5831 13.1465 26.2632 12.822L26.2613 12.8201C25.8325 12.3817 25.3623 11.9874 24.8576 11.6429C24.3539 11.2987 23.8082 10.9986 23.222 10.7419L23.1989 10.731C22.6285 10.4851 22.0349 10.299 21.4273 10.1756C21.2036 10.1301 20.9782 10.0929 20.7518 10.0641C22.1594 11.3375 23.2906 12.6038 24.1504 13.863ZM25.2747 31.2672H29.0575C29.0675 31.9334 29.3372 32.5309 30.0676 33H24.2647C24.8528 32.5662 25.2772 32.0418 25.2747 31.2672ZM21.4846 21.4554H32.8489C33.0524 21.4554 33.2172 21.6245 33.2172 21.8304V28.8921C33.2172 29.098 33.0512 29.2671 32.8489 29.2671H21.4846C21.2823 29.2671 21.1163 29.098 21.1163 28.8921L21.1162 21.8304C21.115 21.6234 21.282 21.4554 21.4846 21.4554Z" fill="white"/>
</svg>
