<svg width="42" height="42" viewBox="0 0 42 42" fill="none" xmlns="http://www.w3.org/2000/svg">
<rect width="42" height="42" rx="21" fill="#3E4D6E"/>
<g clip-path="url(#clip0_1758_5067)">
<path d="M15.6469 12.2559C15.4718 12.1562 15.4127 11.9355 15.5131 11.7617C15.6134 11.5879 15.8358 11.5293 16.0109 11.6289L16.8236 12.0938C16.9987 12.1934 17.0577 12.4141 16.9574 12.5879C16.857 12.7617 16.6347 12.8203 16.4595 12.7207L15.6469 12.2559ZM23.1654 17.1641L23.3386 18.8926H26.5853L26.2665 17.1641H23.1654ZM27.1146 17.1641L27.4334 18.8926H29.9756L29.4955 17.1641H27.1146ZM30.2059 19.7246H27.5869L27.8328 21.0625H30.5778L30.2059 19.7246ZM30.81 21.8984H27.9883L28.2342 23.2363H31.1799L30.81 21.8984ZM31.4121 24.0684H28.3877L28.8482 26.5664H32.1047L31.4121 24.0684ZM27.9981 26.5664L27.5377 24.0684H23.8541L24.104 26.5664H27.9981ZM23.2619 26.5664L23.012 24.0684H18.4587L18.1144 26.5664H23.2619ZM17.2722 26.5664L17.6165 24.0684H14.1377L13.5533 26.5664H17.2722ZM12.6953 26.5664L13.2797 24.0684H10.5879L9.8953 26.5664H12.6953ZM10.8201 23.2363H13.4745L13.7874 21.8984H11.19L10.8201 23.2363ZM11.4222 21.0625H13.9802L14.2931 19.7246H11.7941L11.4222 21.0625ZM12.0243 18.8926H14.4879L14.8933 17.1641H12.5045L12.0243 18.8926ZM15.7512 17.1641L15.3458 18.8926H18.3269L18.565 17.1641H15.7512ZM19.4052 17.1641C19.4052 17.1797 19.4032 17.1934 19.4012 17.209L19.1691 18.8926H22.4984L22.3252 17.1641H19.4052ZM32.2897 27.3984H21.8845V31.2441H25.0899V33H16.9101V31.2441H20.1155V27.3984H9.71034C9.64934 27.3984 9.58441 27.3887 9.51947 27.3711C9.39157 27.3359 9.27154 27.2676 9.183 27.1758C9.07084 27.0605 9 26.9121 9 26.7441C9 26.6953 9.00787 26.6426 9.02361 26.5879L11.7056 16.9219C11.7469 16.7754 11.8158 16.6328 11.924 16.5254C12.044 16.4062 12.1995 16.332 12.3943 16.332H17.6126C17.3135 15.8418 17.1404 15.2676 17.1404 14.6523C17.1404 13.7578 17.5064 12.9473 18.0967 12.3594C18.687 11.7734 19.5036 11.4102 20.4067 11.4102C21.3099 11.4102 22.1245 11.7734 22.7168 12.3594C23.3071 12.9453 23.6731 13.7559 23.6731 14.6523C23.6731 15.2676 23.5 15.8418 23.2009 16.332H29.6077C29.7848 16.332 29.9284 16.3945 30.0426 16.4961C30.0544 16.5059 30.0662 16.5156 30.076 16.5254C30.1842 16.6328 30.2531 16.7754 30.2944 16.9219L32.9784 26.5898C32.9941 26.6465 33.002 26.6973 33.002 26.7441C33.002 26.9121 32.9311 27.0605 32.819 27.1738C32.7304 27.2656 32.6084 27.334 32.4825 27.3691C32.4156 27.3887 32.3507 27.3984 32.2897 27.3984ZM23.4193 19.7246L23.5531 21.0625H26.9847L26.7388 19.7246H23.4193ZM15.153 19.7246L14.8401 21.0625H18.0278L18.2108 19.7246H15.153ZM19.0549 19.7246L18.8719 21.0625H22.7148L22.581 19.7246H19.0549ZM23.6377 21.8984L23.7715 23.2363H27.3862L27.1402 21.8984H23.6377ZM14.6453 21.8984L14.3325 23.2363H17.7307L17.9137 21.8984H14.6453ZM18.7558 21.8984L18.5728 23.2363H22.9313L22.7975 21.8984H18.7558ZM17.4906 10.2168C17.3903 10.043 17.4493 9.82227 17.6244 9.72266C17.7995 9.62305 18.0219 9.68164 18.1222 9.85547L18.5906 10.6602C18.6909 10.834 18.6319 11.0547 18.4587 11.1543C18.2836 11.2539 18.0612 11.1953 17.9609 11.0215L17.4906 10.2168ZM20.1136 9.36328C20.1136 9.16211 20.2769 9 20.4795 9C20.6822 9 20.8455 9.16211 20.8455 9.36328V10.293C20.8455 10.4941 20.6822 10.6562 20.4795 10.6562C20.2769 10.6562 20.1136 10.4941 20.1136 10.293V9.36328ZM22.8191 9.92969C22.9195 9.75586 23.1418 9.69727 23.317 9.79688C23.4921 9.89648 23.5511 10.1172 23.4508 10.291L22.9825 11.0977C22.8821 11.2715 22.6598 11.3301 22.4846 11.2305C22.3095 11.1309 22.2505 10.9102 22.3508 10.7363L22.8191 9.92969ZM24.8734 11.7598C25.0485 11.6602 25.2709 11.7188 25.3712 11.8926C25.4716 12.0664 25.4126 12.2871 25.2374 12.3867L24.4267 12.8516C24.2516 12.9512 24.0293 12.8926 23.9289 12.7207C23.8286 12.5469 23.8876 12.3262 24.0627 12.2266L24.8734 11.7598ZM25.7333 14.3633C25.936 14.3633 26.0993 14.5254 26.0993 14.7266C26.0993 14.9277 25.936 15.0898 25.7333 15.0898H24.7967C24.594 15.0898 24.4307 14.9277 24.4307 14.7266C24.4307 14.5254 24.594 14.3633 24.7967 14.3633H25.7333ZM15.0762 14.9414C14.8736 14.9414 14.7103 14.7793 14.7103 14.5781C14.7103 14.377 14.8736 14.2148 15.0762 14.2148H16.0129C16.2155 14.2148 16.3789 14.377 16.3789 14.5781C16.3789 14.7793 16.2155 14.9414 16.0129 14.9414H15.0762Z" fill="white"/>
</g>
<defs>
<clipPath id="clip0_1758_5067">
<rect width="24" height="24" fill="white" transform="translate(9 9)"/>
</clipPath>
</defs>
</svg>
