<svg width="52" height="52" viewBox="0 0 52 52" fill="none" xmlns="http://www.w3.org/2000/svg">
<rect width="52" height="52" rx="26" fill="#2B6FF6"/>
<path d="M28.0827 25.6832C28.9915 25.0376 29.5867 23.9784 29.5867 22.7824C29.5867 20.8208 27.9915 19.2256 26.0315 19.2256C24.0707 19.2256 22.4755 20.8208 22.4755 22.7824C22.4755 23.9784 23.0715 25.0384 23.9803 25.684L19.9739 37.2296C19.8683 37.532 20.0283 37.8624 20.3315 37.9688C20.3931 37.9888 20.4579 38 20.5203 38C20.7603 38 20.9851 37.8496 21.0675 37.6096L21.8835 35.2632H30.1795L30.9931 37.6096C31.0755 37.8504 31.3011 38 31.5419 38C31.6043 38 31.6675 37.9888 31.7315 37.9688C32.0339 37.8624 32.1939 37.532 32.0883 37.2296L28.0827 25.6832ZM26.0307 20.3928C27.3475 20.3928 28.4195 21.4648 28.4195 22.7824C28.4195 24.0992 27.3475 25.1712 26.0307 25.1712C24.7131 25.1712 23.6419 24.0992 23.6419 22.7824C23.6419 21.4648 24.7131 20.3928 26.0307 20.3928ZM26.0307 26.3384C26.3787 26.3384 26.7139 26.2872 27.0323 26.1936L28.3147 29.8912H23.7475L25.0307 26.1936C25.3483 26.2872 25.6835 26.3384 26.0307 26.3384ZM22.2851 34.1032L23.3443 31.052H28.7163L29.7763 34.1032H22.2851Z" fill="white"/>
<path d="M21.2964 27.2936C21.41 27.4072 21.558 27.4632 21.7052 27.4632C21.8548 27.4632 22.0036 27.4072 22.1172 27.2936C22.3428 27.0672 22.3428 26.6992 22.1172 26.4736C21.13 25.4888 20.5868 24.1776 20.5868 22.7832C20.5868 21.3888 21.1292 20.0784 22.1156 19.0928C22.3412 18.8664 22.3412 18.4992 22.1156 18.272C21.8876 18.0464 21.5212 18.0464 21.2956 18.272C20.09 19.4768 19.4268 21.0784 19.4268 22.7832C19.426 24.4864 20.09 26.0888 21.2964 27.2936Z" fill="white"/>
<path d="M20.0646 28.5232C18.5294 26.9904 17.6854 24.9512 17.6854 22.7824C17.6854 20.6144 18.5294 18.5752 20.0638 17.04C20.2902 16.8136 20.2902 16.4464 20.0638 16.22C19.8366 15.9936 19.4694 15.9944 19.2438 16.2208C17.491 17.9736 16.5254 20.304 16.5254 22.7824C16.5254 25.2608 17.4918 27.5912 19.2454 29.344C19.359 29.4576 19.5062 29.5136 19.655 29.5136C19.8038 29.5136 19.9526 29.4576 20.0654 29.344C20.291 29.1168 20.291 28.7504 20.0646 28.5232Z" fill="white"/>
<path d="M14.7858 22.7834C14.7858 19.841 15.9314 17.0738 18.013 14.9906C18.2394 14.7642 18.2394 14.397 18.013 14.1706C17.7866 13.9442 17.4186 13.9442 17.193 14.1706C14.8922 16.4722 13.625 19.5306 13.625 22.7834C13.625 26.0354 14.8922 29.0946 17.193 31.3962C17.3066 31.509 17.4546 31.565 17.6034 31.565C17.7522 31.565 17.901 31.509 18.0138 31.3962C18.2402 31.169 18.2402 30.801 18.0138 30.5754C15.9322 28.4922 14.7858 25.725 14.7858 22.7834Z" fill="white"/>
<path d="M31.4145 22.7832C31.4145 24.1768 30.8713 25.4872 29.8857 26.4728C29.6601 26.6984 29.6601 27.0656 29.8857 27.292C29.9993 27.4056 30.1481 27.4624 30.2969 27.4624C30.4449 27.4624 30.5929 27.4056 30.7065 27.292C31.9121 26.0872 32.5761 24.4856 32.5761 22.7824C32.5761 21.0776 31.9113 19.4752 30.7057 18.2704C30.4793 18.044 30.1129 18.0448 29.8849 18.2704C29.6593 18.4968 29.6593 18.864 29.8857 19.0904C30.8713 20.0768 31.4145 21.388 31.4145 22.7832Z" fill="white"/>
<path d="M32.7558 16.22C32.5278 15.9936 32.1606 15.9944 31.935 16.2208C31.7078 16.4472 31.7078 16.8144 31.935 17.04C33.4686 18.5736 34.3134 20.6128 34.3134 22.7824C34.3134 24.9496 33.4694 26.9888 31.9366 28.5248C31.7094 28.7504 31.7094 29.1168 31.9366 29.344C32.0502 29.4576 32.199 29.5136 32.347 29.5136C32.4958 29.5136 32.6446 29.4576 32.7574 29.344C34.5094 27.5904 35.475 25.26 35.475 22.7824C35.475 20.3032 34.5086 17.9728 32.7558 16.22Z" fill="white"/>
<path d="M34.8062 14.1696C34.5806 13.944 34.2134 13.944 33.9862 14.1696C33.7598 14.396 33.7598 14.764 33.9862 14.9896C36.0686 17.072 37.2158 19.84 37.2158 22.7824C37.2158 25.724 36.0686 28.4912 33.9878 30.5744C33.7614 30.8008 33.7614 31.1672 33.9878 31.3944C34.1006 31.5072 34.2494 31.5632 34.3982 31.5632C34.5462 31.5632 34.695 31.5072 34.8086 31.3944C37.1094 29.0912 38.3758 26.0336 38.3758 22.7816C38.375 19.5296 37.1078 16.4712 34.8062 14.1696Z" fill="white"/>
</svg>
