<svg width="62" height="62" viewBox="0 0 62 62" fill="none" xmlns="http://www.w3.org/2000/svg">
<rect width="62" height="62" rx="31" fill="#2B6FF6"/>
<path d="M42.2065 36.1191H35.789C35.4133 36.1191 35.0529 36.2727 34.7873 36.5462C34.5216 36.8197 34.3723 37.1906 34.3723 37.5774C34.3723 37.9642 34.5216 38.3351 34.7873 38.6086C35.0529 38.8821 35.4133 39.0357 35.789 39.0357H39.189C37.6263 40.7168 35.6111 41.8785 33.4021 42.3715C31.1932 42.8646 28.8915 42.6664 26.7928 41.8026C24.6941 40.9387 22.8943 39.4486 21.6246 37.5237C20.3548 35.5988 19.6732 33.327 19.6673 31.0003C19.6673 30.6136 19.5181 30.2426 19.2524 29.9691C18.9867 29.6956 18.6264 29.542 18.2507 29.542C17.8749 29.542 17.5146 29.6956 17.2489 29.9691C16.9832 30.2426 16.834 30.6136 16.834 31.0003C16.8415 33.8482 17.6588 36.6314 19.1851 39.0066C20.7114 41.3818 22.8798 43.245 25.4229 44.3663C27.9659 45.4875 30.7722 45.8178 33.4954 45.3163C36.2187 44.8147 38.7397 43.5034 40.7473 41.5441V44.1253C40.7473 44.5121 40.8966 44.883 41.1623 45.1565C41.4279 45.43 41.7883 45.5837 42.164 45.5837C42.5397 45.5837 42.9 45.43 43.1657 45.1565C43.4314 44.883 43.5807 44.5121 43.5807 44.1253V37.5628C43.5772 37.186 43.4321 36.8253 43.176 36.5561C42.9198 36.287 42.5724 36.1304 42.2065 36.1191ZM31.0007 16.417C27.3689 16.4277 23.8798 17.8737 21.254 20.4566V17.8753C21.254 17.4886 21.1047 17.1176 20.8391 16.8441C20.5734 16.5706 20.213 16.417 19.8373 16.417C19.4616 16.417 19.1013 16.5706 18.8356 16.8441C18.5699 17.1176 18.4207 17.4886 18.4207 17.8753V24.4378C18.4207 24.8246 18.5699 25.1955 18.8356 25.469C19.1013 25.7425 19.4616 25.8962 19.8373 25.8962H26.2123C26.588 25.8962 26.9484 25.7425 27.2141 25.469C27.4797 25.1955 27.629 24.8246 27.629 24.4378C27.629 24.0511 27.4797 23.6801 27.2141 23.4066C26.9484 23.1331 26.588 22.9795 26.2123 22.9795H22.8123C24.3741 21.2993 26.3881 20.1379 28.5957 19.6444C30.8033 19.151 33.1038 19.3479 35.2019 20.2099C37.3 21.072 39.1 22.5598 40.3708 24.4825C41.6416 26.4051 42.3253 28.6748 42.334 31.0003C42.334 31.3871 42.4832 31.758 42.7489 32.0315C43.0146 32.305 43.3749 32.4587 43.7507 32.4587C44.1264 32.4587 44.4867 32.305 44.7524 32.0315C45.0181 31.758 45.1673 31.3871 45.1673 31.0003C45.1673 29.0852 44.8009 27.1889 44.0889 25.4195C43.377 23.6502 42.3335 22.0425 41.018 20.6884C39.7025 19.3342 38.1408 18.26 36.422 17.5271C34.7032 16.7942 32.861 16.417 31.0007 16.417Z" fill="white"/>
</svg>
