<svg width="52" height="52" viewBox="0 0 52 52" fill="none" xmlns="http://www.w3.org/2000/svg">
<rect width="52" height="52" rx="26" fill="#2B6FF6"/>
<path d="M28.6046 12.0219L26.3486 23.8779L34.5226 23.9049L23.3956 39.9769L25.6526 26.9339L17.4786 26.9049L28.6046 12.0219ZM28.6056 10.0229C28.5516 10.0229 28.4976 10.0249 28.4446 10.0289C28.0916 10.0569 27.8576 10.1759 27.5806 10.3619C27.4266 10.4639 27.2856 10.5899 27.1616 10.7349C27.1246 10.7779 27.0906 10.8229 27.0586 10.8689L15.8516 25.7009C15.4096 26.3079 15.3436 27.1079 15.6836 27.7769C16.0236 28.4459 16.7096 28.8699 17.4626 28.8759L23.2356 28.9179L21.4206 39.6119C21.2486 40.5309 21.7386 41.4469 22.6006 41.8159C22.8576 41.9259 23.1276 41.9789 23.3936 41.9789C24.0226 41.9789 24.5386 41.6849 24.9266 41.1539L36.1466 25.0819C36.5886 24.4749 36.6536 23.6739 36.3146 23.0059C35.9746 22.3369 35.2886 21.9129 34.5356 21.9079L28.7626 21.8979L30.5586 12.4959C30.5966 12.3449 30.6156 12.1879 30.6156 12.0259C30.6156 10.9439 29.7546 10.0619 28.6766 10.0269C28.6526 10.0259 28.6296 10.0259 28.6056 10.0259V10.0229Z" fill="white"/>
</svg>
