<svg width="115" height="115" viewBox="0 0 115 115" fill="none" xmlns="http://www.w3.org/2000/svg">
<rect width="115" height="115" rx="57.5" fill="#2B6FF6"/>
<g clip-path="url(#clip0_1776_5208)">
<path d="M72.6193 37.2741V98.4247C72.6193 99.8631 69.3295 99.8631 69.3295 98.4247V37.2741C60.8059 35.2398 62.1322 21.8425 70.9744 21.8836C79.4459 21.9247 81.1948 35.0686 72.6193 37.2741ZM69.1929 25.4932C64.6353 26.9042 66.6638 35.9316 72.1706 34.0891C77.3784 32.3494 75.662 23.4864 69.1929 25.4932Z" fill="white"/>
<path d="M83.9452 43.6575C82.0728 42.2808 85.109 39.9315 85.7007 38.9178C89.4716 32.4726 89.231 26.3699 85.4146 20.0685C84.6669 18.8356 82.931 17.9178 83.6397 16.4726C85.4471 12.8082 89.7641 20.9589 90.3688 22.7671C92.2998 28.5137 91.7601 34.8767 88.6069 40C87.8982 41.1507 85.4406 44.7534 83.9452 43.6507V43.6575Z" fill="white"/>
<path d="M56.5021 15.5411C57.3603 15.3014 58.5306 16.1987 58.4525 17.137C58.3615 18.2261 56.7751 19.3151 56.2485 20.274C53.3553 25.5548 52.3281 30.2672 54.6751 36.1302C55.4878 38.1576 59.5383 41.9178 57.8544 43.2466C56.047 44.6781 54.5386 42.1439 53.6154 40.7055C49.3178 33.9863 49.2788 24.0617 54.3045 17.7261C54.7271 17.1918 56.0014 15.6781 56.5021 15.5411Z" fill="white"/>
<path d="M61.2029 19.5001C62.1977 19.2329 63.1079 20.1918 63.2249 21.1713C60.8974 25.1576 59.0444 27.6233 60.3772 32.5891C60.8584 34.3973 65.0844 39.5206 62.0351 39.7809C59.3045 40.0138 56.7429 32.459 56.6909 30.0412C56.6388 27.6233 58.8234 20.1439 61.2029 19.5001Z" fill="white"/>
<path d="M78.7897 20C79.3488 19.0685 81.0328 19.774 81.7479 20.4795C85.8829 24.5206 85.974 34.7124 81.8064 38.774C80.4346 40.1165 78.5101 40.3151 78.7247 38.0411C78.9067 36.0959 82.2095 33.6713 82.0405 29.1233C81.917 25.8836 77.9575 21.4041 78.7962 20H78.7897Z" fill="white"/>
<path d="M61.5409 54.322V92.7741L43.4925 98.7672C43.5185 91.3289 43.46 83.8905 43.4925 76.4522C43.4925 76.2056 43.5771 76.0001 43.5836 75.7741C43.6031 70.1303 43.5316 64.4933 43.6161 58.8494L61.5474 54.3152L61.5409 54.322ZM59.753 59.0344L53.9796 60.7878V66.822L59.74 64.7124C59.7075 64.6029 59.753 64.4727 59.753 64.3837V59.0344ZM51.7886 67.3357V61.5138L46.0152 63.2261V69.3083L51.7886 67.3357ZM53.9861 70.7672V76.9316L59.7595 74.822V69.3494L59.636 69.0549L53.9861 70.7672ZM51.7886 72.0481L46.0152 73.8015V79.8357L51.7886 77.7398V72.0481ZM53.9861 81.3837V87.4659L59.7205 85.4111L59.7595 79.6714L53.9861 81.3837ZM51.7886 82.2398L46.0542 83.9522C46.0022 85.9796 45.9696 88.0138 46.0542 90.0344L51.7886 87.9796V82.2398Z" fill="white"/>
<path d="M41.4509 58.7878L41.5029 98.685L23.526 92.6508L23.5 54.322L41.4509 58.7878ZM25.4505 58.7741V64.8563L31.2239 66.5686L31.1849 60.8289L25.4505 58.7741ZM39.1103 63.3152L33.3369 61.3426V67.2946L39.1103 69.1371V63.3152ZM31.2239 77.1028L31.1524 71.3974L25.457 69.3905V75.4659L31.2304 77.096L31.2239 77.1028ZM39.1103 79.6713V73.9796L33.3369 71.8837V77.9659L39.1103 79.6782V79.6713ZM31.2239 87.1234V81.4316L25.4505 79.3357V85.4179L31.2239 87.1302V87.1234ZM39.1103 83.9522L33.3369 81.9796V87.9316L39.1103 89.7741V83.9522Z" fill="white"/>
<path d="M47.4585 49.1302C47.4585 49.1302 47.4715 49.3288 47.8161 49.2056L61.1314 52.1028L42.6084 57.4521C41.8867 57.3014 41.1715 57.0891 40.4628 56.8905C40.3523 56.8631 40.2353 56.822 40.0792 56.7809C34.6764 55.2604 29.3256 53.5412 23.9033 52.1028L36.3408 49.4042C38.2133 49.2741 40.6189 48.1919 42.5108 48.1302C43.4926 48.096 46.3078 48.8973 47.465 49.1371L47.4585 49.1302Z" fill="white"/>
</g>
<defs>
<clipPath id="clip0_1776_5208">
<rect width="68" height="84" fill="white" transform="translate(23.5 15.5)"/>
</clipPath>
</defs>
</svg>
