<svg width="42" height="42" viewBox="0 0 42 42" fill="none" xmlns="http://www.w3.org/2000/svg">
<rect width="42" height="42" rx="21" fill="#2B6FF6"/>
<g clip-path="url(#clip0_1758_4956)">
<path d="M14.4965 20.0624C14.609 20.1939 14.6663 20.364 14.6563 20.537C14.6463 20.7138 14.568 20.8799 14.438 20.9999L14.4186 21.0155C14.2874 21.13 14.1166 21.1882 13.9431 21.1776C13.7682 21.1658 13.6044 21.0876 13.4851 20.9589L13.4656 20.9374C12.6928 20.0818 12.0636 19.1063 11.6026 18.0487C11.1942 17.1041 10.9891 16.0839 11.0004 15.0546C11.0229 14.0202 11.2619 13.0021 11.702 12.0663C12.1994 11.019 12.8635 10.0599 13.6683 9.22644C13.7297 9.16138 13.8033 9.1091 13.8849 9.07257C13.9665 9.03604 14.0545 9.01598 14.1438 9.01355C14.2327 9.01209 14.321 9.02864 14.4034 9.0622C14.4857 9.09576 14.5605 9.14564 14.6232 9.20886L14.6349 9.22058C14.7542 9.34496 14.8236 9.50907 14.8297 9.68151C14.8329 9.77011 14.8183 9.85844 14.7868 9.94129C14.7554 10.0241 14.7077 10.0998 14.6466 10.1639H14.6368C13.9502 10.882 13.3807 11.7039 12.9492 12.5995C12.5747 13.3706 12.3687 14.2129 12.3451 15.0702C12.3392 15.9299 12.5146 16.7811 12.8596 17.5682C13.255 18.4609 13.7883 19.2855 14.44 20.0116C14.4543 20.0203 14.4674 20.0308 14.479 20.0428L14.4965 20.0624ZM13.6605 30.8749H15.999L19.992 16.8397C19.8962 16.7817 19.805 16.7164 19.7191 16.6444L19.5749 16.5214C19.1991 16.1387 18.989 15.6228 18.9903 15.0858C18.9902 14.8216 19.0425 14.56 19.1443 14.3163C19.2441 14.0699 19.3903 13.8451 19.5749 13.6542C19.7631 13.4669 19.9863 13.3187 20.2318 13.2182C20.4773 13.1176 20.7401 13.0667 21.0053 13.0682C21.2726 13.0669 21.5376 13.1187 21.7848 13.2206C22.0311 13.3223 22.2554 13.4709 22.4454 13.6581C22.6323 13.8467 22.7801 14.0704 22.8805 14.3164C22.9808 14.5624 23.0316 14.8259 23.0301 15.0917C23.0297 15.2414 23.0134 15.3907 22.9814 15.537C22.949 15.6797 22.9013 15.8186 22.8391 15.951C22.6906 16.2774 22.4553 16.5565 22.159 16.7577L26.5651 30.8749H27.8493V32.996H13.6605V30.8749ZM18.2888 30.8749H25.4991L24.63 28.121L18.2888 30.8749ZM20.2375 19.7069L22.3655 20.8788L21.1768 17.076C21.1171 17.076 21.0521 17.076 20.9819 17.076L20.2395 19.7108L20.2375 19.7069ZM22.9073 22.6112L19.3664 25.1034L24.1935 26.7186L22.9092 22.6171L22.9073 22.6112ZM17.2559 30.2108L23.414 27.5331L18.4836 25.8885L17.254 30.2147L17.2559 30.2108ZM18.9903 24.121L22.1259 21.9159L19.953 20.7186L18.9786 24.1171L18.9903 24.121ZM17.1078 17.8085C17.2098 17.945 17.2559 18.1155 17.2364 18.285C17.2286 18.3724 17.2031 18.4573 17.1616 18.5345C17.12 18.6117 17.0633 18.6796 16.9948 18.7342L16.9675 18.7557C16.832 18.8565 16.6639 18.9031 16.4959 18.8866C16.4087 18.8779 16.3242 18.8518 16.2472 18.8099C16.1702 18.768 16.1024 18.7111 16.0477 18.6425L16.036 18.6288C15.6103 18.1113 15.2671 17.5309 15.0188 16.9081C14.7896 16.3236 14.6694 15.702 14.6641 15.0741C14.6622 14.4525 14.7779 13.8361 15.0051 13.2577C15.2526 12.6342 15.5972 12.054 16.0263 11.5389C16.1382 11.3996 16.3007 11.3105 16.4781 11.2913C16.6556 11.272 16.8334 11.3242 16.9724 11.4364C17.1114 11.5485 17.2003 11.7115 17.2195 11.8893C17.2387 12.0671 17.1866 12.2453 17.0747 12.3846C16.7446 12.7826 16.4777 13.2293 16.2835 13.7089C15.9262 14.5784 15.9262 15.5542 16.2835 16.4237C16.4809 16.9172 16.7523 17.3775 17.0883 17.7889L17.1078 17.8182V17.8085ZM28.5197 20.9569C28.4004 21.0837 28.2373 21.1599 28.0637 21.1698C27.9753 21.1752 27.8867 21.163 27.8031 21.1338C27.7194 21.1047 27.6424 21.0591 27.5765 20.9999L27.5648 20.9882C27.4384 20.8693 27.3624 20.7064 27.3524 20.5331C27.3465 20.4441 27.3585 20.3549 27.3876 20.2707C27.4167 20.1865 27.4624 20.109 27.5219 20.0428L27.5336 20.0311C28.1973 19.2985 28.74 18.4645 29.1413 17.5604C29.4866 16.7707 29.6619 15.9168 29.6558 15.0546C29.6345 14.196 29.4313 13.3518 29.0595 12.578C28.6239 11.6815 28.049 10.8601 27.3563 10.1444L27.3407 10.1288C27.2272 9.99902 27.1679 9.83047 27.1751 9.65808C27.1794 9.48466 27.249 9.31932 27.3699 9.19519L27.3855 9.17956C27.4491 9.11972 27.5238 9.07305 27.6054 9.04221C27.687 9.01138 27.7739 8.99699 27.861 8.99987C28.0382 9.0056 28.2061 9.08061 28.3287 9.20886L28.3424 9.22253C29.1415 10.0535 29.8004 11.0094 30.2931 12.0526C30.7331 12.9871 30.9722 14.0039 30.9946 15.037C31.0065 16.0695 30.8013 17.0931 30.3924 18.0409C29.9392 19.084 29.3199 20.0465 28.5587 20.8905C28.5495 20.9139 28.5356 20.9352 28.5177 20.953L28.5197 20.9569ZM25.579 18.6835C25.4681 18.7936 25.3231 18.8625 25.1678 18.8788C24.9909 18.8977 24.8137 18.8457 24.6748 18.7342C24.5368 18.6221 24.4485 18.4599 24.4292 18.2829C24.4099 18.1059 24.461 17.9284 24.5715 17.7889C24.9049 17.385 25.175 16.9326 25.3725 16.4471C25.7305 15.571 25.7305 14.5889 25.3725 13.7128V13.703C25.1775 13.2274 24.9107 12.7847 24.5813 12.3905L24.5637 12.369C24.4689 12.2331 24.4273 12.0669 24.4468 11.9022C24.4556 11.8146 24.4817 11.7296 24.5235 11.6522C24.5653 11.5747 24.6221 11.5064 24.6904 11.451L24.704 11.4413C24.8408 11.3333 25.0141 11.2828 25.1873 11.3007C25.3598 11.3187 25.5181 11.4044 25.6278 11.5389L25.6394 11.5526C26.0647 12.0665 26.406 12.6446 26.6508 13.2655C26.8781 13.8439 26.9938 14.4603 26.9919 15.0819C26.9865 15.7079 26.8663 16.3276 26.6372 16.91C26.3892 17.5398 26.0446 18.1269 25.6161 18.6503C25.6054 18.6623 25.5936 18.6735 25.581 18.6835H25.579Z" fill="white"/>
</g>
<defs>
<clipPath id="clip0_1758_4956">
<rect width="20" height="24" fill="white" transform="translate(11 9)"/>
</clipPath>
</defs>
</svg>
