<svg width="52" height="52" viewBox="0 0 52 52" fill="none" xmlns="http://www.w3.org/2000/svg">
<rect width="52" height="52" rx="26" fill="#2B6FF6"/>
<path d="M28.2789 13.7692L26.3049 24.1432L33.4571 24.1669L23.721 38.2299L25.6959 26.8172L18.5436 26.7919L28.2789 13.7692ZM28.2798 12.0201C28.2325 12.0201 28.1853 12.0219 28.1389 12.0254C27.83 12.0499 27.6253 12.154 27.3829 12.3167C27.2481 12.406 27.1248 12.5162 27.0163 12.6431C26.9839 12.6807 26.9541 12.7201 26.9261 12.7604L17.12 25.7384C16.7333 26.2695 16.6755 26.9695 16.973 27.5549C17.2705 28.1402 17.8708 28.5112 18.5296 28.5165L23.581 28.5532L21.9929 37.9105C21.8424 38.7146 22.2711 39.5161 23.0254 39.839C23.2503 39.9352 23.4865 39.9816 23.7193 39.9816C24.2696 39.9816 24.7211 39.7244 25.0606 39.2597L34.8781 25.1967C35.2649 24.6656 35.3218 23.9647 35.0251 23.3802C34.7276 22.7949 34.1274 22.4239 33.4685 22.4195L28.4171 22.4107L29.9886 14.184C30.0219 14.0519 30.0385 13.9145 30.0385 13.7727C30.0385 12.826 29.2851 12.0542 28.3419 12.0236C28.3209 12.0227 28.3008 12.0227 28.2798 12.0227V12.0201Z" fill="white"/>
</svg>
