<svg width="52" height="52" viewBox="0 0 52 52" fill="none" xmlns="http://www.w3.org/2000/svg">
<rect width="52" height="52" rx="26" fill="#2B6FF6"/>
<path d="M26.0003 27.1667L33.0003 37.6667H19.0003L26.0003 27.1667ZM26.0003 31.3667L23.3637 35.3333H28.637L26.0003 31.3667ZM24.7628 24.3207C24.0795 23.6373 24.0795 22.5293 24.7628 21.8459C25.4463 21.1625 26.5544 21.1625 27.2378 21.8459C27.9211 22.5293 27.9211 23.6373 27.2378 24.3207C26.5544 25.0041 25.4463 25.0041 24.7628 24.3207ZM18.1632 15.2462L19.8131 16.8961C16.3961 20.3132 16.3961 25.8535 19.8131 29.2705L18.1632 30.9204C13.8349 26.5921 13.8349 19.5745 18.1632 15.2462ZM33.8374 15.2462C38.1657 19.5745 38.1657 26.5921 33.8374 30.9204L32.1875 29.2705C35.6046 25.8535 35.6046 20.3132 32.1875 16.8961L33.8374 15.2462ZM21.4631 18.5461L23.113 20.196C21.5183 21.7906 21.5183 24.376 23.113 25.9707L21.4631 27.6206C18.9572 25.1147 18.9572 21.0519 21.4631 18.5461ZM30.5376 18.5461C33.0435 21.0519 33.0435 25.1147 30.5376 27.6206L28.8877 25.9707C30.4823 24.376 30.4823 21.7906 28.8877 20.196L30.5376 18.5461Z" fill="white"/>
</svg>
