<svg width="42" height="42" viewBox="0 0 42 42" fill="none" xmlns="http://www.w3.org/2000/svg">
<rect width="42" height="42" rx="21" fill="#2B6FF6"/>
<g clip-path="url(#clip0_1758_4984)">
<path d="M20.2503 18.9616L26.7673 14.848C26.8128 14.8141 26.8766 14.8209 26.9154 14.8615L27.5443 15.5253C27.583 15.5659 27.5853 15.6314 27.5488 15.6743L22.611 21.3594C21.9092 22.1067 21.1595 22.2534 20.5557 22.0593C20.2549 21.9622 19.9928 21.7838 19.7923 21.5513C19.5918 21.321 19.4528 21.0388 19.3958 20.7362C19.2842 20.1334 19.5075 19.4583 20.2458 18.9639L20.2503 18.9616ZM11.4046 30.9706C10.7096 30.3227 10.083 29.6047 9.53385 28.8303C8.98926 28.0627 8.52214 27.2363 8.1416 26.3671C7.77018 25.5136 7.48307 24.615 7.28711 23.6803C7.10026 22.7727 7 21.8335 7 20.8717C7 18.9932 7.37826 17.2028 8.05957 15.5682C8.77051 13.8704 9.80957 12.3419 11.1016 11.064C12.3913 9.78608 13.9339 8.75428 15.6475 8.05212C17.2972 7.37479 19.1042 7 21 7C22.8913 7 24.6937 7.37479 26.3389 8.05212C28.0524 8.75654 29.5928 9.79059 30.8848 11.0707C32.179 12.3532 33.2227 13.8839 33.9336 15.5795C34.6195 17.2141 35 19.0023 35 20.8717C35 21.7861 34.9089 22.6801 34.7357 23.5471C34.5579 24.4367 34.2913 25.2969 33.9473 26.121C33.5964 26.9586 33.1657 27.7579 32.6621 28.5029C32.154 29.257 31.5729 29.9592 30.9303 30.6026C30.887 30.6455 30.8141 30.6455 30.7708 30.6026L30.0713 29.9118C30.0576 29.9072 30.0439 29.8982 30.0326 29.8869L28.082 27.9543C28.0387 27.9114 28.0387 27.8391 28.082 27.7962L29.1051 26.7825C29.1484 26.7396 29.2214 26.7396 29.2646 26.7825L30.7708 28.2749C31.0898 27.864 31.3838 27.435 31.6481 26.988C31.9329 26.5093 32.1836 26.0081 32.4001 25.4911C32.6917 24.7912 32.9219 24.0574 33.0768 23.2988C33.2227 22.5944 33.3047 21.8651 33.3206 21.1223H31.2448C31.1833 21.1223 31.1309 21.0726 31.1309 21.0094V19.5757C31.1309 19.5148 31.181 19.4628 31.2448 19.4628H33.2409C33.0859 18.142 32.7145 16.8822 32.1654 15.7195C31.598 14.5206 30.8392 13.4278 29.9277 12.4751L28.5924 13.7981C28.5492 13.841 28.4762 13.841 28.4329 13.7981L27.4098 12.7844C27.3665 12.7415 27.3665 12.6692 27.4098 12.6263L28.6973 11.3507C27.6855 10.5447 26.5439 9.89219 25.3089 9.43161C24.1126 8.98683 22.8298 8.72041 21.4922 8.66849V10.4815C21.4922 10.5424 21.4421 10.5944 21.3783 10.5944H19.929C19.8675 10.5944 19.8151 10.5447 19.8151 10.4815V8.71364C18.4867 8.83782 17.2174 9.17422 16.0462 9.68222C14.8363 10.2083 13.7288 10.9217 12.7604 11.7819L14.098 13.1072C14.1413 13.1501 14.1413 13.2224 14.098 13.2653L13.0749 14.279C13.0316 14.3219 12.9587 14.3219 12.9154 14.279L11.5938 12.9695C10.7438 13.9629 10.0488 15.0941 9.55208 16.3246C9.07357 17.5212 8.77507 18.8058 8.69531 20.1469H10.7529C10.8145 20.1469 10.8669 20.1966 10.8669 20.2598V21.6958C10.8669 21.7567 10.8167 21.8087 10.7529 21.8087H8.70898C8.75911 22.4724 8.86393 23.1182 9.0166 23.7458C9.18066 24.4254 9.40397 25.0824 9.67969 25.7146C9.91895 26.2632 10.1969 26.7893 10.5091 27.2905C10.8031 27.7624 11.1289 28.2139 11.4844 28.6384L13.1341 27.0038C13.1774 26.9609 13.2503 26.9609 13.2936 27.0038L14.3167 28.0175C14.36 28.0604 14.36 28.1326 14.3167 28.1755C13.3734 29.1103 12.4733 30.0066 11.5618 30.9661C11.5208 31.0113 11.4502 31.0135 11.4046 30.9706Z" fill="white"/>
</g>
<defs>
<clipPath id="clip0_1758_4984">
<rect width="28" height="24" fill="white" transform="translate(7 7)"/>
</clipPath>
</defs>
</svg>
