<svg width="52" height="52" viewBox="0 0 52 52" fill="none" xmlns="http://www.w3.org/2000/svg">
<rect width="52" height="52" rx="26" fill="#2B6FF6"/>
<path d="M28.0827 25.6832C28.9915 25.0376 29.5867 23.9784 29.5867 22.7824C29.5867 20.8208 27.9915 19.2256 26.0315 19.2256C24.0707 19.2256 22.4755 20.8208 22.4755 22.7824C22.4755 23.9784 23.0715 25.0384 23.9803 25.684L19.9739 37.2296C19.8683 37.532 20.0283 37.8624 20.3315 37.9688C20.3931 37.9888 20.4579 38 20.5203 38C20.7603 38 20.9851 37.8496 21.0675 37.6096L21.8835 35.2632H30.1795L30.9931 37.6096C31.0755 37.8504 31.3011 38 31.5419 38C31.6043 38 31.6675 37.9888 31.7315 37.9688C32.0339 37.8624 32.1939 37.532 32.0883 37.2296L28.0827 25.6832ZM26.0307 20.3928C27.3475 20.3928 28.4195 21.4648 28.4195 22.7824C28.4195 24.0992 27.3475 25.1712 26.0307 25.1712C24.7131 25.1712 23.6419 24.0992 23.6419 22.7824C23.6419 21.4648 24.7131 20.3928 26.0307 20.3928ZM26.0307 26.3384C26.3787 26.3384 26.7139 26.2872 27.0323 26.1936L28.3147 29.8912H23.7475L25.0307 26.1936C25.3483 26.2872 25.6835 26.3384 26.0307 26.3384ZM22.2851 34.1032L23.3443 31.052H28.7163L29.7763 34.1032H22.2851Z" fill="white"/>
<path d="M21.2964 27.2936C21.41 27.4072 21.558 27.4632 21.7052 27.4632C21.8548 27.4632 22.0036 27.4072 22.1172 27.2936C22.3428 27.0672 22.3428 26.6992 22.1172 26.4736C21.13 25.4888 20.5868 24.1776 20.5868 22.7832C20.5868 21.3888 21.1292 20.0784 22.1156 19.0928C22.3412 18.8664 22.3412 18.4992 22.1156 18.272C21.8876 18.0464 21.5212 18.0464 21.2956 18.272C20.09 19.4768 19.4268 21.0784 19.4268 22.7832C19.426 24.4864 20.09 26.0888 21.2964 27.2936Z" fill="white"/>
<path d="M20.0646 28.5234C18.5294 26.9906 17.6854 24.9514 17.6854 22.7826C17.6854 20.6146 18.5294 18.5754 20.0638 17.0402C20.2902 16.8138 20.2902 16.4466 20.0638 16.2202C19.8366 15.9938 19.4694 15.9946 19.2438 16.221C17.491 17.9738 16.5254 20.3042 16.5254 22.7826C16.5254 25.261 17.4918 27.5914 19.2454 29.3442C19.359 29.4578 19.5062 29.5138 19.655 29.5138C19.8038 29.5138 19.9526 29.4578 20.0654 29.3442C20.291 29.117 20.291 28.7506 20.0646 28.5234Z" fill="white"/>
<path d="M14.7858 22.7836C14.7858 19.8412 15.9314 17.074 18.013 14.9908C18.2394 14.7644 18.2394 14.3972 18.013 14.1708C17.7866 13.9444 17.4186 13.9444 17.193 14.1708C14.8922 16.4724 13.625 19.5308 13.625 22.7836C13.625 26.0356 14.8922 29.0948 17.193 31.3964C17.3066 31.5092 17.4546 31.5652 17.6034 31.5652C17.7522 31.5652 17.901 31.5092 18.0138 31.3964C18.2402 31.1692 18.2402 30.8012 18.0138 30.5756C15.9322 28.4924 14.7858 25.7252 14.7858 22.7836Z" fill="white"/>
<path d="M31.4145 22.7834C31.4145 24.177 30.8713 25.4874 29.8857 26.473C29.6601 26.6986 29.6601 27.0658 29.8857 27.2922C29.9993 27.4058 30.1481 27.4626 30.2969 27.4626C30.4449 27.4626 30.5929 27.4058 30.7065 27.2922C31.9121 26.0874 32.5761 24.4858 32.5761 22.7826C32.5761 21.0778 31.9113 19.4754 30.7057 18.2706C30.4793 18.0442 30.1129 18.045 29.8849 18.2706C29.6593 18.497 29.6593 18.8642 29.8857 19.0906C30.8713 20.077 31.4145 21.3882 31.4145 22.7834Z" fill="white"/>
<path d="M32.7563 16.2202C32.5283 15.9938 32.1611 15.9946 31.9355 16.221C31.7083 16.4474 31.7083 16.8146 31.9355 17.0402C33.4691 18.5738 34.3139 20.613 34.3139 22.7826C34.3139 24.9498 33.4699 26.989 31.9371 28.525C31.7099 28.7506 31.7099 29.117 31.9371 29.3442C32.0507 29.4578 32.1995 29.5138 32.3475 29.5138C32.4963 29.5138 32.6451 29.4578 32.7579 29.3442C34.5099 27.5906 35.4755 25.2602 35.4755 22.7826C35.4755 20.3034 34.5091 17.973 32.7563 16.2202Z" fill="white"/>
<path d="M34.8057 14.1697C34.5801 13.9441 34.2129 13.9441 33.9857 14.1697C33.7593 14.3961 33.7593 14.7641 33.9857 14.9897C36.0681 17.0721 37.2153 19.8401 37.2153 22.7825C37.2153 25.7241 36.0681 28.4913 33.9873 30.5745C33.7609 30.8009 33.7609 31.1673 33.9873 31.3945C34.1001 31.5073 34.2489 31.5633 34.3977 31.5633C34.5457 31.5633 34.6945 31.5073 34.8081 31.3945C37.1089 29.0913 38.3753 26.0337 38.3753 22.7817C38.3745 19.5297 37.1073 16.4713 34.8057 14.1697Z" fill="white"/>
</svg>
