<svg width="115" height="115" viewBox="0 0 115 115" fill="none" xmlns="http://www.w3.org/2000/svg">
<rect width="115" height="115" rx="57.5" fill="#2B6FF6"/>
<g clip-path="url(#clip0_1776_5430)">
<path d="M48.45 20.8767V23.9567H66.5083V20.8767H73.3832V30.4174L73.2299 30.512L66.5083 30.4589V29.1322C66.5083 29.0226 66.576 28.8582 66.6118 28.7487C66.4665 28.7271 66.359 28.7686 66.2316 28.8151C65.1385 29.2119 63.4422 30.1052 62.375 30.6465C62.164 30.7528 61.1326 31.2675 61.0888 31.3721L61.0649 40.8513C60.9674 41.371 60.3721 41.4374 59.8385 41.4125L62.2038 53.3541C63.4462 59.6287 64.7921 66.282 66.0683 72.711C67.5297 80.0749 68.9473 87.4437 70.4067 94.806H68.6626L65.5845 79.2331L58.401 81.0711L58.2995 98.9985H56.5554L56.4538 81.0711L49.2743 79.2364L46.1923 94.806H44.4482L55.0183 41.5404C55.0322 41.3577 55.0143 41.4324 54.865 41.4142C54.3374 41.3478 53.9352 41.4308 53.7919 40.8513L53.77 31.2857L48.45 28.6623V30.4157L48.2967 30.5435H41.7305L41.5771 30.4157V21.0062L41.7305 20.8784H48.45V20.8767ZM48.45 24.5562V27.9782C50.0448 28.6623 51.5819 29.441 53.1408 30.1799C53.2981 30.2546 53.4972 30.4805 53.7839 30.4589L53.8795 29.896L53.6903 29.8246C53.8834 29.3647 53.6147 28.9462 54.2597 28.6739C54.7336 28.473 56.9695 28.6607 57.069 28.5776C57.0909 28.1957 57.0372 27.8039 57.069 27.422C57.1188 26.796 57.1128 26.8425 57.069 26.2249C57.0372 25.7865 57.1566 25.1622 57.069 24.7703C57.0471 24.6724 57.0332 24.5977 56.8998 24.5678L48.45 24.5562ZM66.5083 24.5562L57.955 24.5678C57.8216 24.596 57.8077 24.6724 57.7858 24.7703C57.6962 25.1755 57.7957 25.9376 57.7898 26.3992C57.7858 26.728 57.7818 26.9189 57.7898 27.251C57.8017 27.6926 57.7738 28.1393 57.7858 28.5793C57.8933 28.669 60.175 28.4282 60.7125 28.7487C61.3158 29.1073 60.9455 30.0089 61.0709 30.5469C61.2581 30.3343 61.6941 30.3775 61.7678 30.3509C61.7817 30.346 61.8275 30.2164 61.9728 30.1467C63.486 29.4278 64.9593 28.6474 66.5063 27.9799V24.5578L66.5083 24.5562ZM56.5554 48.0873V42.9534L55.524 47.7884L55.534 47.913L56.5554 48.0873ZM58.3014 42.9534V48.0873L59.3268 47.9146L59.3328 47.7884L58.3014 42.9534ZM56.5554 48.8577L55.3249 48.6004L53.989 55.5309C54.8769 55.6471 55.6654 56.0788 56.5554 56.1303V48.8577ZM58.3014 48.8577V56.1303C59.1994 56.019 60.0197 55.7218 60.8738 55.4827L59.5339 48.6004L58.3034 48.8561L58.3014 48.8577ZM56.5454 56.909C55.7032 56.7513 54.9028 56.4524 54.0666 56.2781C53.9631 56.2565 53.9511 56.1668 53.8337 56.298L52.4639 63.0973L56.402 64.1749L56.5573 64.0471L56.5454 56.9074V56.909ZM62.2974 63.2302L60.9674 56.2166C60.0874 56.4175 59.1954 56.7861 58.2995 56.8559V64.1749L62.2974 63.2302ZM56.5554 64.9453L52.5793 63.9325L52.2926 63.9989L51.0065 70.7219L56.5554 72.3026V64.9437V64.9453ZM58.3014 64.9453V72.3042L63.8523 70.7219L62.5044 63.9209L58.3014 64.9453ZM56.5554 80.3472V73.1162L50.8114 71.5322L49.4674 78.2501L49.5232 78.466L56.5554 80.3439V80.3472ZM58.3014 72.9883V80.3472L65.2082 78.5357L65.3834 78.3381L64.0455 71.5338L58.2995 72.9883H58.3014Z" fill="white"/>
<path d="M33.8304 16L35.0031 17.056C33.0181 18.7596 31.5985 20.9115 31.041 23.2559C30.0794 27.304 31.5288 31.445 35.0031 34.364L33.8304 35.42C27.3796 30.2396 27.4015 21.1904 33.8304 16Z" fill="white"/>
<path d="M80.1144 17.1441C80.0825 17.1142 80.0029 17.1125 79.9531 17.1125V16.9448L81.2831 16.0017C81.5638 16.4533 82.1213 16.8286 82.5135 17.2453C87.6304 22.6632 87.047 30.5601 81.2194 35.4184L79.977 34.4421C80.9845 33.4425 81.9441 32.4828 82.6589 31.3073C85.7011 26.3012 84.3233 21.2569 80.1164 17.1441H80.1144Z" fill="white"/>
<path d="M76.7319 19.7708C80.7597 22.7263 80.696 28.6223 76.8056 31.6492L75.5453 30.7476C75.5194 30.6281 76.1027 30.213 76.2381 30.0602C78.8204 27.1612 78.5596 23.3257 75.5453 20.7371L76.7319 19.7708Z" fill="white"/>
<path d="M38.2422 19.6812L39.4129 20.7355C36.1955 23.5283 36.1875 27.9051 39.4129 30.6863L38.2422 31.7423C34.2542 28.5062 34.2901 22.9189 38.2422 19.6812Z" fill="white"/>
</g>
<defs>
<clipPath id="clip0_1776_5430">
<rect width="57" height="83" fill="white" transform="translate(29 16)"/>
</clipPath>
</defs>
</svg>
