<svg width="42" height="42" viewBox="0 0 42 42" fill="none" xmlns="http://www.w3.org/2000/svg">
<circle cx="21" cy="21" r="21" fill="#2B6FF6"/>
<path d="M24.75 21C24.75 23.0711 23.0711 24.75 21 24.75C18.9289 24.75 17.25 23.0711 17.25 21C17.25 18.9289 18.9289 17.25 21 17.25C23.0711 17.25 24.75 18.9289 24.75 21Z" stroke="white" stroke-width="2.5" stroke-linecap="round" stroke-linejoin="round"/>
<path d="M22.1308 9.82506C21.8735 9.75 21.5824 9.75 21 9.75C20.4176 9.75 20.1265 9.75 19.8692 9.82506C19.4927 9.93493 19.1601 10.1601 18.9183 10.4689C18.753 10.6798 18.6449 10.9502 18.4286 11.4909C18.1177 12.2682 17.2549 12.6684 16.4607 12.4038L15.7472 12.166C15.2411 11.9973 14.9881 11.913 14.74 11.8985C14.3755 11.8773 14.0128 11.9629 13.6963 12.1449C13.4808 12.2688 13.2922 12.4574 12.915 12.8346C12.514 13.2356 12.3135 13.436 12.1862 13.6649C11.9991 14.001 11.9199 14.3867 11.9595 14.7694C11.9864 15.0299 12.0917 15.2931 12.3023 15.8196C12.6321 16.644 12.3148 17.586 11.5534 18.0429L11.2065 18.2511C10.6754 18.5697 10.4098 18.7291 10.2169 18.9485C10.0462 19.1426 9.91751 19.37 9.83886 19.6162C9.75 19.8945 9.75 20.2072 9.75 20.8329C9.75 21.5736 9.75 21.9439 9.86827 22.261C9.97279 22.5411 10.1428 22.7921 10.3641 22.9932C10.6145 23.2207 10.9549 23.357 11.6358 23.6294C12.3317 23.9076 12.69 24.6801 12.453 25.3911L12.184 26.198C11.9977 26.7567 11.9046 27.0362 11.8961 27.3107C11.8859 27.6409 11.9631 27.9677 12.1198 28.2584C12.2502 28.5002 12.4585 28.7085 12.875 29.125C13.2915 29.5415 13.4998 29.7497 13.7416 29.8801C14.0323 30.0369 14.3592 30.1141 14.6892 30.1039C14.9638 30.0954 15.2432 30.0022 15.802 29.816L16.4608 29.5964C17.2549 29.3317 18.1178 29.7319 18.4286 30.5091C18.6449 31.0497 18.753 31.3201 18.9183 31.5311C19.1601 31.8399 19.4927 32.0651 19.8692 32.175C20.1265 32.25 20.4176 32.25 21 32.25C21.5824 32.25 21.8735 32.25 22.1308 32.175C22.5073 32.0651 22.8399 31.8399 23.0817 31.5311C23.247 31.3201 23.3551 31.0497 23.5714 30.5091C23.8823 29.7319 24.7451 29.3318 25.5391 29.5966L26.1974 29.8161C26.7562 30.0024 27.0358 30.0955 27.3103 30.104C27.6404 30.1141 27.9672 30.037 28.2579 29.8803C28.4996 29.7499 28.708 29.5416 29.1245 29.1251C29.541 28.7086 29.7493 28.5003 29.8796 28.2585C30.0364 27.9679 30.1135 27.6409 30.1034 27.3109C30.0949 27.0364 30.0018 26.7569 29.8155 26.198L29.5468 25.3918C29.3096 24.6805 29.668 23.9078 30.3641 23.6294C31.045 23.357 31.3855 23.2207 31.636 22.9932C31.8573 22.7921 32.0272 22.5411 32.1317 22.261C32.25 21.9439 32.25 21.5736 32.25 20.8329C32.25 20.2072 32.25 19.8945 32.1611 19.6162C32.0825 19.37 31.9537 19.1426 31.7831 18.9485C31.5901 18.7291 31.3246 18.5697 30.7935 18.2511L30.4461 18.0427C29.6848 17.5858 29.3674 16.6439 29.6972 15.8195C29.9077 15.293 30.0131 15.0298 30.04 14.7693C30.0795 14.3866 30.0004 14.001 29.8133 13.6648C29.6859 13.4359 29.4855 13.2355 29.0845 12.8345C28.7072 12.4573 28.5186 12.2687 28.3032 12.1448C27.9867 11.9628 27.624 11.8772 27.2595 11.8984C27.0114 11.9129 26.7584 11.9972 26.2522 12.1659L25.5393 12.4036C24.7451 12.6683 23.8823 12.2681 23.5714 11.4909C23.3551 10.9502 23.247 10.6798 23.0817 10.4689C22.8399 10.1601 22.5073 9.93493 22.1308 9.82506Z" stroke="white" stroke-width="2.5" stroke-linecap="round" stroke-linejoin="round"/>
</svg>
