<svg width="52" height="52" viewBox="0 0 52 52" fill="none" xmlns="http://www.w3.org/2000/svg">
<rect width="52" height="52" rx="26" fill="#2B6FF6"/>
<path d="M26.0003 27.1665L33.0003 37.6665H19.0003L26.0003 27.1665ZM26.0003 31.3665L23.3637 35.3332H28.637L26.0003 31.3665ZM24.7628 24.3206C24.0795 23.6372 24.0795 22.5292 24.7628 21.8458C25.4463 21.1623 26.5544 21.1623 27.2378 21.8458C27.9211 22.5292 27.9211 23.6372 27.2378 24.3206C26.5544 25.004 25.4463 25.004 24.7628 24.3206ZM18.1632 15.2461L19.8131 16.896C16.3961 20.3131 16.3961 25.8533 19.8131 29.2704L18.1632 30.9203C13.8349 26.592 13.8349 19.5744 18.1632 15.2461ZM33.8374 15.2461C38.1657 19.5744 38.1657 26.592 33.8374 30.9203L32.1875 29.2704C35.6046 25.8533 35.6046 20.3131 32.1875 16.896L33.8374 15.2461ZM21.4631 18.5459L23.113 20.1958C21.5183 21.7905 21.5183 24.3759 23.113 25.9706L21.4631 27.6205C18.9572 25.1146 18.9572 21.0518 21.4631 18.5459ZM30.5376 18.5459C33.0435 21.0518 33.0435 25.1146 30.5376 27.6205L28.8877 25.9706C30.4823 24.3759 30.4823 21.7905 28.8877 20.1958L30.5376 18.5459Z" fill="white"/>
</svg>
