<svg width="62" height="62" viewBox="0 0 62 62" fill="none" xmlns="http://www.w3.org/2000/svg">
<rect width="62" height="62" rx="31" fill="#2B6FF6"/>
<path d="M21.75 24.833H27.9167" stroke="white" stroke-width="3" stroke-linecap="round" stroke-linejoin="round"/>
<path d="M45.618 26.375H41.6058C38.855 26.375 36.625 28.4456 36.625 31C36.625 33.5544 38.855 35.625 41.6058 35.625H45.618C45.7466 35.625 45.8107 35.625 45.865 35.6218C46.6964 35.571 47.3585 34.9562 47.4131 34.1842C47.4167 34.1337 47.4167 34.0741 47.4167 33.9549V28.0451C47.4167 27.9259 47.4167 27.8662 47.4131 27.8158C47.3585 27.0438 46.6964 26.4289 45.865 26.3783C45.8107 26.375 45.7466 26.375 45.618 26.375Z" stroke="white" stroke-width="3"/>
<path d="M44.8217 26.3753C44.7019 23.4889 44.3154 21.7191 43.0694 20.4732C41.2634 18.667 38.3563 18.667 32.5423 18.667H27.9173C22.1033 18.667 19.1963 18.667 17.3902 20.4732C15.584 22.2793 15.584 25.1863 15.584 31.0003C15.584 36.8143 15.584 39.7214 17.3902 41.5274C19.1963 43.3337 22.1033 43.3337 27.9173 43.3337H32.5423C38.3563 43.3337 41.2634 43.3337 43.0694 41.5274C44.3154 40.2816 44.7019 38.5118 44.8217 35.6253" stroke="white" stroke-width="3"/>
<path d="M42.2363 31H42.2502" stroke="white" stroke-width="3.08" stroke-linecap="round" stroke-linejoin="round"/>
</svg>
