<svg width="62" height="62" viewBox="0 0 62 62" fill="none" xmlns="http://www.w3.org/2000/svg">
<rect width="62" height="62" rx="31" fill="#2B6FF6"/>
<path d="M31.6519 15.112C31.2413 14.9067 30.7581 14.9067 30.3475 15.112L15.7642 22.4036C15.2701 22.6507 14.958 23.1556 14.958 23.708C14.958 24.2604 15.2701 24.7654 15.7642 25.0124L30.3475 32.304C30.7581 32.5093 31.2413 32.5093 31.6519 32.304L46.2353 25.0124C46.7292 24.7654 47.0413 24.2604 47.0413 23.708C47.0413 23.1556 46.7292 22.6507 46.2353 22.4036L31.6519 15.112Z" fill="white"/>
<path d="M15.1123 37.6395C15.4725 36.9191 16.3485 36.6271 17.0688 36.9872L31 43.9528L44.9311 36.9872C45.6515 36.6271 46.5276 36.9191 46.8876 37.6395C47.2478 38.3598 46.9559 39.2358 46.2355 39.596L31.6521 46.8877C31.2416 47.093 30.7583 47.093 30.3478 46.8877L15.7645 39.596C15.0441 39.2358 14.7521 38.3598 15.1123 37.6395Z" fill="white"/>
<path d="M17.0688 29.6952C16.3485 29.3352 15.4725 29.6271 15.1123 30.3475C14.7521 31.0678 15.0441 31.9438 15.7645 32.304L30.3478 39.5957C30.7583 39.801 31.2416 39.801 31.6521 39.5957L46.2355 32.304C46.9559 31.9438 47.2478 31.0678 46.8876 30.3475C46.5276 29.6271 45.6515 29.3352 44.9311 29.6952L31 36.6608L17.0688 29.6952Z" fill="white"/>
</svg>
