<svg width="115" height="115" viewBox="0 0 115 115" fill="none" xmlns="http://www.w3.org/2000/svg">
<rect width="115" height="115" rx="57.5" fill="#2B6FF6"/>
<g clip-path="url(#clip0_1776_5198)">
<path d="M19.5 52.3103L48.6245 28.9532H48.9994L57.4202 35.6564C58.6387 33.2776 60.217 31.2041 62.2335 29.3817L74.2795 40.8363L75.6931 39.5619C73.7805 35.6479 79.1144 32.1093 82.2443 35.1688C85.3565 38.2101 81.6287 43.1319 77.5716 41.3517L76.234 42.6998L88.2521 54.1822C84.0823 58.5355 77.9997 60.8032 71.7943 60.0357V84.5357H77.6185V92.5012H20.0067L20.0003 84.952L20.1967 84.5357H25.8308V56.777L19.5 61.7241V52.3103ZM22.1587 53.5776V56.2931L48.8132 34.9346L56.0307 40.7229L56.4867 38.3682L48.8107 32.1781L22.1587 53.5776ZM62.2475 33.1255C56.5297 39.6005 57.7065 49.3727 64.7162 54.5298C70.4631 58.7576 78.8003 58.6815 84.3204 54.1629L62.2475 33.1243V33.1255ZM80.7066 37.8698C80.7066 37.1541 80.0986 36.5748 79.3475 36.5748C78.5963 36.5748 77.9883 37.1553 77.9883 37.8698C77.9883 38.5843 78.5963 39.1648 79.3475 39.1648C80.0986 39.1648 80.7066 38.5843 80.7066 37.8698ZM69.1356 59.431C61.9181 57.5495 56.569 51.2145 56.0281 44.1046L48.8132 38.3055L28.4908 54.4827V84.5345H69.1356V59.431ZM22.6654 87.0689V89.9655H74.9597V87.0689H22.6654Z" fill="white"/>
<path d="M80.9108 22.5C81.8696 22.7052 82.8424 22.8198 83.7924 23.0721C89.1276 24.4841 93.5166 28.7119 94.9289 33.8195C95.162 34.6643 95.2596 35.5333 95.4711 36.3805C95.4078 37.3605 95.5572 38.4298 95.4711 39.3978C95.2254 42.1591 93.7332 45.3948 91.9219 47.5407C91.6495 47.8641 90.9732 48.8272 90.5919 48.5774C90.0396 48.2153 89.4569 47.3536 88.8882 46.9409C93.8231 42.3305 94.1487 34.5641 89.6495 29.5579C84.5347 23.8686 75.3754 23.4353 69.8299 28.7747L68.0034 27.0102C69.6666 25.2457 72.1809 23.8469 74.5787 23.165C75.4425 22.92 76.8739 22.5736 77.7441 22.5012H80.9095L80.9108 22.5Z" fill="white"/>
<path d="M79.1157 26.3935C89.8444 26.1654 95.3911 38.6736 87.9216 45.9041L85.9786 44.1626C89.377 40.9885 89.6126 35.6214 86.5473 32.1528C83.0044 28.1435 76.6483 27.8635 72.7444 31.5493L70.9128 29.7933C70.8761 29.6412 72.2783 28.5924 72.5152 28.4355C74.3924 27.1924 76.8218 26.4417 79.1157 26.3935Z" fill="white"/>
<path d="M78.353 30.2591C86.0088 29.4638 90.3762 38.0895 85.0271 43.2562L83.2006 41.4917C83.9796 40.5938 84.566 39.6669 84.6952 38.4757C85.2272 33.5552 79.2904 31.0183 75.5474 34.1972L73.6968 32.4557C74.8456 31.3115 76.6975 30.4305 78.353 30.2579V30.2591Z" fill="white"/>
<path d="M58.2462 56.8966V72.3449H63.0582V74.8794H34.5684V72.3449H39.3804V56.8966H58.2474H58.2462ZM55.5874 59.3104H42.0392V72.3449H55.5874V59.3104Z" fill="white"/>
</g>
<defs>
<clipPath id="clip0_1776_5198">
<rect width="76" height="70" fill="white" transform="translate(19.5 22.5)"/>
</clipPath>
</defs>
</svg>
