<svg width="42" height="42" viewBox="0 0 42 42" fill="none" xmlns="http://www.w3.org/2000/svg">
<rect width="42" height="42" rx="21" fill="#2B6FF6"/>
<g clip-path="url(#clip0_1758_5006)">
<path fill-rule="evenodd" clip-rule="evenodd" d="M6.62012 27.7776H9.69385C9.4668 27.7198 9.2959 27.5124 9.2959 27.2713V12.5232C9.2959 12.2363 9.53516 12 9.82568 12H32.0352C32.3281 12 32.5649 12.2363 32.5649 12.5232V27.2689C32.5649 27.5124 32.3965 27.7173 32.167 27.7752H35.3799C35.7217 27.7752 36 28.0501 36 28.3876C36 28.7251 35.7217 29 35.3799 29H6.62012C6.27832 29 6 28.7251 6 28.3876C6 28.0525 6.27832 27.7776 6.62012 27.7776ZM17.8848 24.084C17.4819 24.3853 17.0303 24.624 16.3687 24.3757C15.939 24.2142 15.585 23.8429 15.3896 23.3727C17.1035 24.1394 17.7163 21.9382 15.6875 21.8731C16.3076 21.1377 17.2207 21.1425 17.958 21.6826C18.3071 21.9382 18.5024 22.0659 18.7026 22.1214C18.8125 22.1527 18.9224 22.16 19.0615 22.16C19.5327 22.1624 22.0034 22.1093 22.5039 22.0973C23.4463 22.078 23.9224 20.6483 25.2603 21.1522C25.6899 21.3137 26.0439 21.685 26.2393 22.1552C24.5254 21.3885 23.9126 23.5897 25.9414 23.6548C25.3213 24.3902 24.4082 24.3853 23.6709 23.8453C23.3486 23.6066 23.1436 23.3293 22.5063 23.3462C22.0645 23.3655 19.5986 23.3944 19.1543 23.4233C18.9785 23.433 18.8613 23.4499 18.749 23.4933C18.5488 23.568 18.3657 23.7247 17.8896 24.0815L17.8848 24.084ZM24.2593 17.2391C24.2349 17.215 24.2153 17.2005 24.1909 17.1909C24.1714 17.1813 24.147 17.1764 24.1177 17.1764C24.0884 17.1764 24.064 17.1813 24.0444 17.1909C24.0249 17.2005 24.0005 17.215 23.981 17.2343L23.9761 17.2391L23.4243 17.784C23.3169 17.8901 23.146 17.9046 23.0239 17.8178C22.9604 17.7792 22.897 17.7406 22.8237 17.702C22.7456 17.6635 22.6724 17.6249 22.604 17.5911C22.5308 17.5574 22.4526 17.5236 22.3745 17.4947C22.3062 17.4706 22.228 17.4416 22.1353 17.4127C22.0034 17.3693 21.9204 17.2488 21.9204 17.1186V16.2819C21.9204 16.253 21.9155 16.2241 21.9058 16.2048C21.896 16.1855 21.8813 16.1614 21.8618 16.1469C21.8423 16.1276 21.8228 16.1132 21.8032 16.1035C21.7837 16.0939 21.7544 16.0891 21.7251 16.0891H20.6582C20.6289 16.0891 20.6045 16.0939 20.585 16.0987C20.5654 16.1084 20.541 16.1228 20.5166 16.1469C20.4971 16.1662 20.4824 16.1855 20.4775 16.2048C20.4678 16.2241 20.4629 16.253 20.4629 16.2819V17.0511C20.4629 17.2054 20.3506 17.3307 20.2041 17.3597C20.1211 17.379 20.043 17.3982 19.9746 17.4175C19.8965 17.4416 19.8232 17.4657 19.7451 17.4947C19.6719 17.5236 19.5938 17.5525 19.5205 17.5911C19.4424 17.6249 19.374 17.6635 19.3057 17.6972C19.1787 17.7647 19.0322 17.7406 18.9346 17.6442L18.3242 17.0462C18.3193 17.0414 18.3193 17.0414 18.3193 17.0366C18.2998 17.0173 18.2803 17.0028 18.2607 16.9932C18.2412 16.9835 18.2217 16.9835 18.1924 16.9835C18.1631 16.9835 18.1387 16.9884 18.1191 16.998C18.0947 17.0077 18.0752 17.0221 18.0508 17.0462L17.3086 17.7864C17.2842 17.8105 17.2695 17.8298 17.2598 17.8539C17.25 17.8732 17.2451 17.8973 17.2451 17.9263C17.2451 17.9552 17.25 17.9793 17.2598 17.9986C17.2695 18.0179 17.2842 18.042 17.3037 18.0613V18.0661L17.8555 18.611C17.9629 18.7171 17.9775 18.8858 17.8896 19.0064C17.8506 19.0691 17.8115 19.1318 17.7725 19.2041C17.7334 19.2812 17.6943 19.3536 17.6602 19.4211C17.626 19.4934 17.5918 19.5706 17.5625 19.6477C17.5381 19.7152 17.5088 19.7924 17.4795 19.884C17.4355 20.0142 17.3135 20.0962 17.1816 20.0962H16.3271C16.2979 20.0962 16.2686 20.101 16.249 20.1106C16.2295 20.1203 16.21 20.1347 16.1904 20.1492C16.1709 20.1685 16.1562 20.1878 16.1514 20.2071C16.1416 20.2264 16.1367 20.2553 16.1367 20.2842V20.3686C15.9219 20.4337 15.7144 20.5277 15.5166 20.6555V20.2746C15.5166 20.1637 15.5361 20.0624 15.5752 19.9611C15.6143 19.8647 15.6777 19.7779 15.7559 19.6959C15.834 19.6188 15.9268 19.5561 16.0244 19.5175C16.1221 19.4789 16.2295 19.4597 16.3418 19.4597H16.9668C16.9717 19.4452 16.9814 19.4259 16.9863 19.4114C17.0205 19.3246 17.0596 19.2378 17.0986 19.151C17.1426 19.0594 17.1816 18.9726 17.2256 18.8955L17.2402 18.8665L16.8643 18.4904C16.7861 18.4133 16.7227 18.3265 16.6836 18.2252C16.6396 18.124 16.6201 18.0179 16.6201 17.9118C16.6201 17.8009 16.6396 17.6996 16.6836 17.5984C16.7275 17.4971 16.7861 17.4103 16.8643 17.3331L17.6064 16.593V16.5881C17.6846 16.511 17.7725 16.4531 17.8701 16.4097C17.9727 16.3663 18.0752 16.347 18.1875 16.347C18.2998 16.347 18.4072 16.3712 18.5049 16.4097C18.6025 16.4531 18.6904 16.511 18.7637 16.593L19.208 17.0269C19.2227 17.0221 19.2373 17.0125 19.2471 17.0077C19.3301 16.9691 19.418 16.9353 19.5107 16.8968C19.5986 16.863 19.6914 16.8341 19.7842 16.8051C19.7988 16.8003 19.8086 16.7955 19.8232 16.7955V16.2675C19.8232 16.1566 19.8428 16.0505 19.8867 15.954C19.9258 15.8576 19.9893 15.7708 20.0674 15.6937L20.0723 15.6888C20.1504 15.6117 20.2383 15.5538 20.3359 15.5152C20.4336 15.4767 20.541 15.4526 20.6484 15.4526H21.7153C21.8276 15.4526 21.9302 15.4718 22.0327 15.5104C22.1353 15.549 22.2231 15.6117 22.3013 15.6888C22.3794 15.766 22.4429 15.8576 22.4819 15.954C22.521 16.0505 22.5405 16.1566 22.5405 16.2675V16.8847C22.5552 16.8895 22.5747 16.8992 22.5894 16.904C22.6772 16.9377 22.7651 16.9763 22.853 17.0149C22.9458 17.0583 23.0337 17.0969 23.1118 17.1403L23.1411 17.1547L23.522 16.7834C23.6001 16.7063 23.688 16.6436 23.7905 16.605C23.8931 16.5616 24.0005 16.5423 24.1079 16.5423C24.2202 16.5423 24.3228 16.5616 24.4253 16.605V16.6147C24.5278 16.6581 24.6157 16.7159 24.6938 16.7931L25.4434 17.526H25.4482C25.5264 17.6032 25.585 17.69 25.6289 17.7864C25.6729 17.8877 25.6924 17.9889 25.6924 18.0998C25.6924 18.2108 25.668 18.3168 25.6289 18.4133C25.585 18.5097 25.5264 18.5965 25.4434 18.6688L25.0039 19.1076C25.0088 19.1221 25.0186 19.1366 25.0234 19.151C25.0625 19.233 25.0967 19.3198 25.1309 19.4018C25.1309 19.4066 25.1357 19.4114 25.1357 19.4163C25.1699 19.4982 25.1992 19.5898 25.2285 19.6863L25.2383 19.72H25.7754C25.8877 19.72 25.9951 19.7393 26.0928 19.7827C26.1904 19.8213 26.2783 19.884 26.3564 19.9611L26.3613 19.966C26.4395 20.0431 26.498 20.1299 26.5371 20.2264C26.5762 20.3228 26.6006 20.4289 26.6006 20.535V20.6917H26.459C26.2344 20.4892 25.978 20.3228 25.6997 20.2095C25.6777 20.1998 25.6558 20.1902 25.6338 20.183C25.2676 20.0455 24.9453 19.9877 24.6572 19.9852C24.6475 19.9491 24.6377 19.9105 24.6279 19.8743C24.6035 19.802 24.5791 19.7249 24.5449 19.6429C24.5449 19.6381 24.54 19.6332 24.54 19.6284C24.5107 19.5513 24.4814 19.4838 24.4521 19.4163C24.418 19.3439 24.3838 19.2716 24.3447 19.2041C24.2764 19.0787 24.3008 18.9341 24.3984 18.8376L25.0039 18.2349C25.0039 18.23 25.0088 18.23 25.0137 18.23C25.0332 18.2108 25.0479 18.1915 25.0576 18.1722C25.0674 18.1529 25.0674 18.1336 25.0674 18.1047C25.0674 18.0757 25.0625 18.0516 25.0527 18.0323C25.043 18.0082 25.0283 17.9889 25.0039 17.9648L24.2544 17.2295L24.2593 17.2391ZM21.0562 18.5724C21.2173 18.5724 21.3784 18.5869 21.5347 18.6206C21.686 18.6496 21.8374 18.6978 21.9888 18.7605C22.1304 18.8231 22.2671 18.8955 22.394 18.9774C22.521 19.0594 22.6382 19.1559 22.7456 19.2619C22.853 19.368 22.9507 19.4838 23.0337 19.614C23.1216 19.7393 23.1948 19.8743 23.2534 20.0142C23.2583 20.0238 23.2583 20.0335 23.2632 20.0383C23.3145 20.1588 23.3535 20.2842 23.3828 20.4048C23.2437 20.4964 23.1094 20.5976 22.9775 20.6989H22.8066C22.8018 20.6627 22.7944 20.6266 22.7871 20.5904C22.7627 20.4795 22.7334 20.3782 22.6943 20.2818C22.6895 20.277 22.6895 20.2722 22.6846 20.2625C22.6357 20.1516 22.582 20.0503 22.5186 19.9587C22.4551 19.8671 22.3867 19.7803 22.3086 19.7032C22.2305 19.626 22.1426 19.5537 22.0498 19.4958C21.957 19.4331 21.8545 19.3801 21.7422 19.3319C21.6396 19.2885 21.5273 19.2547 21.4102 19.2306C21.2979 19.2065 21.1758 19.1969 21.0537 19.1969C20.9316 19.1969 20.8145 19.2065 20.6973 19.2306C20.585 19.2547 20.4824 19.2836 20.3848 19.3222C20.3799 19.327 20.375 19.327 20.3652 19.3319C20.2529 19.3801 20.1504 19.4331 20.0576 19.4958C19.9648 19.5585 19.877 19.626 19.7988 19.7032C19.7207 19.7803 19.6475 19.8671 19.5889 19.9587C19.5254 20.0503 19.4717 20.1516 19.4229 20.2625C19.3789 20.3638 19.3447 20.4747 19.3203 20.5904C19.313 20.6266 19.3057 20.6627 19.3008 20.6989H18.6709C18.6782 20.6193 18.6904 20.5422 18.7075 20.465C18.7368 20.3156 18.7856 20.1661 18.8491 20.0166C18.9126 19.8768 18.9858 19.7417 19.0688 19.6164C19.1519 19.491 19.2495 19.3753 19.3569 19.2644C19.4644 19.1583 19.5815 19.0618 19.7085 18.9799C19.8354 18.8931 19.9722 18.8207 20.1138 18.7629C20.1235 18.758 20.1333 18.758 20.1382 18.7532C20.2798 18.6954 20.4263 18.652 20.5679 18.623C20.7241 18.5941 20.8853 18.5748 21.0464 18.5748H21.0562V18.5724ZM10.2017 12.8197H31.7324V27.1218H10.2017V12.8197ZM20.1284 28.0067H21.8716C22.0352 28.0067 22.1694 28.1393 22.1694 28.3008C22.1694 28.4623 22.0352 28.595 21.8716 28.595H20.1284C19.9648 28.595 19.8306 28.4623 19.8306 28.3008C19.8306 28.1369 19.9648 28.0067 20.1284 28.0067Z" fill="white"/>
</g>
<defs>
<clipPath id="clip0_1758_5006">
<rect width="30" height="17" fill="white" transform="translate(6 12)"/>
</clipPath>
</defs>
</svg>
