<svg width="42" height="42" viewBox="0 0 42 42" fill="none" xmlns="http://www.w3.org/2000/svg">
<rect width="42" height="42" rx="21" fill="#2B6FF6"/>
<path fill-rule="evenodd" clip-rule="evenodd" d="M20.4569 7.5C25.1184 10.4037 29.3296 11.7774 32.9437 11.4527C33.575 23.9986 28.8603 31.4078 20.5052 34.5C12.4368 31.6058 7.66446 24.5154 8.0184 11.2624C12.2611 11.4806 16.4235 10.5792 20.4569 7.5ZM17.2696 19.6955H17.5911V18.9636C17.5911 18.153 17.9162 17.4143 18.4401 16.8775C18.968 16.3365 19.6972 16.0006 20.5003 16.0006C21.3035 16.0006 22.0328 16.3365 22.5605 16.8775C23.0844 17.4143 23.4095 18.153 23.4095 18.9636V19.6955H23.731C23.9919 19.6955 24.2057 19.9053 24.2057 20.162V25.0913C24.2057 25.3479 23.9919 25.5578 23.731 25.5578H17.2696C17.0084 25.5578 16.7949 25.3479 16.7949 25.0913V20.162C16.7947 19.9053 17.0084 19.6955 17.2696 19.6955ZM18.49 19.6955H22.5104V18.9636C22.5104 18.3872 22.2821 17.8652 21.9143 17.4881C21.5505 17.1152 21.0499 16.8839 20.5001 16.8839C19.9505 16.8839 19.4496 17.1155 19.0861 17.4881C18.718 17.8652 18.49 18.3875 18.49 18.9636V19.6955ZM20.1106 22.9426L19.5983 24.261H21.4018L20.9274 22.9246C21.2286 22.7723 21.4345 22.4638 21.4345 22.1081C21.4345 21.601 21.0161 21.1898 20.5001 21.1898C19.984 21.1898 19.5659 21.601 19.5659 22.1081C19.5659 22.4783 19.7891 22.7974 20.1106 22.9426ZM20.4618 9.05017C24.588 11.6203 28.3158 12.8365 31.515 12.5489C32.0735 23.6541 27.9004 30.2127 20.505 32.9496C13.363 30.3878 9.13816 24.112 9.45164 12.3803C13.2073 12.5737 16.8917 11.7759 20.4618 9.05017Z" fill="white"/>
</svg>
