<svg width="62" height="62" viewBox="0 0 62 62" fill="none" xmlns="http://www.w3.org/2000/svg">
<rect width="62" height="62" rx="31" fill="#2B6FF6"/>
<path d="M41.6663 44.333H38.9997V41.6663C38.9997 39.4571 37.2089 37.6663 34.9997 37.6663H26.9997C24.7905 37.6663 22.9997 39.4571 22.9997 41.6663V44.333H20.333V41.6663C20.333 37.9845 23.3178 34.9997 26.9997 34.9997H34.9997C38.6815 34.9997 41.6663 37.9845 41.6663 41.6663V44.333ZM30.9997 32.333C26.5814 32.333 22.9997 28.7513 22.9997 24.333C22.9997 19.9147 26.5814 16.333 30.9997 16.333C35.4179 16.333 38.9997 19.9147 38.9997 24.333C38.9997 28.7513 35.4179 32.333 30.9997 32.333ZM30.9997 29.6663C33.9451 29.6663 36.333 27.2785 36.333 24.333C36.333 21.3875 33.9451 18.9997 30.9997 18.9997C28.0542 18.9997 25.6663 21.3875 25.6663 24.333C25.6663 27.2785 28.0542 29.6663 30.9997 29.6663Z" fill="white"/>
</svg>
