<svg width="62" height="62" viewBox="0 0 62 62" fill="none" xmlns="http://www.w3.org/2000/svg">
<rect width="62" height="62" rx="31" fill="#2B6FF6"/>
<path d="M24.8327 37.45V36.3955C24.8327 35.0882 25.622 33.9365 26.8168 33.2397C25.7885 32.805 24.845 32.2114 24.0079 31.4961C22.6142 32.751 21.7493 34.4838 21.7493 36.3955V37.45C19.9595 38.0898 18.666 39.7841 18.666 41.7913C18.666 44.3413 20.7411 46.4163 23.291 46.4163C25.8409 46.4163 27.916 44.3413 27.916 41.7913C27.916 39.7841 26.6226 38.0898 24.8327 37.45ZM23.291 43.333C22.44 43.333 21.7493 42.6408 21.7493 41.7913C21.7493 40.9419 22.44 40.2497 23.291 40.2497C24.142 40.2497 24.8327 40.9419 24.8327 41.7913C24.8327 42.6408 24.142 43.333 23.291 43.333ZM37.166 24.5478V25.0889C37.166 26.6075 36.3412 27.9441 35.0925 28.7273C36.1177 29.1497 37.0643 29.7232 37.9029 30.4231C39.3459 29.0695 40.2493 27.1825 40.2493 25.0905V24.5493C42.0392 23.9095 43.3327 22.2153 43.3327 20.208C43.3327 17.6581 41.2576 15.583 38.7077 15.583C36.1578 15.583 34.0827 17.6581 34.0827 20.208C34.0827 22.2153 35.3761 23.9095 37.166 24.5478ZM38.7077 18.6663C39.5587 18.6663 40.2493 19.3585 40.2493 20.208C40.2493 21.0575 39.5587 21.7497 38.7077 21.7497C37.8567 21.7497 37.166 21.0575 37.166 20.208C37.166 19.3585 37.8567 18.6663 38.7077 18.6663ZM40.1491 37.4192C39.5171 32.9283 35.6613 29.458 30.9993 29.458C28.0147 29.458 25.5233 27.329 24.956 24.5108C26.6827 23.8386 27.916 22.169 27.916 20.208C27.916 17.6581 25.8409 15.583 23.291 15.583C20.7411 15.583 18.666 17.6581 18.666 20.208C18.666 22.2523 20.0073 23.9697 21.8496 24.5802C22.4816 29.071 26.3373 32.5413 30.9993 32.5413C33.984 32.5413 36.4753 34.6704 37.0427 37.4885C35.316 38.1607 34.0827 39.8303 34.0827 41.7913C34.0827 44.3413 36.1578 46.4163 38.7077 46.4163C41.2576 46.4163 43.3327 44.3413 43.3327 41.7913C43.3327 39.7471 41.9914 38.0297 40.1491 37.4192ZM23.291 18.6663C24.142 18.6663 24.8327 19.3585 24.8327 20.208C24.8327 21.0575 24.142 21.7497 23.291 21.7497C22.44 21.7497 21.7493 21.0575 21.7493 20.208C21.7493 19.3585 22.44 18.6663 23.291 18.6663ZM38.7077 43.333C37.8567 43.333 37.166 42.6408 37.166 41.7913C37.166 40.9419 37.8567 40.2497 38.7077 40.2497C39.5587 40.2497 40.2493 40.9419 40.2493 41.7913C40.2493 42.6408 39.5587 43.333 38.7077 43.333Z" fill="white"/>
</svg>
