<svg width="62" height="62" viewBox="0 0 62 62" fill="none" xmlns="http://www.w3.org/2000/svg">
<rect width="62" height="62" rx="31" fill="#2B6FF6"/>
<path d="M42.6667 33.9167V38C42.6667 39.6335 42.6667 40.4503 42.3487 41.0742C42.0692 41.6229 41.6229 42.0692 41.0742 42.3487C40.4503 42.6667 39.6335 42.6667 38 42.6667H33.9167M28.0833 19.3333H24C22.3665 19.3333 21.5498 19.3333 20.9259 19.6512C20.377 19.9309 19.9309 20.377 19.6512 20.9259C19.3333 21.5498 19.3333 22.3665 19.3333 24V28.0833M35.375 26.625L44.125 17.875M44.125 17.875H35.375M44.125 17.875V26.625M26.625 35.375L17.875 44.125M17.875 44.125H26.625M17.875 44.125V35.375" stroke="white" stroke-width="2.91667" stroke-linecap="round" stroke-linejoin="round"/>
</svg>
