<svg width="52" height="52" viewBox="0 0 52 52" fill="none" xmlns="http://www.w3.org/2000/svg">
<rect width="52" height="52" rx="26" fill="#2B6FF6"/>
<path d="M27.3414 18C27.1203 18.6256 27 19.2987 27 20H19V34H33V26C33.7013 26 34.3744 25.8797 35 25.6586V35C35 35.5523 34.5523 36 34 36H18C17.4477 36 17 35.5523 17 35V19C17 18.4477 17.4477 18 18 18H27.3414ZM33 22C34.1046 22 35 21.1046 35 20C35 18.8954 34.1046 18 33 18C31.8954 18 31 18.8954 31 20C31 21.1046 31.8954 22 33 22ZM33 24C30.7909 24 29 22.2091 29 20C29 17.7909 30.7909 16 33 16C35.2091 16 37 17.7909 37 20C37 22.2091 35.2091 24 33 24Z" fill="white"/>
</svg>
