<svg width="115" height="115" viewBox="0 0 115 115" fill="none" xmlns="http://www.w3.org/2000/svg">
<rect width="115" height="115" rx="57.5" fill="#2B6FF6"/>
<g clip-path="url(#clip0_1776_5471)">
<path d="M59.3828 57.683C60.6536 58.8887 60.1283 61.0042 58.682 61.8267L64.6553 81.6448C64.5934 81.833 64.4627 81.9053 64.2734 81.9202C63.5669 81.9741 60.7259 78.8835 59.8347 78.4808C58.5042 78.7309 51.5731 82.1404 50.8138 81.8949C50.6291 81.8353 50.558 81.6873 50.5454 81.5072L56.544 61.8267C53.0618 59.834 56.622 55.0628 59.3816 57.683H59.3828ZM58.5959 60.5935C60.243 59.0654 57.4616 56.8329 56.3582 58.7522C55.4773 60.2849 57.4731 61.6351 58.5959 60.5935ZM59.4355 67.7762L57.6141 62.0722C56.9845 63.6657 56.4202 65.3464 56.13 67.0351L57.6485 68.398L59.4355 67.7773V67.7762ZM55.1539 69.6863L56.5784 68.9739C55.4234 67.6064 55.6092 68.5574 55.1539 69.6863ZM59.7532 68.7364L58.6476 69.2916C58.8873 69.4809 60.2189 70.7842 60.3898 70.6385L59.7532 68.7353V68.7364ZM57.3366 69.8767C57.0854 69.8997 54.9968 70.8794 54.8408 71.0411C54.6664 71.2213 54.3384 72.1482 54.4348 72.3811L59.9218 77.0663C60.4632 77.3095 61.4416 76.6464 61.9829 76.4285L62.0724 76.1864C61.523 75.2067 61.445 73.5042 60.8669 72.6232C60.7064 72.3799 58.3276 70.3058 58.0018 70.0936C57.761 69.9375 57.6474 69.8492 57.3366 69.8767ZM58.9618 77.7799L54.1228 73.4996L51.822 80.4781L58.9618 77.7799ZM62.4509 77.4633L61.0252 78.0185C61.5689 78.4223 62.0999 79.0544 62.6103 79.4491C62.7697 79.573 62.8122 79.7565 63.0863 79.6854L62.4509 77.4644V77.4633Z" fill="white"/>
<path d="M61.992 63.9595C61.368 63.5235 62.3338 62.8226 62.5207 62.5369C63.9223 60.3894 63.8019 58.4139 62.4255 56.3053C62.1858 55.9382 61.6456 55.7202 61.8899 55.2487C62.4989 54.0751 63.8982 56.5909 64.115 57.1542C64.8341 59.0184 64.6564 61.1109 63.5656 62.7893C63.327 63.1576 62.4978 64.314 61.9908 63.9595H61.992Z" fill="white"/>
<path d="M52.345 63.7667C52.2704 63.7047 51.7715 63.0473 51.6889 62.9177C50.6486 61.2829 50.402 59.2191 51.0225 57.3836C51.2221 56.7927 52.6948 54.0119 53.3359 55.2486C53.5756 55.7109 52.9907 56.0046 52.7372 56.4015C51.6132 58.1637 51.3219 59.7893 52.2188 61.7544C52.5376 62.4519 53.1708 62.842 53.3841 63.5579C53.1696 64.0179 52.7326 64.0913 52.3438 63.7689L52.345 63.7667Z" fill="white"/>
<path d="M60.2512 56.3775C60.4393 56.0781 61.0082 56.3052 61.2502 56.5301C62.6438 57.8241 62.6793 60.9365 61.3408 62.3063C60.8752 62.7824 60.1514 62.9659 60.2294 62.1606C60.2902 61.5365 61.4074 60.7598 61.3477 59.3017C61.3053 58.2635 59.9702 56.826 60.2512 56.3775Z" fill="white"/>
<path d="M54.4681 56.2226C54.7996 56.195 55.0175 56.5897 54.9751 56.8765C54.8822 57.5051 53.835 58.1166 53.8717 59.6103C53.8969 60.6302 55.1093 62.0561 54.9831 62.4473C54.6883 63.3582 53.7329 62.1227 53.5012 61.7395C52.8211 60.6129 52.7144 59.1457 53.1285 57.9009C53.2753 57.4581 54.0059 56.2604 54.4681 56.2226Z" fill="white"/>
<path d="M67.2121 89.6846H67.0562V90.0001H67.2121V89.6846Z" fill="white"/>
<path d="M55.7559 25.0504C70.5265 24.159 83.0467 35.2492 83.9998 49.9645V87.6034C84.0033 87.9476 83.7039 88.1529 83.4275 88.2917L31.4942 88.2562L31.0297 87.803L31.001 49.8497C31.8302 36.6602 42.5291 25.8489 55.7559 25.0504ZM77.5711 86.6214H82.1016L82.2794 86.2256C82.1142 73.5386 82.5891 60.8102 82.0282 48.1484C80.5245 37.2499 71.6895 28.39 60.752 26.9823C46.1546 25.1043 33.3144 36.1761 32.7203 50.7664V86.2256L32.8969 86.6214H37.4274L37.4228 50.7664C37.7853 42.3011 43.5705 34.7467 51.6773 32.3283C64.4005 28.5322 77.0297 37.7547 77.5768 50.8811L77.5723 86.6214H77.5711ZM75.7348 83.7534L75.7406 50.1928C73.4501 27.8554 41.6884 27.7567 39.258 50.078L39.2637 83.7534L47.1525 69.1034C47.4301 64.6075 46.8658 59.8167 47.172 55.3564C47.6939 47.7538 56.1367 43.2842 62.7374 47.1389C70.4989 51.6704 67.0431 61.7498 67.8483 69.1011L75.7348 83.7534ZM66.1015 68.3807C66.0315 63.8572 66.2506 59.3108 65.973 54.8C64.0071 44.537 49.5313 45.3217 48.8925 56.0436L48.897 68.3807H66.1015ZM40.0081 86.6214H74.9904L75.1063 86.3942L66.277 70.2071L48.5518 70.2713L39.8922 86.3931L40.0081 86.6202V86.6214Z" fill="white"/>
</g>
<defs>
<clipPath id="clip0_1776_5471">
<rect width="53" height="65" fill="white" transform="translate(31 25)"/>
</clipPath>
</defs>
</svg>
