<svg width="52" height="52" viewBox="0 0 52 52" fill="none" xmlns="http://www.w3.org/2000/svg">
<rect width="52" height="52" rx="26" fill="#2B6FF6"/>
<path d="M34.0833 29.1999L35.2854 29.9212C35.5221 30.0633 35.5989 30.3704 35.4569 30.6072C35.4146 30.6776 35.3557 30.7365 35.2854 30.7787L26.5144 36.0412C26.1977 36.2313 25.8021 36.2313 25.4854 36.0412L16.7145 30.7787C16.4777 30.6366 16.4009 30.3295 16.543 30.0927C16.5852 30.0223 16.6441 29.9634 16.7145 29.9212L17.9166 29.1999L25.9999 34.0499L34.0833 29.1999ZM34.0833 24.4999L35.2854 25.2212C35.5221 25.3633 35.5989 25.6704 35.4569 25.9072C35.4146 25.9776 35.3557 26.0365 35.2854 26.0787L25.9999 31.6499L16.7145 26.0787C16.4777 25.9366 16.4009 25.6295 16.543 25.3927C16.5852 25.3223 16.6441 25.2634 16.7145 25.2212L17.9166 24.4999L25.9999 29.3499L34.0833 24.4999ZM26.5144 15.3086L35.2854 20.5712C35.5221 20.7133 35.5989 21.0204 35.4569 21.2572C35.4146 21.3276 35.3557 21.3865 35.2854 21.4287L25.9999 26.9999L16.7145 21.4287C16.4777 21.2866 16.4009 20.9795 16.543 20.7427C16.5852 20.6723 16.6441 20.6134 16.7145 20.5712L25.4854 15.3086C25.8021 15.1186 26.1977 15.1186 26.5144 15.3086ZM25.9999 17.3323L19.8872 20.9999L25.9999 24.6676L32.1126 20.9999L25.9999 17.3323Z" fill="white"/>
</svg>
