<svg width="52" height="52" viewBox="0 0 52 52" fill="none" xmlns="http://www.w3.org/2000/svg">
<rect width="52" height="52" rx="26" fill="#2B6FF6"/>
<path d="M15.1665 36.8333C15.1665 32.0468 19.0467 28.1666 23.8332 28.1666C28.6197 28.1666 32.4998 32.0468 32.4998 36.8333H30.3332C30.3332 33.2434 27.423 30.3333 23.8332 30.3333C20.2433 30.3333 17.3332 33.2434 17.3332 36.8333H15.1665ZM23.8332 27.0833C20.2419 27.0833 17.3332 24.1745 17.3332 20.5833C17.3332 16.992 20.2419 14.0833 23.8332 14.0833C27.4244 14.0833 30.3332 16.992 30.3332 20.5833C30.3332 24.1745 27.4244 27.0833 23.8332 27.0833ZM23.8332 24.9166C26.2273 24.9166 28.1665 22.9774 28.1665 20.5833C28.1665 18.1891 26.2273 16.2499 23.8332 16.2499C21.439 16.2499 19.4998 18.1891 19.4998 20.5833C19.4998 22.9774 21.439 24.9166 23.8332 24.9166ZM32.8072 28.928C35.8196 30.2857 37.9165 33.3146 37.9165 36.8333H35.7498C35.7498 34.1943 34.1772 31.9226 31.9179 30.9043L32.8072 28.928ZM32.0624 16.6976C34.2271 17.59 35.7498 19.7205 35.7498 22.2083C35.7498 25.3176 33.3711 27.8689 30.3332 28.1423V25.9616C32.1713 25.699 33.5832 24.1193 33.5832 22.2083C33.5832 20.7125 32.7182 19.4198 31.4609 18.8026L32.0624 16.6976Z" fill="white"/>
</svg>
