<svg width="52" height="52" viewBox="0 0 52 52" fill="none" xmlns="http://www.w3.org/2000/svg">
<rect width="52" height="52" rx="26" fill="#2B6FF6"/>
<path d="M36.0049 20.9998H37.0049V30.9998H36.0049V33.9998C36.0049 34.5521 35.5572 34.9998 35.0049 34.9998H17.0049C16.4526 34.9998 16.0049 34.5521 16.0049 33.9998V17.9998C16.0049 17.4475 16.4526 16.9998 17.0049 16.9998H35.0049C35.5572 16.9998 36.0049 17.4475 36.0049 17.9998V20.9998ZM34.0049 30.9998H28.0049C25.2435 30.9998 23.0049 28.7612 23.0049 25.9998C23.0049 23.2384 25.2435 20.9998 28.0049 20.9998H34.0049V18.9998H18.0049V32.9998H34.0049V30.9998ZM35.0049 28.9998V22.9998H28.0049C26.348 22.9998 25.0049 24.3429 25.0049 25.9998C25.0049 27.6566 26.348 28.9998 28.0049 28.9998H35.0049ZM28.0049 24.9998H31.0049V26.9998H28.0049V24.9998Z" fill="white"/>
</svg>
