<svg width="52" height="52" viewBox="0 0 52 52" fill="none" xmlns="http://www.w3.org/2000/svg">
<rect width="52" height="52" rx="26" fill="white"/>
<path d="M19.1353 35.4346L20.3189 33.406C18.098 31.6998 16.6663 29.0171 16.6663 26C16.6663 20.8453 20.845 16.6666 25.9997 16.6666C31.1544 16.6666 35.333 20.8453 35.333 26C35.333 29.0171 33.9014 31.6998 31.6804 33.406L32.864 35.4346C35.7747 33.3131 37.6663 29.8775 37.6663 26C37.6663 19.5567 32.4429 14.3333 25.9997 14.3333C19.5563 14.3333 14.333 19.5567 14.333 26C14.333 29.8775 16.2246 33.3131 19.1353 35.4346ZM21.5076 31.3687C19.9746 30.0847 18.9997 28.1562 18.9997 26C18.9997 22.134 22.1337 19 25.9997 19C29.8657 19 32.9997 22.134 32.9997 26C32.9997 28.1562 32.0248 30.0847 30.4917 31.3687L29.29 29.3092C30.1402 28.464 30.6663 27.2935 30.6663 26C30.6663 23.4227 28.577 21.3333 25.9997 21.3333C23.4223 21.3333 21.333 23.4227 21.333 26C21.333 27.2935 21.8592 28.464 22.7093 29.3092L21.5076 31.3687ZM24.833 27.1666H27.1663V37.6666H24.833V27.1666Z" fill="#2B6FF6"/>
</svg>
