<svg width="115" height="115" viewBox="0 0 115 115" fill="none" xmlns="http://www.w3.org/2000/svg">
<rect width="115" height="115" rx="57.5" fill="#2B6FF6"/>
<g clip-path="url(#clip0_1776_5304)">
<path d="M86.2067 28.4086C88.4464 30.7819 87.5209 34.9445 84.9708 36.5621L95.4983 75.5588C95.3893 75.9304 95.16 76.071 94.8244 76.0991C93.5774 76.2052 88.5723 70.1253 87.0008 69.329C84.6577 69.8224 72.4413 76.53 71.1019 76.0491C70.7776 75.9336 70.6518 75.64 70.6294 75.2872L81.2016 36.5621C75.0641 32.6399 81.3386 23.253 86.2039 28.4086H86.2067ZM84.8198 34.1357C87.7222 31.1285 82.8206 26.7348 80.8773 30.5134C79.3254 33.5299 82.843 36.1874 84.8198 34.1357ZM86.299 48.2692L83.089 37.043C81.9789 40.1782 80.9835 43.4852 80.4718 46.8078L83.1477 49.4902L86.299 48.2692ZM78.7522 52.029L81.2631 50.6269C79.2275 47.9351 79.5547 49.8056 78.7522 52.029ZM86.8582 50.1585L84.9093 51.2515C85.3315 51.6231 87.6775 54.1868 87.9795 53.9027L86.8582 50.1585ZM82.5997 52.4006C82.1551 52.4443 78.4754 54.3742 78.2014 54.6927C77.8938 55.0487 77.315 56.8693 77.4855 57.3314L87.1574 66.5529C88.1109 67.0306 89.8361 65.7253 90.7896 65.2975L90.949 64.8197C89.9787 62.893 89.8445 59.5423 88.8239 57.8061C88.5415 57.3252 84.3473 53.2438 83.7741 52.8284C83.3491 52.5224 83.1477 52.3475 82.5997 52.4037V52.4006ZM85.4629 67.955L76.9347 59.533L72.8803 73.2636L85.4629 67.955ZM91.6117 67.3304L89.1007 68.4234C90.0598 69.2166 90.9965 70.4594 91.8941 71.237C92.1737 71.4805 92.2492 71.8428 92.7329 71.7023L91.6117 67.3304Z" fill="white"/>
<path d="M90.8038 40.759C89.7049 39.9002 91.4077 38.5231 91.7349 37.9579C94.2039 33.7328 93.9942 29.845 91.5671 25.6949C91.1449 24.9735 90.1914 24.5426 90.6248 23.6151C91.6985 21.3043 94.1647 26.2538 94.5478 27.3655C95.8145 31.0348 95.5013 35.1505 93.5804 38.4544C93.1581 39.1789 91.6985 41.4553 90.8066 40.759H90.8038Z" fill="white"/>
<path d="M73.8032 40.378C73.6717 40.2562 72.7937 38.9634 72.6483 38.7074C70.8141 35.4909 70.3807 31.4314 71.474 27.8153C71.8263 26.6536 74.4211 21.1826 75.5507 23.6152C75.973 24.5239 74.9412 25.1047 74.4966 25.8823C72.5141 29.3516 72.0024 32.5462 73.5823 36.4153C74.1443 37.7862 75.2599 38.5543 75.6374 39.9627C75.2599 40.8683 74.4882 41.0151 73.8032 40.378Z" fill="white"/>
<path d="M87.7363 25.8385C88.0662 25.2483 89.07 25.698 89.4951 26.1383C91.9501 28.6834 92.0144 34.8102 89.6544 37.5051C88.8324 38.4419 87.5573 38.8041 87.6971 37.2178C87.8034 35.9906 89.7719 34.4635 89.6684 31.5937C89.5957 29.5515 87.2414 26.7223 87.7363 25.8417V25.8385Z" fill="white"/>
<path d="M77.5441 25.5355C78.1285 25.4825 78.5115 26.26 78.4388 26.8221C78.2739 28.0587 76.4312 29.261 76.4955 32.2026C76.5403 34.2074 78.6765 37.0147 78.4528 37.786C77.9327 39.5785 76.2495 37.1459 75.8412 36.3933C74.6417 34.1762 74.4543 31.2876 75.1841 28.8394C75.4442 27.9682 76.7304 25.6105 77.5469 25.5355H77.5441Z" fill="white"/>
<path d="M100 91.3787H99.7261V92.0001H100V91.3787Z" fill="white"/>
<path d="M22.7929 44.0223L16.4344 48.035L15.2181 47.6384L15 46.4268L25.8099 39.2726C26.2349 37.3365 25.3373 29.3298 26.1203 28.2213C26.3887 27.8403 26.7214 27.8247 27.1129 27.7685C28.0189 27.6342 34.615 27.6748 35.0959 27.9371C36.1193 28.4929 35.4818 31.6063 35.6551 32.7773C35.918 33.1083 41.7843 28.8021 42.6427 28.5429C43.1404 28.3899 43.4927 28.3274 43.9625 28.646L71.3144 46.2051C71.6443 50.8767 65.4341 44.5532 63.6166 44.0223V73.8445C63.6166 73.8975 63.186 74.3941 63.0518 74.4628H23.3549C23.2235 74.3941 22.7901 73.8975 22.7901 73.8445V44.0223H22.7929ZM33.4182 30.2823H28.1055V37.7768L33.2756 34.3387L33.4182 30.2823ZM61.3797 72.1269V42.6171L43.0649 31.0161L25.0298 42.6171V72.1269H36.2144V59.4799C36.2144 59.0833 37.0895 58.7398 37.4586 58.6836C39.7347 58.3401 46.3084 58.415 48.674 58.6804C49.0878 58.7273 50.1951 58.9209 50.1951 59.4799V72.1269H61.3797ZM47.9582 61.1974H38.4513V72.1269H47.9582V61.1974Z" fill="white"/>
</g>
<defs>
<clipPath id="clip0_1776_5304">
<rect width="85" height="69" fill="white" transform="translate(15 23)"/>
</clipPath>
</defs>
</svg>
