<svg width="42" height="42" viewBox="0 0 42 42" fill="none" xmlns="http://www.w3.org/2000/svg">
<rect width="42" height="42" rx="21" fill="#3E4D6E"/>
<path d="M26.805 30.3664C26.5953 30.2809 26.3608 30.2809 26.1511 30.3664C26.0461 30.4122 25.9512 30.4786 25.8721 30.5619C25.8282 30.6085 25.7888 30.6593 25.7544 30.7134C25.7352 30.7427 25.7184 30.7736 25.7043 30.8057H24.3203V29.5999C24.1112 29.6976 23.8919 29.7712 23.6664 29.8195L23.5509 29.8393V31.1901C23.5515 31.293 23.5923 31.3915 23.6646 31.4643C23.7368 31.5371 23.8346 31.5782 23.9367 31.5788H25.7108L25.7566 31.6557C25.7872 31.7022 25.8222 31.7456 25.8612 31.7853C25.941 31.8671 26.0368 31.9314 26.1424 31.9742C26.2458 32.0184 26.357 32.0412 26.4693 32.0412C26.5817 32.0412 26.6928 32.0184 26.7962 31.9742C26.9016 31.9309 26.9972 31.8666 27.0774 31.7853C27.1579 31.7043 27.2216 31.608 27.2648 31.5019C27.3077 31.3967 27.33 31.2841 27.3302 31.1703C27.3295 30.998 27.2785 30.8297 27.1835 30.6863C27.0886 30.543 26.9539 30.431 26.7962 30.3642L26.805 30.3664ZM16.7661 26.5338C16.5271 26.5309 16.2901 26.4894 16.0643 26.4108C15.5757 26.2344 15.1419 25.9314 14.8067 25.5322C14.4404 25.1138 14.2027 24.5973 14.1223 24.0453C14.0763 23.7152 14.0911 23.3794 14.1659 23.0547C13.9184 22.8408 13.7052 22.5897 13.5338 22.3101C13.2673 21.8879 13.1245 21.3983 13.1219 20.8979C13.1315 20.358 13.3109 19.835 13.6341 19.4043C13.8764 19.0803 14.1711 18.7996 14.5059 18.5741C14.5059 18.4577 14.5059 18.3545 14.5059 18.2315C14.5237 17.5431 14.7649 16.8797 15.1924 16.3426C15.5664 15.861 16.1048 15.5369 16.7029 15.4333H16.7682C16.7887 15.3195 16.8194 15.2077 16.8598 15.0994C17.0518 14.6001 17.408 14.1822 17.8689 13.9156C18.334 13.6364 18.8846 13.5387 19.4164 13.6411C19.7272 13.7125 20.0186 13.8519 20.2702 14.0492C20.5217 14.2465 20.7273 14.4971 20.8723 14.7832C20.9964 14.5276 21.1704 14.2998 21.3839 14.1135C21.5973 13.9272 21.8458 13.7862 22.1146 13.6988C22.3833 13.6115 22.6668 13.5797 22.948 13.6052C23.2293 13.6307 23.5025 13.7132 23.7514 13.8475C24.1802 14.0656 24.534 14.4084 24.7671 14.8315C24.8699 15.0173 24.9435 15.2181 24.9851 15.4267C25.2661 15.412 25.5474 15.4523 25.8133 15.5453C26.3129 15.7231 26.7556 16.0334 27.0948 16.4436C27.4653 16.8775 27.699 17.4128 27.7661 17.9811C27.7975 18.2851 27.7791 18.5923 27.7116 18.8904C27.9864 19.126 28.2206 19.4058 28.4047 19.7184L28.42 19.7514C28.6582 20.1659 28.7781 20.6387 28.7665 21.1175C28.75 21.6335 28.5765 22.1318 28.2696 22.5451C28.0209 22.8752 27.717 23.1591 27.3716 23.3842C27.4214 24.1017 27.2294 24.8152 26.8268 25.4092C26.6404 25.6954 26.3983 25.9403 26.115 26.1291C25.8317 26.3179 25.5133 26.4466 25.179 26.5074C25.0462 27.0703 24.7106 27.5634 24.2375 27.8911C23.9608 28.1011 23.6416 28.2472 23.3026 28.3189C22.9636 28.3906 22.6131 28.3863 22.2759 28.3062C21.9771 28.2185 21.7022 28.0633 21.4718 27.8525C21.2414 27.6416 21.0617 27.3807 20.9464 27.0894C20.8058 27.4037 20.5949 27.6809 20.3302 27.8993C20.0655 28.1176 19.7542 28.2712 19.4207 28.348C19.1013 28.4108 18.772 28.4029 18.4559 28.3248C18.1398 28.2466 17.8443 28.1002 17.5899 27.8955L17.5616 27.8713C17.1397 27.54 16.8535 27.064 16.7573 26.5338H16.7661ZM21.3605 15.642V25.8353C21.4096 25.8919 21.442 25.9611 21.4542 26.0352C21.6068 26.962 22.0122 27.4101 22.4742 27.5375C22.6973 27.586 22.9281 27.5848 23.1506 27.534C23.3731 27.4832 23.5819 27.3839 23.7623 27.2432C23.948 27.1233 24.1036 26.9618 24.217 26.7713C24.3304 26.5808 24.3986 26.3665 24.4162 26.145C24.4162 25.6618 24.0784 25.1193 23.1673 24.6515C23.119 24.6285 23.0758 24.596 23.0402 24.5559C23.0046 24.5158 22.9773 24.4689 22.96 24.418C22.9428 24.3671 22.9358 24.3132 22.9396 24.2595C22.9433 24.2058 22.9578 24.1535 22.982 24.1055C23.0062 24.0576 23.0398 24.015 23.0806 23.9804C23.1215 23.9457 23.1688 23.9197 23.2199 23.9038C23.2709 23.888 23.3246 23.8826 23.3777 23.888C23.4308 23.8935 23.4823 23.9096 23.5291 23.9354C24.523 24.4472 25.0134 25.0776 25.1616 25.6925C25.5754 25.5772 25.9323 25.3121 26.1642 24.948C26.4985 24.4504 26.6369 23.845 26.5521 23.2502V23.2216C26.5432 23.1445 26.5566 23.0663 26.5906 22.9966C26.6246 22.9269 26.6778 22.8685 26.7439 22.8285C27.0821 22.6356 27.3785 22.3765 27.6157 22.0663C27.8289 21.7852 27.9507 21.4446 27.9645 21.0911C27.9713 20.7597 27.8868 20.4327 27.7204 20.1467L27.7029 20.1203C27.5295 19.8241 27.299 19.5657 27.0251 19.3604C26.9526 19.3108 26.8982 19.2386 26.8703 19.1549C26.8423 19.0713 26.8424 18.9806 26.8704 18.897C26.9606 18.6287 26.9918 18.344 26.9619 18.0624C26.9103 17.6562 26.7413 17.2742 26.4759 16.9642C26.2304 16.6648 25.9098 16.4372 25.5474 16.3053C25.3618 16.2381 25.164 16.2126 24.9676 16.2306H24.9502C24.8611 16.5616 24.6986 16.868 24.475 17.1267C24.4071 17.208 24.31 17.2587 24.2049 17.2678C24.0999 17.2768 23.9955 17.2435 23.9149 17.175C23.8343 17.1066 23.7839 17.0086 23.7749 16.9028C23.7659 16.7969 23.799 16.6918 23.867 16.6105C24.0418 16.4269 24.1545 16.1923 24.189 15.9402C24.2234 15.6881 24.1778 15.4315 24.0588 15.2071C23.905 14.9283 23.671 14.7031 23.3875 14.5613C23.1123 14.4141 22.7957 14.3653 22.4895 14.423C22.0536 14.5152 21.6177 14.882 21.3561 15.6441L21.3605 15.642ZM20.5606 25.8507V16.1383L20.5497 16.123V16.1076V16.09V16.0724V16.0483C20.3056 15.0511 19.8218 14.5921 19.3183 14.4867C18.9793 14.4241 18.6292 14.4898 18.3353 14.6712C18.0382 14.8445 17.8079 15.1138 17.6815 15.4355C17.5245 15.8616 17.6139 16.3821 18.1348 16.8697C18.2024 16.9519 18.2349 17.0577 18.2251 17.164C18.2153 17.2702 18.164 17.3682 18.0825 17.4364C18.001 17.5045 17.896 17.5373 17.7905 17.5274C17.685 17.5175 17.5878 17.4658 17.5202 17.3837C17.1712 17.0767 16.919 16.6736 16.7944 16.224C16.4015 16.3026 16.0505 16.5228 15.8071 16.8434C15.4863 17.247 15.3057 17.7453 15.2927 18.2622C15.288 18.4164 15.296 18.5706 15.3167 18.7235C15.3277 18.8007 15.316 18.8795 15.2831 18.9502C15.2502 19.0208 15.1974 19.0802 15.1314 19.121C14.8008 19.3166 14.5107 19.5746 14.277 19.8809C14.055 20.1738 13.93 20.5295 13.9196 20.8979C13.9205 21.2495 14.0202 21.5938 14.2073 21.8906C14.3743 22.159 14.5902 22.393 14.8437 22.5803C14.9143 22.6305 14.9669 22.7022 14.994 22.7848C15.0211 22.8675 15.0211 22.9567 14.9941 23.0393C14.8948 23.3276 14.8642 23.6353 14.9047 23.9376C14.9668 24.3387 15.1424 24.7131 15.4104 25.0161C15.6542 25.3033 15.9682 25.5214 16.3214 25.6486C16.4765 25.705 16.6405 25.7325 16.8053 25.7299C16.9731 25.0951 17.4831 24.4538 18.4922 23.9333C18.5865 23.8846 18.696 23.8757 18.7968 23.9084C18.8975 23.9412 18.9812 24.0129 19.0295 24.1079C19.0778 24.2028 19.0866 24.3132 19.0541 24.4147C19.0216 24.5163 18.9504 24.6006 18.8562 24.6493C17.8972 25.1413 17.5354 25.7189 17.5354 26.2285C17.5441 26.4268 17.5961 26.6207 17.6877 26.7965C17.7792 26.9722 17.9081 27.1255 18.0651 27.2454L18.089 27.2608C18.2499 27.393 18.437 27.4891 18.6377 27.5425C18.8385 27.5959 19.0482 27.6054 19.2529 27.5704C19.7586 27.465 20.2424 27.0038 20.4865 26.0044C20.4991 25.9488 20.5245 25.8969 20.5606 25.8529V25.8507ZM16.9164 18.5829C16.9929 18.5141 17.0928 18.4777 17.1953 18.4811C17.2977 18.4845 17.3949 18.5276 17.4667 18.6014C17.5385 18.6751 17.5794 18.7739 17.5808 18.8772C17.5822 18.9805 17.5441 19.0804 17.4744 19.1561C17.0454 19.5788 16.7935 20.151 16.7704 20.7551C16.7487 21.3817 16.9531 21.9951 17.3458 22.4814C17.3786 22.523 17.4029 22.5706 17.4174 22.6216C17.4319 22.6726 17.4363 22.726 17.4304 22.7788C17.4244 22.8315 17.4082 22.8825 17.3826 22.9289C17.3571 22.9753 17.3227 23.0162 17.2815 23.0492C17.2403 23.0822 17.193 23.1068 17.1424 23.1214C17.0918 23.136 17.0388 23.1404 16.9865 23.1344C16.9342 23.1284 16.8836 23.112 16.8375 23.0863C16.7915 23.0606 16.7509 23.026 16.7181 22.9844C16.2044 22.3477 15.9379 21.5444 15.9684 20.7244C15.9996 19.9156 16.3364 19.1495 16.9099 18.5829H16.9164ZM23.9847 18.9211C23.9417 18.8901 23.9053 18.8509 23.8774 18.8057C23.8495 18.7605 23.8307 18.7102 23.8221 18.6577C23.8135 18.6052 23.8153 18.5515 23.8272 18.4996C23.8392 18.4478 23.8613 18.3988 23.892 18.3556C23.9228 18.3123 23.9617 18.2756 24.0066 18.2475C24.0514 18.2194 24.1013 18.2004 24.1535 18.1918C24.2056 18.1831 24.2589 18.1849 24.3103 18.1969C24.3617 18.209 24.4103 18.2312 24.4533 18.2622C24.5506 18.334 24.6421 18.4072 24.7279 18.4819C25.3297 19.0251 25.7012 19.7809 25.7653 20.5926C25.8272 21.3959 25.6005 22.1948 25.1267 22.8439C25.0553 22.9442 24.9782 23.0403 24.8957 23.1316C24.8606 23.1708 24.8183 23.2027 24.771 23.2254C24.7237 23.2481 24.6724 23.2612 24.6201 23.264C24.5678 23.2667 24.5154 23.2591 24.466 23.2415C24.4167 23.2238 24.3712 23.1966 24.3323 23.1612C24.2934 23.1259 24.2617 23.0832 24.2392 23.0355C24.2166 22.9879 24.2036 22.9362 24.2009 22.8835C24.1982 22.8308 24.2058 22.778 24.2233 22.7283C24.2408 22.6785 24.2678 22.6327 24.3029 22.5935C24.366 22.5233 24.4257 22.45 24.4816 22.3738C24.8416 21.8787 25.0147 21.2706 24.9698 20.6585C24.9212 20.052 24.6435 19.4875 24.1939 19.0815C24.1247 19.0207 24.0519 18.9642 23.9759 18.9123L23.9847 18.9211ZM18.4203 30.5268V29.8876C18.2497 29.8787 18.0803 29.8529 17.9147 29.8107C17.8231 29.7866 17.736 29.7602 17.6488 29.7295V30.138H16.5111C16.4958 30.1073 16.4784 30.0787 16.4609 30.0501C16.4275 29.9973 16.3888 29.948 16.3454 29.903C16.265 29.8219 16.1695 29.7577 16.0643 29.7141C15.9598 29.6709 15.848 29.6485 15.7351 29.6482C15.6225 29.6483 15.5109 29.6709 15.4069 29.7146C15.3029 29.7583 15.2086 29.8224 15.1292 29.903C15.0499 29.985 14.9864 30.081 14.9418 30.1863C14.8986 30.2922 14.8764 30.4057 14.8764 30.5202C14.8765 30.6349 14.8995 30.7484 14.944 30.854C14.9856 30.9567 15.0471 31.0501 15.1249 31.1286C15.203 31.2088 15.2964 31.2723 15.3995 31.3153C15.6092 31.4007 15.8437 31.4007 16.0534 31.3153C16.1555 31.2726 16.2487 31.2107 16.328 31.133C16.3703 31.09 16.4083 31.0429 16.4413 30.9924C16.4566 30.9682 16.474 30.9397 16.4871 30.9133H18.0127C18.1149 30.9127 18.2127 30.8716 18.2849 30.7988C18.3571 30.726 18.398 30.6275 18.3985 30.5246L18.4203 30.5268ZM20.2816 33.5731V29.1452C20.1896 29.2363 20.0912 29.3207 19.9874 29.3978C19.8398 29.5113 19.6796 29.6071 19.5101 29.6833V33.1975H16.9927L16.9535 33.1317C16.9236 33.0893 16.89 33.0496 16.8532 33.0131C16.7734 32.9312 16.6777 32.8669 16.5721 32.8242C16.4686 32.7802 16.3575 32.7575 16.2452 32.7575C16.1329 32.7575 16.0217 32.7802 15.9182 32.8242C15.8126 32.8669 15.7169 32.9312 15.6371 33.0131C15.5566 33.0941 15.4929 33.1904 15.4496 33.2964C15.4058 33.4013 15.3836 33.5142 15.3842 33.628C15.3836 33.7426 15.4058 33.8561 15.4496 33.9619C15.4932 34.0677 15.5568 34.164 15.6371 34.2452C15.7174 34.3263 15.813 34.3905 15.9182 34.4341C16.0227 34.4773 16.1344 34.4997 16.2473 34.5C16.3587 34.5005 16.4691 34.4789 16.5721 34.4363C16.6771 34.3924 16.7726 34.3282 16.8532 34.2474C16.902 34.1967 16.9451 34.1407 16.9818 34.0805C17.0026 34.0468 17.0208 34.0115 17.0363 33.9751H19.8959C19.998 33.9745 20.0958 33.9333 20.168 33.8606C20.2402 33.7878 20.2811 33.6892 20.2816 33.5863V33.5731ZM22.3849 32.8351V29.7602C22.1045 29.672 21.8439 29.5295 21.6177 29.3407V32.8395L21.5327 32.8879C21.4821 32.9223 21.4347 32.9613 21.391 33.0043C21.3105 33.0853 21.2468 33.1816 21.2036 33.2876C21.1607 33.3928 21.1385 33.5055 21.1382 33.6192C21.1379 33.7314 21.1594 33.8426 21.2014 33.9465C21.2905 34.1587 21.4588 34.3271 21.67 34.4154C21.8812 34.5037 22.1184 34.5049 22.3304 34.4187C22.4356 34.3751 22.5312 34.3109 22.6116 34.2298C22.7739 34.066 22.8656 33.8442 22.8666 33.6127C22.8658 33.5013 22.8444 33.391 22.8034 33.2876C22.7609 33.1811 22.6971 33.0847 22.6159 33.0043C22.5754 32.9617 22.53 32.9241 22.4808 32.8922C22.4546 32.8747 22.4263 32.8593 22.398 32.8439L22.3849 32.8351ZM11.9231 23.6807H12.6424C12.6194 23.8217 12.6048 23.964 12.5988 24.1068C12.5988 24.2254 12.5988 24.3418 12.5988 24.4582H12.3176V25.6047L12.4048 25.653C12.4568 25.6882 12.5057 25.7279 12.5509 25.7716C12.6708 25.8939 12.7525 26.049 12.7858 26.2177C12.8192 26.3864 12.8026 26.5612 12.7383 26.7204C12.6954 26.8231 12.6341 26.9169 12.5574 26.9972C12.4768 27.078 12.3813 27.1422 12.2762 27.1861C12.0665 27.2716 11.8321 27.2716 11.6224 27.1861C11.52 27.1428 11.4268 27.0801 11.3478 27.0016C11.269 26.9221 11.2061 26.8282 11.1625 26.7248C11.1187 26.6191 11.0965 26.5056 11.0971 26.391C11.098 26.1637 11.1863 25.9457 11.3434 25.7826C11.3854 25.7393 11.4322 25.701 11.4829 25.6684C11.5069 25.6508 11.5352 25.6354 11.5613 25.6201V24.0826C11.5618 23.9796 11.6025 23.881 11.6747 23.8081C11.7386 23.7355 11.8273 23.69 11.9231 23.6807ZM8.90886 21.805H11.5744C11.6593 22.0738 11.7764 22.3312 11.9231 22.5715H9.29246V25.1171L9.35785 25.1588C9.40042 25.1883 9.43986 25.2222 9.47554 25.2599C9.6374 25.4231 9.729 25.6441 9.73054 25.8748C9.72957 26.1064 9.63793 26.3282 9.47554 26.492C9.39456 26.5724 9.29914 26.6365 9.19438 26.6809C9.08995 26.7241 8.97817 26.7465 8.86527 26.7468C8.75168 26.7464 8.63922 26.724 8.53398 26.6809C8.42949 26.636 8.33416 26.5719 8.25283 26.492C8.17328 26.4102 8.1097 26.3141 8.06539 26.2087C8.02263 26.1026 8.00044 25.9893 8 25.8748C8.00015 25.7627 8.0216 25.6516 8.06321 25.5476C8.107 25.4425 8.17066 25.347 8.25065 25.2664C8.29988 25.216 8.35558 25.1724 8.41629 25.1369C8.44949 25.1112 8.48529 25.0891 8.52309 25.071V22.1915C8.52309 22.1406 8.53308 22.0901 8.55249 22.0431C8.57191 21.996 8.60036 21.9533 8.63621 21.9174C8.67206 21.8815 8.71461 21.8531 8.7614 21.8338C8.80819 21.8145 8.85831 21.8047 8.90886 21.805ZM9.64118 19.6789H11.6899C11.6529 19.7579 11.6224 19.8392 11.594 19.9183C11.5356 20.0942 11.4925 20.275 11.4654 20.4586H9.64118C9.62698 20.4881 9.61096 20.5167 9.59323 20.5443C9.56013 20.596 9.52139 20.6439 9.47772 20.687C9.39792 20.7688 9.30219 20.8331 9.19656 20.8759C9.0924 20.92 8.98044 20.9424 8.86745 20.9418C8.7561 20.9423 8.64573 20.9207 8.5427 20.8781C8.43407 20.8323 8.33609 20.7643 8.255 20.6782C8.17452 20.5972 8.11081 20.5009 8.06757 20.3949C7.98274 20.1836 7.98274 19.9473 8.06757 19.736C8.11081 19.63 8.17452 19.5337 8.255 19.4527C8.33603 19.3711 8.4322 19.3064 8.53804 19.2623C8.64387 19.2182 8.75729 19.1956 8.87181 19.1957C8.98244 19.1954 9.09204 19.217 9.19438 19.2594C9.35504 19.3236 9.49259 19.4354 9.58888 19.58C9.60631 19.6086 9.62157 19.6371 9.63683 19.6657L9.64118 19.6789ZM12.091 15.2312C12.1339 15.3365 12.1561 15.4491 12.1564 15.5629C12.1564 15.6774 12.1342 15.7908 12.091 15.8967C12.0486 15.9996 11.9864 16.0929 11.9079 16.1713C11.8617 16.2163 11.8113 16.2567 11.7575 16.2921C11.728 16.3107 11.6974 16.3275 11.666 16.3426V17.7351H13.0936V17.8032C13.0936 17.8559 13.0936 17.9108 13.0936 17.9679C13.0951 17.9924 13.0905 18.0169 13.0802 18.0391C13.0699 18.0614 13.0543 18.0807 13.0347 18.0953C12.8561 18.2224 12.6864 18.3619 12.5269 18.5126H11.2693C11.1675 18.512 11.0701 18.4712 10.9979 18.3989C10.9257 18.3266 10.8847 18.2286 10.8835 18.126V16.336C10.8569 16.3228 10.8314 16.3073 10.8072 16.2899C10.7616 16.2591 10.7186 16.2246 10.6786 16.1867C10.5984 16.1054 10.5347 16.0092 10.4912 15.9033C10.4465 15.7978 10.4235 15.6842 10.4236 15.5695C10.4246 15.4574 10.446 15.3465 10.4868 15.2422C10.5299 15.1367 10.5936 15.0411 10.6743 14.9611C10.7541 14.8793 10.8498 14.815 10.9554 14.7722C11.0595 14.7274 11.1714 14.7042 11.2845 14.7041C11.5143 14.7051 11.7344 14.7974 11.897 14.9611C11.9767 15.0427 12.0404 15.1388 12.0844 15.2444L12.091 15.2312ZM23.1695 11.4535V12.0553C23.2502 12.0553 23.3286 12.0553 23.4071 12.0772C23.5893 12.1037 23.7683 12.1493 23.9411 12.2134V11.851H25.081C25.0948 11.8814 25.1108 11.9108 25.1289 11.9389C25.1639 11.9912 25.2032 12.0405 25.2466 12.086C25.327 12.1671 25.4226 12.2313 25.5278 12.2749C25.6322 12.3181 25.744 12.3405 25.8569 12.3408C25.9705 12.3404 26.0829 12.318 26.1882 12.2749C26.2901 12.2317 26.3832 12.1699 26.4628 12.0926C26.5832 11.9701 26.6651 11.8146 26.6985 11.6455C26.7318 11.4764 26.715 11.3012 26.6502 11.1416C26.6066 11.0388 26.5445 10.945 26.4671 10.8648C26.389 10.7846 26.2956 10.7211 26.1925 10.6782C26.0884 10.6338 25.9764 10.6114 25.8634 10.6123C25.7497 10.6116 25.637 10.634 25.5321 10.6782C25.4299 10.7208 25.3367 10.7827 25.2575 10.8605C25.2153 10.9029 25.178 10.95 25.1463 11.001C25.1289 11.0252 25.1136 11.0537 25.0984 11.0801H23.5727C23.4702 11.0759 23.3702 11.1129 23.2946 11.1829C23.219 11.2528 23.174 11.3501 23.1695 11.4535ZM21.3082 8.41589V12.8086C21.4104 12.705 21.5204 12.6096 21.6373 12.5231C21.7735 12.4232 21.9195 12.3378 22.0732 12.2683V8.80245H24.5971C24.6102 8.82441 24.6233 8.84638 24.6385 8.86834C24.6677 8.9107 24.7005 8.95039 24.7366 8.98695C24.8168 9.06828 24.9124 9.13252 25.0178 9.17583C25.1756 9.24213 25.3494 9.25956 25.5171 9.22592C25.6848 9.19228 25.8387 9.10909 25.9593 8.98695C26.0405 8.90653 26.1043 8.81006 26.1467 8.70361C26.1904 8.60083 26.2133 8.49034 26.2143 8.37855C26.2142 8.26383 26.1912 8.1503 26.1467 8.0447C26.1038 7.93854 26.04 7.84218 25.9593 7.76137C25.8795 7.6779 25.7839 7.61142 25.6781 7.56589C25.5737 7.52266 25.4619 7.50028 25.349 7.5C25.2377 7.49971 25.1274 7.52135 25.0243 7.5637C24.9197 7.60835 24.8243 7.67242 24.7431 7.75259C24.6944 7.80333 24.6512 7.85931 24.6145 7.91951C24.5961 7.95452 24.5793 7.99043 24.5644 8.02713H21.694C21.5918 8.02771 21.494 8.06885 21.4218 8.14163C21.3496 8.21442 21.3088 8.31296 21.3082 8.41589ZM19.2006 9.15387V12.1541C19.4674 12.2314 19.7189 12.3547 19.9438 12.5187L19.9678 12.5363C19.9688 12.5297 19.9688 12.5231 19.9678 12.5165V9.15387L20.0528 9.10555C20.1076 9.07225 20.1587 9.03323 20.2054 8.98914C20.2858 8.90814 20.3496 8.81183 20.3928 8.70581C20.4322 8.60135 20.4514 8.49028 20.4495 8.37855C20.45 8.26634 20.4285 8.15512 20.3863 8.05129C20.2992 7.83659 20.1314 7.66529 19.9195 7.57477C19.7076 7.48425 19.4687 7.48185 19.2551 7.56809C19.1499 7.61167 19.0543 7.67587 18.9739 7.75698C18.8937 7.8382 18.83 7.93445 18.7865 8.04031C18.7419 8.14734 18.7196 8.26248 18.7211 8.37855C18.7208 8.49003 18.7423 8.60049 18.7843 8.70361C18.8267 8.81006 18.8906 8.90653 18.9717 8.98695C19.0123 9.02947 19.0576 9.06707 19.1069 9.09896C19.1342 9.11682 19.1626 9.13296 19.1919 9.14728L19.2006 9.15387ZM14.7849 11.6226C14.9946 11.7081 15.229 11.7081 15.4387 11.6226C15.5408 11.5799 15.6334 11.5172 15.7112 11.4381C15.7551 11.3915 15.7945 11.3407 15.8289 11.2865C15.8481 11.2573 15.8649 11.2264 15.879 11.1943H17.2565V12.3913C17.5032 12.2588 17.7685 12.1647 18.0433 12.1124V10.7946C18.0427 10.6916 18.0019 10.5931 17.9296 10.5203C17.8574 10.4475 17.7596 10.4064 17.6575 10.4058H15.8834L15.8463 10.3377C15.8157 10.2912 15.7807 10.2478 15.7417 10.2081C15.6619 10.1263 15.5662 10.062 15.4605 10.0192C15.3565 9.97442 15.2446 9.95126 15.1314 9.95115C15.0202 9.95193 14.9101 9.97353 14.8067 10.0148C14.7016 10.0587 14.6061 10.1229 14.5255 10.2037C14.439 10.2825 14.3693 10.3781 14.3206 10.4849C14.2777 10.5901 14.2555 10.7027 14.2552 10.8165C14.2557 10.931 14.2779 11.0443 14.3206 11.1504C14.4091 11.3638 14.5774 11.5335 14.7892 11.6226H14.7849ZM30.059 18.2622H29.0717C29.0982 18.1171 29.115 17.9703 29.1218 17.8229C29.1218 17.7065 29.1218 17.6033 29.1218 17.4781H29.6754V16.347C29.5899 16.3032 29.5114 16.247 29.4422 16.1801C29.3615 16.1 29.2978 16.0044 29.2548 15.8989C29.211 15.7932 29.1887 15.6797 29.1894 15.5651C29.1903 15.3378 29.2786 15.1197 29.4357 14.9567C29.5155 14.8749 29.6112 14.8106 29.7168 14.7678C29.8208 14.723 29.9328 14.6998 30.0459 14.6997C30.1605 14.6996 30.2739 14.7227 30.3794 14.7678C30.4816 14.8102 30.5743 14.873 30.6518 14.9523C30.7296 15.0325 30.7924 15.1263 30.8371 15.229C30.9219 15.4404 30.9219 15.6766 30.8371 15.8879C30.7942 15.9906 30.7329 16.0844 30.6562 16.1647C30.6136 16.2073 30.5669 16.2456 30.5167 16.2789C30.4905 16.2943 30.4644 16.3118 30.4361 16.325V17.8625C30.4365 17.9134 30.4269 17.9639 30.4078 18.011C30.3887 18.0581 30.3605 18.101 30.3249 18.137C30.2526 18.2098 30.1547 18.2508 30.0525 18.2512L30.059 18.2622ZM33.082 20.1379H30.1898C30.1139 19.8889 30.0101 19.6494 29.8803 19.4241L29.8476 19.367H32.7028V16.8324L32.6374 16.7928C32.5951 16.7621 32.555 16.7283 32.5175 16.6918C32.4378 16.6102 32.3741 16.5141 32.3301 16.4085C32.2452 16.1972 32.2452 15.9609 32.3301 15.7496C32.3741 15.644 32.4378 15.5478 32.5175 15.4662C32.6389 15.3453 32.7928 15.263 32.9602 15.2294C33.1275 15.1959 33.301 15.2125 33.4591 15.2774C33.6729 15.363 33.8445 15.5304 33.9364 15.743C34.0212 15.9543 34.0212 16.1906 33.9364 16.4019C33.8939 16.5083 33.8301 16.6048 33.7489 16.6852C33.6998 16.7348 33.6449 16.7783 33.5855 16.8148C33.552 16.8357 33.517 16.8541 33.4809 16.8697V19.7579C33.4803 19.8609 33.4395 19.9594 33.3672 20.0322C33.295 20.105 33.1972 20.1461 33.0951 20.1467L33.082 20.1379ZM32.3497 22.264H30.0503C30.0895 22.1784 30.1244 22.0905 30.1549 22.0048C30.215 21.8367 30.2588 21.6631 30.2857 21.4865H32.3497C32.3649 21.4579 32.3802 21.4294 32.3976 21.403C32.4305 21.351 32.4685 21.3025 32.511 21.2581C32.5927 21.1786 32.6879 21.1147 32.7921 21.0692C33.0018 20.9837 33.2363 20.9837 33.446 21.0692C33.5539 21.1141 33.6517 21.1804 33.7337 21.2642C33.8157 21.3479 33.8802 21.4474 33.9233 21.5568C33.9661 21.6628 33.9883 21.7762 33.9887 21.8906C33.9884 22.0053 33.9654 22.1188 33.9211 22.2245C33.878 22.3294 33.8151 22.4248 33.7359 22.5056C33.6544 22.587 33.5582 22.6518 33.4525 22.6967C33.3481 22.7399 33.2363 22.7623 33.1234 22.7626C33.0122 22.7616 32.9021 22.74 32.7987 22.6989C32.6939 22.6534 32.5986 22.5886 32.5175 22.5078C32.4766 22.4663 32.4401 22.4207 32.4085 22.3716C32.3911 22.3453 32.3758 22.3167 32.3606 22.2882L32.3497 22.264ZM29.8999 26.7204C29.8151 26.5091 29.8151 26.2729 29.8999 26.0615C29.9428 25.959 30.005 25.8658 30.083 25.787C30.128 25.7422 30.1777 25.7024 30.2312 25.6684L30.3227 25.6179V24.2166H28.6358C28.6358 24.1265 28.6358 24.0343 28.6358 23.9442C28.6335 23.9188 28.638 23.8932 28.6487 23.8701C28.6594 23.8469 28.676 23.8271 28.6968 23.8124C28.8636 23.6976 29.0231 23.5721 29.1741 23.4369H30.715C30.8176 23.4369 30.9159 23.4778 30.9886 23.5506C31.0613 23.6234 31.1024 23.7223 31.103 23.8256V25.6135L31.1815 25.6596C31.2276 25.6904 31.2707 25.7257 31.31 25.765C31.3905 25.846 31.4542 25.9423 31.4975 26.0484C31.5413 26.1533 31.5635 26.2661 31.5629 26.38C31.5634 26.4922 31.5419 26.6034 31.4997 26.7073C31.4112 26.9207 31.2429 27.0904 31.0311 27.1795C30.8214 27.265 30.5869 27.265 30.3772 27.1795C30.1654 27.0904 29.997 26.9207 29.9086 26.7073L29.8999 26.7204Z" fill="white"/>
</svg>
