<svg width="51" height="60" viewBox="0 0 51 50" fill="none" xmlns="http://www.w3.org/2000/svg"><path d="M13.7578 34.25C11.655 31.6255 10.5088 28.363 10.5078 25H0.507832C0.500184 31.0168 2.68676 36.8298 6.65783 41.35L13.7578 34.25Z" fill="#669DF6"/><path d="M25.5078 0C19.4902 0.00436332 13.6761 2.17911 9.13281 6.125L16.2328 13.225C18.4444 11.485 21.1008 10.4022 23.8985 10.1003C26.6962 9.79841 29.5225 10.2896 32.0543 11.5177C34.5861 12.7458 36.7215 14.6613 38.2163 17.0454C39.7112 19.4295 40.5052 22.186 40.5078 25H50.5078C50.5078 21.717 49.8612 18.4661 48.6048 15.4329C47.3484 12.3998 45.5069 9.6438 43.1855 7.32233C40.864 5.00087 38.108 3.15938 35.0749 1.90301C32.0418 0.646644 28.7909 0 25.5078 0Z" fill="#669DF6"/><path d="M15.5078 47.5C18.2692 47.5 20.5078 45.2614 20.5078 42.5C20.5078 39.7386 18.2692 37.5 15.5078 37.5C12.7464 37.5 10.5078 39.7386 10.5078 42.5C10.5078 45.2614 12.7464 47.5 15.5078 47.5Z" fill="#AECBFA"/><path d="M43.0078 40C45.7692 40 48.0078 37.7614 48.0078 35C48.0078 32.2386 45.7692 30 43.0078 30C40.2464 30 38.0078 32.2386 38.0078 35C38.0078 37.7614 40.2464 40 43.0078 40Z" fill="#4285F4"/><path d="M30.5078 50C33.2692 50 35.5078 47.7614 35.5078 45C35.5078 42.2386 33.2692 40 30.5078 40C27.7464 40 25.5078 42.2386 25.5078 45C25.5078 47.7614 27.7464 50 30.5078 50Z" fill="#669DF6"/><path d="M10.5078 25H0.507812C0.513671 27.466 0.884352 29.9175 1.60781 32.275L11.6078 30.3C10.9228 28.6147 10.55 26.8188 10.5078 25Z" fill="#4285F4"/><path d="M8.00781 20C10.7692 20 13.0078 17.7614 13.0078 15C13.0078 12.2386 10.7692 10 8.00781 10C5.24639 10 3.00781 12.2386 3.00781 15C3.00781 17.7614 5.24639 20 8.00781 20Z" fill="#AECBFA"/><path d="M39.5332 19.7001C40.1755 21.3934 40.5058 23.1891 40.5082 25.0001H50.5082C50.5104 22.5354 50.1482 20.0838 49.4332 17.7251L39.5332 19.7001Z" fill="#4285F4"/></svg>