<svg width="49" height="60" viewBox="0 0 49 48" fill="none" xmlns="http://www.w3.org/2000/svg"><path d="M33.8161 0H24.4248V2.08696C25.5774 2.08696 26.5118 3.02129 26.5118 4.17391C26.5118 5.32654 25.5774 6.26087 24.4248 6.26087V8.34783H33.8161C37.2679 8.34783 40.077 11.1569 40.077 14.6087V19.8261H48.4248V14.6087C48.4248 6.55304 41.8718 0 33.8161 0ZM31.7292 6.26087C30.5765 6.26087 29.6422 5.32654 29.6422 4.17391C29.6422 3.02129 30.5765 2.08696 31.7292 2.08696C32.8818 2.08696 33.8161 3.02129 33.8161 4.17391C33.8161 5.32654 32.8818 6.26087 31.7292 6.26087Z" fill="#2B6FF6" fill-opacity="0.45"/><path d="M8.77263 14.6087C8.77263 11.1569 11.5817 8.34783 15.0335 8.34783H24.4248V6.26087C23.2722 6.26087 22.3378 5.32654 22.3378 4.17391C22.3378 3.02129 23.2722 2.08696 24.4248 2.08696V0H15.0335C6.97785 0 0.424805 6.55304 0.424805 14.6087V19.8261H8.77263V14.6087ZM17.1205 2.08696C18.2731 2.08696 19.2074 3.02129 19.2074 4.17391C19.2074 5.32654 18.2731 6.26087 17.1205 6.26087C15.9678 6.26087 15.0335 5.32654 15.0335 4.17391C15.0335 3.02129 15.9678 2.08696 17.1205 2.08696Z" fill="#2B6FF6" fill-opacity="0.47"/><path d="M24.4248 19.826V24H44.2509V43.826H24.4248V48H48.4248V19.826H24.4248Z" fill="#669DF6"/><path d="M4.59872 43.826V24H24.4248V19.826H0.424805V48H24.4248V43.826H4.59872Z" fill="#2B6FF6" fill-opacity="0.45"/><path d="M4.59863 43.8261H24.4247V39.6523H8.77317V35.4784H24.4247V32.3478H8.77317V28.1739H24.4247V24H4.59863V43.8261Z" fill="white"/><path d="M31.7292 28.1739V32.3478H24.4248V35.4784H40.0776V39.6523H24.4248V43.8261H44.2509V24H24.4248V28.1739H31.7292Z" fill="#2B6FF6" fill-opacity="0.47"/><path d="M40.0778 35.4784H8.77344V39.6523H40.0778V35.4784Z" fill="#2B6FF6"/><path d="M31.7293 28.174H8.77344V32.3479H31.7293V28.174Z" fill="#2B6FF6"/></svg>