<svg width="52" height="52" viewBox="0 0 52 52" fill="none" xmlns="http://www.w3.org/2000/svg">
<rect width="52" height="52" rx="26" fill="#2B6FF6"/>
<path d="M28.2789 13.7691L26.3049 24.1431L33.4571 24.1668L23.721 38.2298L25.6959 26.8171L18.5436 26.7918L28.2789 13.7691ZM28.2798 12.02C28.2325 12.02 28.1853 12.0218 28.1389 12.0253C27.83 12.0498 27.6253 12.1539 27.3829 12.3166C27.2481 12.4059 27.1248 12.5161 27.0163 12.643C26.9839 12.6806 26.9541 12.72 26.9261 12.7603L17.12 25.7383C16.7333 26.2694 16.6755 26.9694 16.973 27.5548C17.2705 28.1401 17.8708 28.5111 18.5296 28.5164L23.581 28.5531L21.9929 37.9104C21.8424 38.7145 22.2711 39.516 23.0254 39.8389C23.2503 39.9351 23.4865 39.9815 23.7193 39.9815C24.2696 39.9815 24.7211 39.7243 25.0606 39.2596L34.8781 25.1966C35.2649 24.6655 35.3218 23.9646 35.0251 23.3801C34.7276 22.7948 34.1274 22.4238 33.4685 22.4194L28.4171 22.4106L29.9886 14.1839C30.0219 14.0518 30.0385 13.9144 30.0385 13.7726C30.0385 12.8259 29.2851 12.0541 28.3419 12.0235C28.3209 12.0226 28.3008 12.0226 28.2798 12.0226V12.02Z" fill="white"/>
</svg>
