<svg width="42" height="42" viewBox="0 0 42 42" fill="none" xmlns="http://www.w3.org/2000/svg">
<rect width="42" height="42" rx="21" fill="#3E4D6E"/>
<g clip-path="url(#clip0_1758_5062)">
<path fill-rule="evenodd" clip-rule="evenodd" d="M25.3132 26.9562C25.3132 27.964 23.7405 28.7703 21.8036 28.7703C19.8668 28.7703 18.2941 27.964 18.2941 26.9562C18.2967 26.763 18.3522 26.5742 18.4548 26.41C18.9004 27.1517 20.231 27.6879 21.8036 27.6879C22.8412 27.6879 24.5685 27.3835 25.1524 26.41C25.2548 26.5743 25.3103 26.7631 25.3132 26.9562ZM17.1019 26.7667C17.1019 27.9983 15.1752 29 12.8009 29C10.4267 29 8.5 27.9983 8.5 26.7667C8.50501 26.5307 8.57539 26.3006 8.70345 26.1016C9.25073 27.0086 10.8804 27.6677 12.807 27.6677C14.0786 27.6677 16.1945 27.2928 16.9106 26.1016C17.0394 26.3018 17.1098 26.5334 17.1141 26.7708L17.1019 26.7667ZM17.1263 24.4407C17.1263 25.6722 15.1996 26.674 12.8254 26.674C10.4511 26.674 8.52441 25.6722 8.52441 24.4407C8.529 24.2034 8.59938 23.9719 8.72786 23.7715C9.27515 24.6785 10.9048 25.3377 12.8315 25.3377C14.103 25.3377 16.2189 24.9648 16.9351 23.7715C17.0627 23.9723 17.133 24.2035 17.1385 24.4407H17.1263ZM14.3777 18.6438L14.3268 19.1981L12.217 19.0167C12.3928 19.2374 12.5165 19.4943 12.5792 19.7685L12.0706 19.7241C12.0233 19.548 11.9463 19.381 11.8427 19.2303C11.7367 19.0627 11.5841 18.929 11.4032 18.8453L11.4439 18.3959L14.3777 18.6438ZM12.8905 17.775C14.811 17.775 16.3593 18.3999 16.3593 19.1497C16.3593 19.8995 14.7764 20.5223 12.8254 20.5223C10.8743 20.5223 9.29142 19.9035 9.29142 19.1477C9.29142 18.3918 10.8234 17.7871 12.7318 17.773L12.8905 17.775ZM12.8762 17.3195C15.2261 17.3195 17.1263 18.3273 17.1263 19.5528C17.1263 20.7783 15.1996 21.7841 12.8254 21.7841C10.4511 21.7841 8.52441 20.7844 8.52441 19.5508C8.52441 18.3172 10.4246 17.3336 12.7765 17.3175L12.8762 17.3195ZM17.1263 22.0401C17.1263 23.2716 15.1996 24.2734 12.8254 24.2734C10.4511 24.2734 8.52441 23.2797 8.52441 22.0401C8.52516 21.8144 8.58699 21.5931 8.70345 21.3991C9.23446 22.3182 10.8763 22.9915 12.8233 22.9915C14.0969 22.9915 16.2413 22.6125 16.9412 21.3991C17.0581 21.5931 17.1213 21.8142 17.1243 22.0401H17.1263ZM27.6895 20.5909C27.4947 20.6328 27.291 20.5964 27.1233 20.4896C26.9556 20.3828 26.8376 20.2144 26.7953 20.0214C26.7529 19.8285 26.7897 19.6267 26.8975 19.4606C27.0053 19.2945 27.1752 19.1775 27.37 19.1356L28.6965 18.8453L23.4312 15.8219L21.5452 17.8557C21.4376 17.98 21.2917 18.066 21.13 18.1002C20.9682 18.1344 20.7996 18.1151 20.6501 18.0451L13.0166 14.411C12.8423 14.3234 12.7094 14.1717 12.6465 13.9884C12.5835 13.8051 12.5954 13.6046 12.6796 13.4299C12.7638 13.2551 12.9137 13.1199 13.0971 13.0532C13.2806 12.9864 13.4832 12.9934 13.6615 13.0726L20.7965 16.4649L22.7415 14.3666C22.8571 14.2417 23.0123 14.1596 23.1814 14.1339C23.3504 14.1083 23.5233 14.1406 23.6713 14.2255L29.61 17.6521L29.2845 16.1847C29.2493 15.9941 29.2902 15.7974 29.3988 15.6363C29.5074 15.4751 29.675 15.3621 29.8662 15.3213C30.0573 15.2804 30.2571 15.3149 30.423 15.4173C30.589 15.5198 30.7082 15.6822 30.7555 15.8703L31.4451 18.9864V19.0207C31.4661 19.1165 31.4677 19.2155 31.45 19.3119C31.4323 19.4084 31.3955 19.5005 31.3419 19.5828C31.2882 19.6652 31.2187 19.7363 31.1372 19.792C31.0558 19.8477 30.9641 19.887 30.8673 19.9076L27.6895 20.5909ZM31.258 24.1142L31.2173 24.5657L29.4941 24.4185C29.636 24.5962 29.7368 24.8026 29.7891 25.0232L29.3822 24.9869C29.3431 24.8431 29.2798 24.7068 29.195 24.5838C29.1088 24.4465 28.9845 24.3366 28.8369 24.2674L28.8695 23.9005L31.2641 24.1021L31.258 24.1142ZM30.1817 23.4087C31.6852 23.447 32.8754 23.9328 32.8754 24.5254C32.8754 25.1179 31.5835 25.6481 29.9905 25.6481C28.3975 25.6481 27.1055 25.1442 27.1055 24.5254C27.1055 23.9066 28.3263 23.4349 29.8501 23.4067C29.962 23.4067 30.0719 23.4067 30.1817 23.4067V23.4087ZM30.1817 23.0358C32.0352 23.0842 33.5102 23.8824 33.5102 24.8499C33.5102 25.8577 31.9375 26.674 30.0007 26.674C28.0638 26.674 26.4911 25.8557 26.4911 24.8499C26.4911 23.8441 27.9763 23.0741 29.8399 23.0358C29.9539 23.0358 30.0658 23.0358 30.1817 23.0358ZM33.3617 26.4422C33.4567 26.601 33.5079 26.7817 33.5102 26.9663C33.5102 27.9741 31.9375 28.7803 30.0007 28.7803C28.0638 28.7803 26.4911 27.9741 26.4911 26.9663C26.4921 26.7815 26.5434 26.6005 26.6396 26.4422C27.073 27.194 28.4117 27.7423 30.0007 27.7423C31.0505 27.7423 32.794 27.4278 33.3617 26.4422ZM23.0711 22.0703L23.0304 22.5218L21.3174 22.3707C21.4588 22.5487 21.5594 22.755 21.6124 22.9753L21.2055 22.9391C21.1664 22.7952 21.1031 22.6589 21.0183 22.5359C20.9335 22.3977 20.8097 22.287 20.6623 22.2175L20.6765 21.8688L23.0711 22.0703ZM21.9908 21.3628C23.4963 21.4011 24.6865 21.8889 24.6865 22.4815C24.6865 23.0741 23.3946 23.6022 21.8036 23.6022C20.2126 23.6022 18.9187 23.0963 18.9187 22.4735C18.9187 21.8506 20.1292 21.385 21.649 21.3548L21.9908 21.3628ZM21.9766 20.99C23.832 21.0383 25.3132 21.8365 25.3132 22.804C25.3132 23.7715 23.7405 24.6181 21.8036 24.6181C19.8668 24.6181 18.2941 23.8017 18.2941 22.804C18.2941 21.8063 19.7854 21.0222 21.6531 20.99C21.7609 20.99 21.8565 20.99 21.9766 20.99ZM25.3132 24.9204C25.3132 25.9282 23.7405 26.7446 21.8036 26.7446C19.8668 26.7446 18.2941 25.9262 18.2941 24.9204C18.2945 24.7362 18.3459 24.5557 18.4426 24.3984C18.876 25.1462 20.2147 25.6984 21.8036 25.6984C22.8433 25.6984 24.595 25.388 25.1646 24.3984C25.2592 24.5566 25.3104 24.7366 25.3132 24.9204Z" fill="white"/>
</g>
<defs>
<clipPath id="clip0_1758_5062">
<rect width="25" height="16" fill="white" transform="translate(8.5 13)"/>
</clipPath>
</defs>
</svg>
