<svg width="42" height="42" viewBox="0 0 42 42" fill="none" xmlns="http://www.w3.org/2000/svg">
<rect width="42" height="42" rx="21" fill="#3E4D6E"/>
<g clip-path="url(#clip0_1758_5091)">
<path d="M12.9062 18.0096H29.1172C29.487 18.0096 29.8417 18.1553 30.1033 18.4148C30.3648 18.6742 30.5117 19.026 30.5117 19.3929V20.2783H31.2324V11.8815C31.2334 11.6497 31.326 11.4275 31.4904 11.2627C31.6547 11.0979 31.8777 11.0035 32.1113 11C32.3467 11.001 32.5721 11.0942 32.7386 11.2593C32.905 11.4244 32.999 11.648 33 11.8815V22.3707C33 22.4118 32.9835 22.4513 32.9542 22.4803C32.9249 22.5094 32.8852 22.5257 32.8438 22.5257H31.3789C31.3375 22.5257 31.2977 22.5094 31.2684 22.4803C31.2391 22.4513 31.2227 22.4118 31.2227 22.3707V22.1072H30.502V29.6167C30.5014 29.9834 30.3543 30.335 30.0929 30.5943C29.8315 30.8536 29.4771 30.9995 29.1074 31H12.9062C12.5366 30.9995 12.1822 30.8536 11.9207 30.5943C11.6593 30.335 11.5122 29.9834 11.5117 29.6167V22.1072H10.7773V22.3707C10.7773 22.3911 10.7733 22.4112 10.7654 22.43C10.7576 22.4488 10.7461 22.4659 10.7316 22.4803C10.7171 22.4947 10.6998 22.5061 10.6809 22.5139C10.6619 22.5217 10.6416 22.5257 10.6211 22.5257H9.15625C9.11481 22.5257 9.07507 22.5094 9.04576 22.4803C9.01646 22.4513 9 22.4118 9 22.3707V11.8815C9.00103 11.648 9.09499 11.4244 9.26142 11.2593C9.42786 11.0942 9.6533 11.001 9.88867 11C10.124 11.001 10.3495 11.0942 10.5159 11.2593C10.6824 11.4244 10.7763 11.648 10.7773 11.8815V20.2783H11.5176V19.3929C11.5176 19.027 11.6637 18.6761 11.924 18.4168C12.1842 18.1575 12.5374 18.0111 12.9062 18.0096ZM16.627 13.7124C16.5426 13.7852 16.4326 13.822 16.3211 13.8147C16.2095 13.8074 16.1053 13.7567 16.0312 13.6736C15.9625 13.5891 15.9292 13.4816 15.9383 13.3733C15.9474 13.2651 15.9982 13.1645 16.0801 13.0924C16.7838 12.4791 17.5859 11.9867 18.4531 11.6355C20.0997 10.9827 21.9389 10.998 23.5742 11.6781C24.4381 12.0387 25.2364 12.5374 25.9375 13.1544C25.9462 13.1605 25.9541 13.1676 25.9609 13.1757C26.0386 13.2473 26.0855 13.3458 26.0918 13.4508C26.0972 13.5574 26.0616 13.6619 25.9922 13.7434C25.9855 13.7534 25.9777 13.7625 25.9688 13.7705C25.8947 13.8461 25.7954 13.8923 25.6895 13.9003C25.5773 13.9071 25.467 13.8695 25.3828 13.7957C24.7523 13.2397 24.0345 12.7895 23.2578 12.4628C22.5449 12.1625 21.7793 12.0045 21.0049 11.9978C20.2304 11.9912 19.4622 12.136 18.7441 12.424C17.9717 12.7348 17.2563 13.1701 16.627 13.7124ZM19.4082 16.5798C19.3234 16.6489 19.2147 16.6825 19.1053 16.6735C18.9959 16.6644 18.8944 16.6135 18.8223 16.5313C18.8141 16.5239 18.8069 16.5154 18.8008 16.5062C18.7372 16.4214 18.708 16.3161 18.7188 16.211C18.7297 16.1059 18.7798 16.0087 18.8594 15.9385L18.8848 15.9191C19.1949 15.6659 19.5428 15.462 19.916 15.3146C20.6233 15.0382 21.4099 15.0382 22.1172 15.3146C22.4912 15.4622 22.8392 15.6675 23.1484 15.923C23.2358 15.9935 23.2914 16.0955 23.3031 16.2066C23.3148 16.3177 23.2817 16.4289 23.2109 16.5158C23.1392 16.6023 23.0361 16.6573 22.9238 16.6689C22.8124 16.6793 22.7012 16.6467 22.6133 16.5778C22.3792 16.3815 22.1156 16.2227 21.832 16.107C21.5769 16.0049 21.3044 15.9523 21.0293 15.952C20.7519 15.9537 20.4774 16.0083 20.2207 16.1129C19.9299 16.2288 19.6591 16.3889 19.418 16.5875L19.4082 16.5798ZM18.0625 15.2236L18.041 15.241C17.9587 15.3077 17.854 15.3409 17.748 15.334C17.6396 15.328 17.5379 15.28 17.4648 15.2003C17.4573 15.1942 17.4508 15.187 17.4453 15.179C17.3781 15.0982 17.3445 14.9949 17.3516 14.8903C17.3547 14.8349 17.3689 14.7807 17.3934 14.7308C17.4179 14.6809 17.4521 14.6364 17.4941 14.5997C18.0084 14.1363 18.5956 13.7593 19.2324 13.4838C19.8017 13.2362 20.4181 13.1133 21.0396 13.1233C21.6611 13.1334 22.2731 13.2761 22.834 13.5419C23.4621 13.839 24.0373 14.2356 24.5371 14.716L24.5488 14.7257C24.6246 14.8009 24.668 14.9022 24.6699 15.0085C24.6718 15.064 24.6625 15.1192 24.6427 15.1711C24.623 15.2229 24.593 15.2704 24.5547 15.3108V15.3204C24.4785 15.3953 24.3767 15.4389 24.2695 15.4425C24.2139 15.4445 24.1585 15.4354 24.1065 15.4158C24.0545 15.3961 24.007 15.3664 23.9668 15.3282C23.5379 14.9156 23.0454 14.5735 22.5078 14.3149C22.0479 14.0917 21.5439 13.9722 21.0319 13.9652C20.52 13.9582 20.0128 14.0637 19.5469 14.2742C19.0056 14.5128 18.5064 14.8359 18.0684 15.2313L18.0625 15.2236ZM23.7676 27.8866C23.9043 27.8866 24.038 27.9268 24.1517 28.0021C24.2654 28.0775 24.354 28.1846 24.4064 28.3099C24.4587 28.4353 24.4724 28.5732 24.4457 28.7062C24.419 28.8393 24.3532 28.9615 24.2565 29.0574C24.1598 29.1533 24.0366 29.2186 23.9025 29.2451C23.7683 29.2715 23.6293 29.258 23.503 29.2061C23.3767 29.1541 23.2687 29.0662 23.1927 28.9534C23.1167 28.8407 23.0762 28.7081 23.0762 28.5724C23.0767 28.3907 23.1497 28.2165 23.2792 28.088C23.4088 27.9595 23.5844 27.8871 23.7676 27.8866ZM21.0645 27.8866C21.2012 27.8866 21.3349 27.9268 21.4486 28.0021C21.5623 28.0775 21.6509 28.1846 21.7032 28.3099C21.7556 28.4353 21.7693 28.5732 21.7426 28.7062C21.7159 28.8393 21.65 28.9615 21.5534 29.0574C21.4567 29.1533 21.3335 29.2186 21.1993 29.2451C21.0652 29.2715 20.9262 29.258 20.7999 29.2061C20.6735 29.1541 20.5655 29.0662 20.4896 28.9534C20.4136 28.8407 20.373 28.7081 20.373 28.5724C20.3736 28.3907 20.4466 28.2165 20.5761 28.088C20.7057 27.9595 20.8812 27.8871 21.0645 27.8866ZM18.3613 27.8866C18.4981 27.8866 18.6318 27.9268 18.7455 28.0021C18.8592 28.0775 18.9478 28.1846 19.0001 28.3099C19.0524 28.4353 19.0661 28.5732 19.0394 28.7062C19.0128 28.8393 18.9469 28.9615 18.8502 29.0574C18.7535 29.1533 18.6303 29.2186 18.4962 29.2451C18.3621 29.2715 18.2231 29.258 18.0967 29.2061C17.9704 29.1541 17.8624 29.0662 17.7864 28.9534C17.7105 28.8407 17.6699 28.7081 17.6699 28.5724C17.6699 28.3905 17.7428 28.2161 17.8724 28.0874C18.0021 27.9588 18.178 27.8866 18.3613 27.8866ZM29.1035 18.8562H12.9062C12.7628 18.8562 12.6252 18.9128 12.5237 19.0134C12.4222 19.1141 12.3652 19.2506 12.3652 19.3929V29.6167C12.3657 29.7589 12.4229 29.8951 12.5243 29.9956C12.6256 30.0961 12.7629 30.1528 12.9062 30.1533H29.1172C29.2605 30.1528 29.3978 30.0961 29.4992 29.9956C29.6005 29.8951 29.6577 29.7589 29.6582 29.6167V19.3929C29.6582 19.2506 29.6012 19.1141 29.4997 19.0134C29.3983 18.9128 29.2607 18.8562 29.1172 18.8562H29.1035Z" fill="white"/>
</g>
<defs>
<clipPath id="clip0_1758_5091">
<rect width="24" height="20" fill="white" transform="translate(9 11)"/>
</clipPath>
</defs>
</svg>
