<svg width="42" height="42" viewBox="0 0 42 42" fill="none" xmlns="http://www.w3.org/2000/svg">
<rect width="42" height="42" rx="21" fill="#3E4D6E"/>
<path fill-rule="evenodd" clip-rule="evenodd" d="M15.5903 24.2172H27.4075C27.5937 24.2172 27.747 24.3767 27.747 24.5704V32.7167C27.747 32.9104 27.5937 33.0699 27.4075 33.0699H15.5903C15.4041 33.0699 15.2508 32.9104 15.2508 32.7167V24.5704C15.2508 24.3767 15.4041 24.2172 15.5903 24.2172ZM21.2011 17.9325H21.7989V18.5546H21.2011V17.9325ZM21.2011 16.6906H21.7989V17.3127H21.2011V16.6906ZM12.2527 27.6261V27.004H12.8506V27.6261H12.2527ZM21.9479 19.9241V19.302H22.5457V19.9241H21.9479ZM23.1414 19.9241V19.302H23.7393V19.9241H23.1414ZM24.335 19.9241V19.302H24.9328V19.9241H24.335ZM25.5307 19.9241V19.302H26.1286V19.9241H25.5307ZM26.7243 19.9241V19.302H27.3221V19.9241H26.7243ZM27.92 19.9241V19.302H28.5179V19.9241H27.92ZM29.1136 19.9241V19.302H29.7114V19.9241H29.1136ZM30.3093 19.9241V19.302H30.9072V19.9241H30.3093ZM31.5029 19.5071V19.302H31.7H31.9978V19.6119V20.0289H31.3999V19.6119L31.5029 19.5071ZM31.4021 20.651H32V21.2731H31.4021V20.651ZM31.4021 21.8929H32V22.515H31.4021V21.8929ZM31.4021 23.1371H32V23.7592H31.4021V23.1371ZM31.4021 24.379H32V25.0011H31.4021V24.379ZM31.4021 25.6232H32V26.2452H31.4021V25.6232ZM31.7131 26.865H31.9978V27.1613V27.4712H31.7H31.389V26.8491H31.7L31.7131 26.865ZM30.7911 26.8514V27.4735H30.1932V26.8514H30.7911ZM20.8594 19.302V19.9241H20.2637V19.302H20.8594ZM19.6659 19.302V19.9241H19.068V19.302H19.6659ZM18.4723 19.302V19.9241H17.8744V19.302H18.4723ZM17.2766 19.302V19.9241H16.6787V19.302H17.2766ZM16.083 19.302V19.9241H15.4851V19.302H16.083ZM14.8873 19.302V19.9241H14.2894V19.302H14.8873ZM13.6937 19.302V19.9241H13.0958V19.302H13.6937ZM12.498 19.302V19.9241H11.9023V19.302H12.498ZM11.3044 19.302V19.3089L11.5979 19.6142V20.2295H11V19.6142V19.3043H11.2978H11.3044V19.302ZM11 20.8493H11.5979V21.4714H11V20.8493ZM11 22.0934H11.5979V22.7155H11V22.0934ZM11 23.3353H11.5979V23.9574H11V23.3353ZM11 24.5795H11.5979V25.2016H11V24.5795ZM11 25.8214H11.5979V26.4435H11V25.8214ZM11 27.0656H11.2409L11.3 27.004H11.657V27.6261H11.2978H11V27.3162V27.0656ZM24.0853 10.2351C24.0065 10.2761 23.9298 10.3194 23.851 10.3673C23.6166 10.5085 23.3867 10.684 23.1524 10.8845L22.6509 10.2852C22.8239 10.1189 23.0122 9.9662 23.2115 9.82948C23.3714 9.72238 23.5378 9.62668 23.7086 9.54237C23.7765 9.50591 23.8466 9.47401 23.9167 9.4421C23.586 8.83141 23.1086 8.3939 22.5676 8.12274C22.0267 7.85385 21.4223 7.74903 20.8353 7.80828C20.2506 7.86752 19.6834 8.08856 19.2125 8.46682C18.6694 8.90433 18.2577 9.5606 18.0978 10.4265L18.0475 10.6977L17.7868 10.7455C17.5328 10.7911 17.305 10.8549 17.1057 10.9369C16.913 11.0144 16.74 11.1101 16.5889 11.224C16.4685 11.3152 16.3633 11.4155 16.2757 11.5271C16.002 11.8689 15.875 12.295 15.8793 12.7257C15.8815 13.1655 16.0195 13.6076 16.2735 13.9722C16.3677 14.1066 16.4772 14.2319 16.602 14.339C16.7291 14.4484 16.8714 14.5373 17.0313 14.6079C17.189 14.6763 17.3664 14.7241 17.5613 14.7538H25.0971C25.465 14.6626 25.7869 14.5373 26.0629 14.3778C26.3366 14.2183 26.56 14.0246 26.7265 13.7921C26.9871 13.4321 27.1141 12.924 27.1185 12.4021C27.125 11.8552 26.9958 11.3038 26.7462 10.905C26.6739 10.7888 26.5951 10.6863 26.5118 10.5928C26.1373 10.1736 25.6599 9.98899 25.1672 9.98671C24.808 9.98216 24.4379 10.0733 24.0853 10.2351ZM24.6722 9.23018C24.8387 9.20284 25.0051 9.18917 25.1694 9.19145C25.8658 9.196 26.5403 9.45578 27.0703 10.0505C27.182 10.1758 27.2871 10.3148 27.3835 10.4721C27.7163 11.003 27.885 11.714 27.8784 12.409C27.8718 13.0903 27.6944 13.7694 27.3331 14.2684C27.0988 14.5942 26.7943 14.8586 26.433 15.0705C26.0826 15.2733 25.6774 15.4282 25.2197 15.5376L25.1343 15.549H17.5459L17.4978 15.5445C17.2196 15.508 16.9678 15.4396 16.74 15.3417C16.5035 15.2414 16.2954 15.1092 16.1115 14.9497C15.9363 14.7993 15.7852 14.6261 15.6538 14.4393C15.3077 13.9425 15.1216 13.3341 15.1172 12.7303C15.1128 12.1196 15.2968 11.5089 15.691 11.0167C15.818 10.8572 15.9691 10.7113 16.1421 10.5815C16.3436 10.4311 16.5736 10.3035 16.832 10.1986C17.0116 10.1257 17.2021 10.0665 17.4036 10.0163C17.6313 9.07295 18.1197 8.34377 18.7461 7.84018C19.3308 7.36849 20.036 7.09276 20.7631 7.01985C21.4858 6.94693 22.2304 7.07453 22.8961 7.4095C23.6254 7.77182 24.2605 8.37795 24.6722 9.23018ZM19.9593 33.5576H23.0407C23.0494 34.1136 23.2684 34.6081 23.8641 35H19.1359C19.6111 34.64 19.9615 34.2047 19.9593 33.5576ZM21.4989 31.8782C21.7398 31.8782 21.9347 32.081 21.9347 32.3316C21.9347 32.5823 21.7398 32.7851 21.4989 32.7851C21.258 32.7851 21.0631 32.5823 21.0631 32.3316C21.0631 32.081 21.258 31.8782 21.4989 31.8782ZM16.2735 24.8826H26.7265C26.8907 24.8826 27.0265 25.0239 27.0265 25.1948V31.2812C27.0265 31.4521 26.8907 31.5933 26.7265 31.5933H16.2735C16.1093 31.5933 15.9735 31.4521 15.9735 31.2812V25.1948C15.9735 25.0216 16.1071 24.8826 16.2735 24.8826Z" fill="white"/>
</svg>
