<svg width="115" height="115" viewBox="0 0 115 115" fill="none" xmlns="http://www.w3.org/2000/svg">
<rect width="115" height="115" rx="57.5" fill="#2B6FF6"/>
<g clip-path="url(#clip0_1776_5195)">
<path d="M75.3875 96.4128L71.9056 85.4481L39.306 96.3762C38.2811 96.665 37.4026 96.2112 37 95.2485L54.2355 37.8578C46.9469 34.1861 50.5203 23.556 58.6004 24.5232C63.3176 25.087 66.0811 30.6473 64.0039 34.8966C63.3633 36.2122 60.8103 37.7478 60.8057 38.8251L78.0046 94.9368C78.0366 96.1882 76.3895 96.72 75.392 96.4083L75.3875 96.4128ZM57.2644 27.4569C51.7419 27.599 52.4145 35.9188 57.2644 35.9647C62.9378 36.0151 63.3084 27.3011 57.2644 27.4569ZM57.9552 39.1551C56.784 38.9717 57.2461 39.2605 56.999 39.8014C55.2375 43.6886 54.7937 48.9463 52.9269 52.9069C54.1394 52.6135 60.9521 50.2115 61.0574 49.4873L57.9552 39.1551ZM62.0639 52.916C61.6339 52.6089 54.7616 55.4005 54.7662 55.891L64.3608 61.1625L62.0639 52.9206V52.916ZM62.9882 63.459L51.7785 57.9629L47.894 69.8674C52.4282 68.1621 58.0788 66.5715 62.343 64.4125C62.828 64.1696 63.2032 64.6463 62.9882 63.459ZM66.1909 66.2002C61.3776 68.2263 55.4205 69.7894 50.8314 72.1181C50.3464 72.361 49.9712 71.8843 50.1863 73.0715L70.3134 80.8734L66.1955 66.2048L66.1909 66.2002ZM68.0257 83.6145L46.0684 74.9097L41.0355 92.787L68.0257 83.6145Z" fill="white"/>
<path d="M45.1121 19.0272C46.0866 20.3886 43.4558 22.4835 42.9342 23.4186C40.0288 28.6259 39.5072 33.5307 42.3897 38.9397C43.1264 40.3241 45.9173 42.859 44.9428 44.225C43.0852 46.8424 39.3379 39.7969 38.798 38.408C36.6796 32.9302 37.1235 27.0765 40.1981 22.048C40.8798 20.9295 43.7486 17.1157 45.1167 19.0272H45.1121Z" fill="white"/>
<path d="M69.8878 19.0271C71.2558 17.1156 74.12 20.934 74.8063 22.0479C77.8764 27.0765 78.3202 32.9256 76.2018 38.4079C75.6665 39.7969 71.9147 46.8424 70.057 44.2249C69.1374 42.9277 72.9075 38.8067 73.5389 37.1153C75.3828 32.1646 74.5546 27.8741 72.0702 23.4139C71.5486 22.4788 68.9178 20.384 69.8923 19.0225L69.8878 19.0271Z" fill="white"/>
<path d="M66.0583 22.245C67.3989 21.9012 69.412 24.9037 69.9382 26.013C72.2808 30.9636 71.4298 38.1421 66.4243 41.007L64.887 39.4668C68.0715 35.4192 69.4029 31.2295 66.74 26.4622C66.1452 25.4033 63.1575 22.9876 66.0537 22.245H66.0583Z" fill="white"/>
<path d="M48.214 22.2451C48.7402 22.1076 49.1474 22.2451 49.5272 22.6164L50.1952 23.7991C45.7022 28.6993 45.8715 34.4429 50.1128 39.4623L48.5755 41.0025C43.5746 38.1376 42.7236 30.9591 45.0616 26.0085C45.478 25.133 47.3584 22.4651 48.2095 22.2451H48.214Z" fill="white"/>
</g>
<defs>
<clipPath id="clip0_1776_5195">
<rect width="41" height="78" fill="white" transform="translate(37 18.5)"/>
</clipPath>
</defs>
</svg>
