<svg width="42" height="42" viewBox="0 0 42 42" fill="none" xmlns="http://www.w3.org/2000/svg">
<rect width="42" height="42" rx="21" fill="#354197"/>
<g clip-path="url(#clip0_1758_5134)">
<path d="M26.6763 15.9222C26.5031 16.0078 26.3322 16.1003 26.1613 16.2021C25.6486 16.5074 25.1427 16.8797 24.6255 17.3076L23.5249 16.0263C23.9054 15.6678 24.3179 15.3417 24.7554 15.0526C25.104 14.8213 25.4686 14.6155 25.8446 14.4397C25.9949 14.3634 26.1453 14.2917 26.3003 14.2246C25.5734 12.9179 24.5275 11.9812 23.3426 11.403C22.1577 10.8271 20.8315 10.6051 19.5395 10.7323C18.2567 10.8572 17.0102 11.3313 15.9803 12.1431C14.7908 13.0798 13.8839 14.4814 13.5353 16.3385L13.4282 16.9191L12.8585 17.0208C12.3003 17.1203 11.8035 17.2567 11.3638 17.4302C10.9399 17.5967 10.5617 17.8025 10.2313 18.0454C9.96695 18.2397 9.73908 18.4571 9.5454 18.693C8.94384 19.4215 8.66584 20.3351 8.67268 21.2579C8.67951 22.1969 8.9803 23.1451 9.53628 23.9269C9.74136 24.216 9.9829 24.4819 10.2563 24.7132C10.5343 24.9468 10.8465 25.1411 11.1974 25.2868C11.4822 25.4047 11.7921 25.4973 12.1294 25.5597V27.2781C11.5574 27.1972 11.0356 27.0561 10.5617 26.8572C10.0444 26.6398 9.58641 26.3599 9.18309 26.0176C8.80028 25.6938 8.46532 25.3261 8.18049 24.926C7.41942 23.8598 7.00927 22.56 7.00015 21.2648C6.99104 19.9558 7.39208 18.6537 8.25796 17.599C8.53824 17.2567 8.86864 16.9422 9.2469 16.6646C9.68668 16.3409 10.1903 16.0679 10.7576 15.8436C11.1496 15.6886 11.5688 15.5591 12.0109 15.455C12.5122 13.436 13.5809 11.8771 14.9549 10.7947C16.2401 9.78405 17.7873 9.19428 19.38 9.03932C20.966 8.88436 22.5975 9.15728 24.0627 9.87193C25.6623 10.6513 27.0568 11.9488 27.9614 13.7736C28.326 13.7158 28.6906 13.6881 29.0529 13.6904C30.5841 13.6996 32.0584 14.257 33.2228 15.5291C33.4666 15.795 33.6968 16.0957 33.911 16.4311C34.6401 17.569 35.0138 19.0885 34.9979 20.5756C34.9819 22.035 34.5946 23.4874 33.8016 24.5559C33.2866 25.2544 32.6212 25.8211 31.826 26.2721C31.0604 26.7069 30.1671 27.0376 29.1645 27.2735L28.9777 27.2966H28.2303V25.5921H28.8888C29.6932 25.3955 30.4041 25.1295 31.008 24.7872C31.6072 24.4472 32.0972 24.0333 32.464 23.536C33.0337 22.7658 33.314 21.6765 33.3253 20.5594C33.339 19.3868 33.0565 18.2119 32.5073 17.3539C32.3501 17.1064 32.1769 16.8844 31.9946 16.6855C31.172 15.7858 30.1284 15.3926 29.0438 15.3857C28.2599 15.3857 27.4464 15.5753 26.6763 15.9222ZM26.0177 22.1344C26.0018 22.1344 25.9881 22.1367 25.9722 22.1367H15.1942C15.1782 22.1367 15.1623 22.1368 15.1486 22.1344C15.0985 22.1437 15.0506 22.1691 15.0164 22.2061C14.9709 22.2524 14.9412 22.3171 14.9412 22.3865V25.4418C14.9412 25.5111 14.9709 25.5759 15.0164 25.6222C15.062 25.6684 15.1258 25.6985 15.1942 25.6985H25.9699C26.0382 25.6985 26.102 25.6684 26.1476 25.6222C26.1932 25.5759 26.2228 25.5111 26.2228 25.4418V22.3865C26.2228 22.3171 26.1932 22.2524 26.1476 22.2061C26.1134 22.1691 26.0679 22.1437 26.0177 22.1344ZM24.6824 30.856V33H23.2378V30.856H24.6824ZM17.9308 30.856V33H16.4862V30.856H17.9308ZM24.1333 23.2238C24.548 23.2238 24.8852 23.5661 24.8852 23.987C24.8852 24.4079 24.548 24.7502 24.1333 24.7502C23.7186 24.7502 23.3813 24.4079 23.3813 23.987C23.3813 23.5661 23.7163 23.2238 24.1333 23.2238ZM26.0177 26.5218C26.0018 26.5218 25.9881 26.5241 25.9722 26.5241H15.1942C15.1782 26.5241 15.1623 26.5241 15.1486 26.5218C15.0985 26.5311 15.0506 26.5565 15.0164 26.5935C14.9709 26.6398 14.9412 26.7045 14.9412 26.7739V29.8291C14.9412 29.8985 14.9709 29.9633 15.0164 30.0095C15.062 30.0558 15.1258 30.0859 15.1942 30.0859H25.9699C26.0382 30.0859 26.102 30.0558 26.1476 30.0095C26.1932 29.9633 26.2228 29.8985 26.2228 29.8291V26.7739C26.2228 26.7045 26.1932 26.6398 26.1476 26.5935C26.1134 26.5565 26.0679 26.5311 26.0177 26.5218ZM16.0145 27.4701H16.6479V29.133H16.0145V27.4701ZM17.7645 27.4701H18.3979V29.133H17.7645V27.4701ZM19.5168 27.4701H20.1502V29.133H19.5168V27.4701ZM16.0145 23.0827H16.6479V24.7456H16.0145V23.0827ZM17.7645 23.0827H18.3979V24.7456H17.7645V23.0827ZM19.5168 23.0827H20.1502V24.7456H19.5168V23.0827Z" fill="white"/>
</g>
<defs>
<clipPath id="clip0_1758_5134">
<rect width="28" height="24" fill="white" transform="translate(7 9)"/>
</clipPath>
</defs>
</svg>
