<svg width="42" height="42" viewBox="0 0 42 42" fill="none" xmlns="http://www.w3.org/2000/svg">
<rect width="42" height="42" rx="21" fill="#2B6FF6"/>
<g clip-path="url(#clip0_1758_4989)">
<path d="M21 23.0394L17.2734 25.5299C17.0251 25.7645 16.6318 25.7557 16.3967 25.508C16.1594 25.2602 16.1704 24.8678 16.4187 24.6332L20.4111 21.8862L20.343 18.431C20.3364 18.089 20.6089 17.8062 20.9495 17.7996C21.2922 17.793 21.5757 18.0649 21.5823 18.4047L21.6504 21.9454L25.5791 24.631C25.8274 24.8678 25.8362 25.2581 25.6011 25.5058C25.366 25.7535 24.9727 25.7623 24.7244 25.5277L21 23.0394ZM18.8577 9.77546C18.7786 9.77984 18.7192 9.79958 18.6775 9.82808C18.6511 9.84562 18.6313 9.86754 18.6204 9.89385C18.6072 9.92454 18.6006 9.95962 18.6006 10.0013C18.605 10.124 18.6687 10.2819 18.7917 10.4661L18.7939 10.4683L19.196 11.1084C19.3586 11.3649 19.5278 11.6258 19.7366 11.8188C19.9387 12.0029 20.1848 12.1279 20.5078 12.1279C20.8594 12.1279 21.1165 11.9985 21.3252 11.8034C21.5427 11.6017 21.7141 11.3233 21.8833 11.0448L22.3359 10.2994C22.4304 10.0846 22.459 9.95085 22.426 9.88508C22.4019 9.83685 22.314 9.82369 22.1689 9.83685C22.1426 9.83904 22.1184 9.83246 22.0986 9.8215C22.0767 9.8215 22.0525 9.8215 22.0305 9.81931L22.0459 9.74257C22.0459 9.73819 22.0437 9.736 22.0437 9.73161C22.0415 9.7053 22.0481 9.67899 22.0613 9.65926L22.1646 9.13967C21.334 9.12871 20.7671 8.98401 20.0947 8.5565C19.875 8.41618 19.8069 8.25395 19.5872 8.27149C19.4202 8.30437 19.2795 8.37891 19.1697 8.4973C19.062 8.61131 18.9829 8.76916 18.9302 8.96866L19.0334 9.77984C18.9719 9.793 18.9148 9.793 18.8577 9.77546ZM28.3015 24.357C28.2224 24.3614 28.1631 24.3811 28.1213 24.4096C28.095 24.4271 28.0752 24.4491 28.0642 24.4754C28.051 24.5061 28.0444 24.5411 28.0444 24.5828C28.0488 24.7056 28.1125 24.8634 28.2356 25.0476L28.2378 25.0498L28.6399 25.69C28.8025 25.9465 28.9717 26.2074 29.1804 26.4003C29.3826 26.5844 29.6287 26.7094 29.9517 26.7094C30.3032 26.7094 30.5603 26.5801 30.769 26.3849C30.9866 26.1832 31.158 25.9048 31.3271 25.6264L31.7798 24.881C31.8743 24.6661 31.9028 24.5324 31.8699 24.4666C31.8457 24.4184 31.7578 24.4052 31.6128 24.4184C31.5864 24.4206 31.5623 24.414 31.5425 24.403C31.5205 24.403 31.4963 24.403 31.4744 24.4008L31.4897 24.3241C31.4897 24.3197 31.4875 24.3175 31.4875 24.3131C31.4854 24.2868 31.4919 24.2605 31.5051 24.2408L31.6084 23.7212C30.7778 23.7102 30.2109 23.5655 29.5386 23.138C29.3188 22.9977 29.2507 22.8355 29.031 22.853C28.864 22.8859 28.7234 22.9604 28.6135 23.0788C28.5059 23.1928 28.4268 23.3507 28.374 23.5502L28.4773 24.3614C28.4158 24.3745 28.3586 24.3745 28.3015 24.357ZM28.6487 27.3825L29.3694 29.4981L29.7319 28.2419L29.554 28.0468C29.4727 27.9306 29.4573 27.8275 29.5012 27.7398C29.5979 27.5491 29.7957 27.5842 29.9824 27.5842C30.178 27.5842 30.4175 27.5469 30.479 27.7903C30.4988 27.8714 30.4746 27.9569 30.4175 28.0446L30.2395 28.2397L30.6021 29.4959L31.2546 27.3803C31.7249 27.8034 33.1201 27.8889 33.6387 28.1761C33.8035 28.2682 33.9507 28.3844 34.0693 28.5401C34.2495 28.779 34.3616 29.0903 34.3923 29.485L34.5 30.5329C34.4736 30.8114 34.3154 30.9736 34.0012 30.9977H29.9846H25.9021C25.5901 30.9736 25.4297 30.8136 25.4033 30.5329L25.511 29.485C25.5417 29.0903 25.6516 28.779 25.834 28.5401C25.9526 28.3822 26.1021 28.266 26.2646 28.1761C26.7854 27.8911 28.1785 27.8056 28.6487 27.3825ZM31.8853 24.2101C31.9731 24.2364 32.0369 24.289 32.0764 24.3658C32.1423 24.4973 32.1138 24.6946 31.9885 24.9796C31.9863 24.984 31.9841 24.9884 31.9819 24.9928L31.5227 25.747C31.3447 26.0385 31.1667 26.3301 30.925 26.5538C30.6768 26.7861 30.3691 26.9396 29.9517 26.9396C29.5605 26.9396 29.2661 26.7905 29.0244 26.5691C28.7915 26.3564 28.6135 26.0824 28.4443 25.8127L28.0422 25.1747C27.895 24.9555 27.8181 24.7538 27.8137 24.5894C27.8115 24.5126 27.8247 24.4403 27.8533 24.3789C27.884 24.3131 27.9302 24.2605 27.9917 24.2167C28.0203 24.1969 28.0532 24.1794 28.0906 24.1663C28.0642 23.8199 28.0554 23.3836 28.0708 23.0174C28.0796 22.9297 28.0972 22.8442 28.1213 22.7565C28.2246 22.3904 28.4817 22.0944 28.8025 21.8906C28.9146 21.8182 29.0376 21.759 29.1694 21.713C29.9429 21.4345 30.969 21.5858 31.5183 22.18C31.7424 22.4211 31.8831 22.7412 31.9116 23.1643L31.8853 24.2101ZM10.396 24.357C10.3169 24.3614 10.2576 24.3811 10.2158 24.4096C10.1895 24.4271 10.1697 24.4491 10.1587 24.4754C10.1455 24.5061 10.1389 24.5411 10.1389 24.5828C10.1433 24.7056 10.207 24.8634 10.3301 25.0476L10.3323 25.0498L10.7344 25.69C10.897 25.9465 11.0662 26.2074 11.2749 26.4003C11.4771 26.5844 11.7231 26.7094 12.0461 26.7094C12.3977 26.7094 12.6548 26.5801 12.8635 26.3849C13.0811 26.1832 13.2524 25.9048 13.4194 25.6264L13.8743 24.881C13.9688 24.6661 13.9973 24.5324 13.9644 24.4666C13.9402 24.4184 13.8523 24.4052 13.7073 24.4184C13.6809 24.4206 13.6567 24.414 13.637 24.403C13.615 24.403 13.5908 24.403 13.5688 24.4008L13.5842 24.3241C13.5842 24.3197 13.582 24.3175 13.582 24.3131C13.5798 24.2868 13.5864 24.2605 13.5996 24.2408L13.7029 23.7212C12.8723 23.7102 12.3054 23.5655 11.6331 23.138C11.4133 22.9977 11.3452 22.8355 11.1255 22.853C10.9585 22.8859 10.8179 22.9604 10.708 23.0788C10.6003 23.1928 10.5212 23.3507 10.4685 23.5502L10.5718 24.3614C10.5125 24.3745 10.4531 24.3745 10.396 24.357ZM10.7454 27.3825L11.4661 29.4981L11.8286 28.2419L11.6506 28.0468C11.5693 27.9306 11.554 27.8275 11.5979 27.7398C11.6946 27.5491 11.8923 27.5842 12.0791 27.5842C12.2747 27.5842 12.5142 27.5469 12.5757 27.7903C12.5955 27.8714 12.5713 27.9569 12.5142 28.0446L12.3362 28.2397L12.6987 29.4959L13.3513 27.3803C13.8215 27.8034 15.2168 27.8889 15.7354 28.1761C15.9001 28.2682 16.0474 28.3844 16.166 28.5401C16.3462 28.779 16.4583 29.0903 16.489 29.485L16.5967 30.5329C16.5703 30.8114 16.4121 30.9736 16.0979 30.9977H12.0813H7.99878C7.68677 30.9736 7.52637 30.8136 7.5 30.5329L7.60767 29.485C7.63843 29.0903 7.74829 28.779 7.93066 28.5401C8.04932 28.3822 8.19873 28.266 8.36133 28.1761C8.87988 27.8911 10.2729 27.8056 10.7454 27.3825ZM13.9819 24.2101C14.0698 24.2364 14.1335 24.289 14.1731 24.3658C14.239 24.4973 14.2104 24.6946 14.0852 24.9796C14.083 24.984 14.0808 24.9884 14.0786 24.9928L13.6194 25.747C13.4414 26.0385 13.2634 26.3301 13.0217 26.5538C12.7734 26.7861 12.4658 26.9396 12.0483 26.9396C11.6572 26.9396 11.3628 26.7905 11.1211 26.5691C10.8882 26.3564 10.7102 26.0824 10.541 25.8127L10.1389 25.1747C9.9917 24.9555 9.91479 24.7538 9.9104 24.5894C9.9082 24.5126 9.92139 24.4403 9.94995 24.3789C9.98071 24.3131 10.0269 24.2605 10.0884 24.2167C10.1169 24.1969 10.1499 24.1794 10.1873 24.1663C10.1609 23.8199 10.1521 23.3836 10.1675 23.0174C10.1763 22.9297 10.1938 22.8442 10.218 22.7565C10.3213 22.3904 10.5784 22.0944 10.8992 21.8906C11.0112 21.8182 11.1343 21.759 11.2661 21.713C12.0396 21.4345 13.0657 21.5858 13.615 22.18C13.8391 22.4211 13.9797 22.7412 14.0083 23.1643L13.9819 24.2101ZM19.2048 12.8009L19.9255 14.9166L20.2881 13.6604L20.1123 13.4674C20.031 13.3512 20.0156 13.2482 20.0596 13.1605C20.1562 12.9698 20.354 13.0048 20.5408 13.0048C20.7363 13.0048 20.9758 12.9676 21.0374 13.2109C21.0571 13.292 21.033 13.3775 20.9758 13.4652L20.7979 13.6582L21.1604 14.9144L21.813 12.7988C22.2832 13.2219 23.6785 13.3074 24.197 13.5946C24.3618 13.6867 24.509 13.8029 24.6277 13.9585C24.8079 14.1975 24.9199 14.5088 24.9507 14.9034L25.0583 15.9514C25.032 16.232 24.8738 16.3921 24.5596 16.4162H20.543H16.4583C16.1462 16.3921 15.9858 16.232 15.9595 15.9514L16.0693 14.9056C16.1001 14.511 16.21 14.1997 16.3923 13.9607C16.511 13.8029 16.6604 13.6867 16.823 13.5968C17.3416 13.3096 18.7346 13.2241 19.2048 12.8009ZM22.4436 9.62857C22.5315 9.65488 22.5952 9.7075 22.6348 9.78423C22.7007 9.91577 22.6721 10.1131 22.5469 10.3981C22.5447 10.4025 22.5425 10.4069 22.5403 10.4113L22.0789 11.1654C21.9009 11.457 21.7229 11.7486 21.4812 11.9722C21.2329 12.2046 20.9253 12.3581 20.5078 12.3581C20.1167 12.3581 19.8223 12.209 19.5806 11.9876C19.3477 11.7749 19.1697 11.5009 19.0005 11.2312L18.5984 10.5932C18.4512 10.374 18.3743 10.1723 18.3699 10.0079C18.3677 9.93112 18.3809 9.85877 18.4094 9.79738C18.4402 9.73161 18.4863 9.679 18.5479 9.63515C18.5764 9.61542 18.6094 9.59788 18.6467 9.58472C18.6204 9.23833 18.6116 8.80204 18.627 8.43591C18.6357 8.34822 18.6533 8.26272 18.6775 8.17502C18.7808 7.80889 19.0378 7.51292 19.3586 7.30903C19.4707 7.23668 19.5938 7.17749 19.7256 7.13145C20.499 6.85302 21.5251 7.00429 22.0745 7.59842C22.2986 7.83959 22.4392 8.15967 22.4678 8.5828L22.4436 9.62857Z" fill="white"/>
</g>
<defs>
<clipPath id="clip0_1758_4989">
<rect width="27" height="24" fill="white" transform="translate(7.5 7)"/>
</clipPath>
</defs>
</svg>
