<svg width="115" height="115" viewBox="0 0 115 115" fill="none" xmlns="http://www.w3.org/2000/svg">
<rect width="115" height="115" rx="57.5" fill="#2B6FF6"/>
<path d="M42.8574 25.5H72.1426C73.562 25.5 74.9247 26.0691 75.9297 27.083C76.9347 28.097 77.5 29.4733 77.5 30.9092V84.0908C77.5 85.5267 76.9347 86.903 75.9297 87.917C74.9247 88.9309 73.562 89.5 72.1426 89.5H42.8574C41.4381 89.5 40.0753 88.9309 39.0703 87.917C38.0653 86.903 37.5 85.5267 37.5 84.0908V30.9092C37.5 29.4733 38.0653 28.097 39.0703 27.083C40.0753 26.0691 41.4381 25.5 42.8574 25.5ZM42.3574 84.5908H72.6426V30.4092H64.5107L64.373 30.6875L63.0469 33.3633H51.9531L50.627 30.6875L50.4893 30.4092H42.3574V84.5908ZM57.5 75.7275C58.1426 75.7275 58.76 75.9846 59.2158 76.4443C59.6717 76.9043 59.9287 77.5293 59.9287 78.1816C59.9287 78.6679 59.7858 79.1432 59.5186 79.5469C59.2512 79.9506 58.871 80.265 58.4277 80.4502C57.9847 80.6353 57.4974 80.6841 57.0273 80.5898C56.5571 80.4955 56.1241 80.2619 55.7842 79.9189C55.4443 79.576 55.2122 79.1381 55.1182 78.6611C55.0242 78.1843 55.0726 77.6901 55.2568 77.2412C55.4412 76.7922 55.753 76.4088 56.1523 76.1396C56.5516 75.8705 57.0207 75.7275 57.5 75.7275Z" fill="white" stroke="#2B6FF6"/>
<path d="M28.1121 44.5275C29.0866 45.889 26.4558 47.9838 25.9342 48.9189C23.0288 54.1263 22.5072 59.0311 25.3897 64.4401C26.1264 65.8244 28.9173 68.3594 27.9428 69.7254C26.0852 72.3428 22.3379 65.2973 21.798 63.9084C19.6796 58.4306 20.1235 52.5769 23.1981 47.5484C23.8798 46.4299 26.7486 42.6161 28.1167 44.5275H28.1121Z" fill="white"/>
<path d="M86.8878 44.5271C88.2558 42.6156 91.12 46.434 91.8063 47.5479C94.8764 52.5765 95.3202 58.4256 93.2018 63.9079C92.6665 65.2969 88.9147 72.3424 87.057 69.7249C86.1374 68.4277 89.9075 64.3067 90.5389 62.6153C92.3828 57.6646 91.5546 53.3741 89.0702 48.9139C88.5486 47.9788 85.9178 45.884 86.8923 44.5225L86.8878 44.5271Z" fill="white"/>
<path d="M83.0583 48.0272C84.3989 47.6835 86.412 50.6859 86.9382 51.7952C89.2808 56.7459 88.4298 63.9243 83.4243 66.7892L81.887 65.249C85.0715 61.2014 86.4029 57.0117 83.74 52.2445C83.1452 51.1856 80.1575 48.7698 83.0537 48.0272H83.0583Z" fill="white"/>
<path d="M31.214 48.0522C31.7402 47.9147 32.1474 48.0522 32.5272 48.4235L33.1952 49.6062C28.7022 54.5064 28.8715 60.25 33.1128 65.2694L31.5755 66.8096C26.5746 63.9447 25.7236 56.7663 28.0616 51.8156C28.478 50.9401 30.3584 48.2723 31.2095 48.0522H31.214Z" fill="white"/>
</svg>
