<svg width="62" height="62" viewBox="0 0 62 62" fill="none" xmlns="http://www.w3.org/2000/svg">
<rect width="62" height="62" rx="31" fill="#2B6FF6"/>
<path d="M27.7658 29.7404C27.9525 27.7801 28.5126 25.8665 29.4461 24.233C30.9863 21.5726 33.46 20.0324 36.8204 19.9391C37.3805 18.3055 38.9674 17.1387 40.7876 17.1387C43.1213 17.1387 44.9882 19.0056 44.9882 21.3392C44.9882 23.6729 43.1213 25.5398 40.7876 25.5398C38.9674 25.5398 37.4272 24.373 36.8204 22.7394C33.0399 22.8795 30.9863 25.8199 30.5662 29.7404H36.8204C37.3805 28.1068 38.9674 26.94 40.7876 26.94C43.1213 26.94 44.9882 28.8069 44.9882 31.1406C44.9882 33.4742 43.1213 35.3412 40.7876 35.3412C38.9674 35.3412 37.3805 34.1743 36.8204 32.5408H30.5662C30.8929 36.7414 32.8532 39.5884 36.8204 39.5417C37.3805 37.9082 38.9674 36.7414 40.7876 36.7414C43.1213 36.7414 44.9882 38.6083 44.9882 40.9419C44.9882 43.2756 43.1213 45.1425 40.7876 45.1425C38.9674 45.1425 37.3805 43.9757 36.8204 42.3421C33.3666 42.3888 30.8463 40.8019 29.3061 38.0949C28.4193 36.4613 27.9059 34.5477 27.7658 32.5408H25.1522C24.5921 34.1743 23.0052 35.3412 21.1849 35.3412C18.8513 35.3412 16.9844 33.4742 16.9844 31.1406C16.9844 28.8069 18.8513 26.94 21.1849 26.94C23.0052 26.94 24.5921 28.1068 25.1522 29.7404H27.7658ZM40.7876 22.7394C41.5811 22.7394 42.1878 22.1327 42.1878 21.3392C42.1878 20.5458 41.5811 19.9391 40.7876 19.9391C39.9942 19.9391 39.3874 20.5458 39.3874 21.3392C39.3874 22.1327 39.9942 22.7394 40.7876 22.7394ZM40.7876 42.3421C41.5811 42.3421 42.1878 41.7354 42.1878 40.9419C42.1878 40.1485 41.5811 39.5417 40.7876 39.5417C39.9942 39.5417 39.3874 40.1485 39.3874 40.9419C39.3874 41.7354 39.9942 42.3421 40.7876 42.3421ZM40.7876 32.5408C41.5811 32.5408 42.1878 31.934 42.1878 31.1406C42.1878 30.3471 41.5811 29.7404 40.7876 29.7404C39.9942 29.7404 39.3874 30.3471 39.3874 31.1406C39.3874 31.934 39.9942 32.5408 40.7876 32.5408ZM21.1849 32.5408C21.9784 32.5408 22.5851 31.934 22.5851 31.1406C22.5851 30.3471 21.9784 29.7404 21.1849 29.7404C20.3915 29.7404 19.7848 30.3471 19.7848 31.1406C19.7848 31.934 20.3915 32.5408 21.1849 32.5408Z" fill="white"/>
</svg>
