<svg width="62" height="62" viewBox="0 0 62 62" fill="none" xmlns="http://www.w3.org/2000/svg">
<rect width="62" height="62" rx="31" fill="#2B6FF6"/>
<g clip-path="url(#clip0_3247_3320)">
<path d="M19.3333 28.0833C20.1387 28.0833 20.7917 28.7362 20.7917 29.5417V39.75C20.7917 40.5554 20.1387 41.2083 19.3333 41.2083C18.5279 41.2083 17.875 40.5554 17.875 39.75V29.5417C17.875 28.7362 18.5279 28.0833 19.3333 28.0833ZM23.7083 29.5417C24.5137 29.5417 25.1667 30.1946 25.1667 31V39.75C25.1667 40.5554 24.5137 41.2083 23.7083 41.2083C22.9029 41.2083 22.25 40.5554 22.25 39.75V31C22.25 30.1946 22.9029 29.5417 23.7083 29.5417ZM28.0833 23.7083C28.8888 23.7083 29.5417 24.3613 29.5417 25.1667V39.75C29.5417 40.5554 28.8888 41.2083 28.0833 41.2083C27.2779 41.2083 26.625 40.5554 26.625 39.75V25.1667C26.625 24.3613 27.2779 23.7083 28.0833 23.7083ZM35.375 22.25C40.0977 22.25 43.9465 25.9915 44.119 30.672L44.1235 31.0515C46.5978 31.4047 48.5 33.5322 48.5 36.1042C48.5 38.8292 46.3646 41.0554 43.6758 41.2008L43.3958 41.2083H38.2902C37.4849 41.2083 36.8319 40.5554 36.8319 39.75C36.8317 39.0022 37.3946 38.3857 38.12 38.3014L38.2902 38.2917L43.3172 38.2927L43.5183 38.2883C44.672 38.226 45.5833 37.2672 45.5833 36.1042C45.5833 35.081 44.8749 34.2069 43.908 33.9763L43.7114 33.9388L41.1306 33.5705L41.2069 30.965L41.2012 30.7089C41.0542 27.7189 38.6561 25.3208 35.6661 25.1738L35.375 25.1667C34.9843 25.1667 34.6002 25.2048 34.2263 25.2792L33.9152 25.3504V39.7507C33.9152 40.4983 33.3526 41.1143 32.6276 41.1986L32.4576 41.2083C31.6526 41.2083 31 40.5557 30.9999 39.7507L30.9985 23.4214C32.286 22.6764 33.7806 22.25 35.375 22.25ZM14.9583 31C15.7637 31 16.4167 31.6529 16.4167 32.4583V38.2917C16.4167 39.0971 15.7637 39.75 14.9583 39.75C14.1529 39.75 13.5 39.0971 13.5 38.2917V32.4583C13.5 31.6529 14.1529 31 14.9583 31Z" fill="white"/>
</g>
<defs>
<clipPath id="clip0_3247_3320">
<rect width="35" height="35" fill="white" transform="translate(13.5 13.5)"/>
</clipPath>
</defs>
</svg>
