<svg width="62" height="62" viewBox="0 0 62 62" fill="none" xmlns="http://www.w3.org/2000/svg">
<rect width="62" height="62" rx="31" fill="#2B6FF6"/>
<path d="M23.2804 21.822C23.5461 21.547 23.693 21.1786 23.6897 20.7962C23.6864 20.4139 23.533 20.0481 23.2626 19.7777C22.9923 19.5073 22.6265 19.354 22.2441 19.3506C21.8617 19.3473 21.4934 19.4943 21.2183 19.76L15.385 25.5933C15.1116 25.8668 14.958 26.2376 14.958 26.6243C14.958 27.011 15.1116 27.3819 15.385 27.6554L21.2183 33.4887C21.4934 33.7544 21.8617 33.9013 22.2441 33.898C22.6265 33.8947 22.9923 33.7413 23.2626 33.4709C23.533 33.2006 23.6864 32.8348 23.6897 32.4524C23.693 32.07 23.5461 31.7017 23.2804 31.4266L19.9364 28.0827H33.916C34.3028 28.0827 34.6737 27.929 34.9472 27.6555C35.2207 27.382 35.3744 27.0111 35.3744 26.6243C35.3744 26.2376 35.2207 25.8666 34.9472 25.5931C34.6737 25.3196 34.3028 25.166 33.916 25.166H19.9364L23.2804 21.822ZM38.7183 28.51C38.9918 28.2366 39.3627 28.083 39.7494 28.083C40.1361 28.083 40.5069 28.2366 40.7804 28.51L46.6137 34.3433C46.8871 34.6168 47.0407 34.9876 47.0407 35.3743C47.0407 35.761 46.8871 36.1319 46.6137 36.4054L40.7804 42.2387C40.5054 42.5044 40.137 42.6513 39.7546 42.648C39.3722 42.6447 39.0065 42.4913 38.7361 42.2209C38.4657 41.9506 38.3123 41.5848 38.309 41.2024C38.3057 40.82 38.4527 40.4517 38.7183 40.1766L42.0623 36.8327H28.0827C27.6959 36.8327 27.325 36.679 27.0515 36.4055C26.778 36.132 26.6244 35.7611 26.6244 35.3743C26.6244 34.9876 26.778 34.6166 27.0515 34.3431C27.325 34.0696 27.6959 33.916 28.0827 33.916H42.0623L38.7183 30.572C38.4449 30.2986 38.2913 29.9277 38.2913 29.541C38.2913 29.1543 38.4449 28.7834 38.7183 28.51Z" fill="white"/>
</svg>
