<svg width="62" height="62" viewBox="0 0 62 62" fill="none" xmlns="http://www.w3.org/2000/svg">
<rect width="62" height="62" rx="31" fill="#2B6FF6"/>
<rect x="5" y="5" width="52" height="52" rx="26" fill="#2B6FF6"/>
<path d="M43.3762 39.0323C42.4413 39.0345 41.5784 39.3439 40.8843 39.8636L40.8955 39.8558L37.1842 36.483C38.1067 35.2489 38.6613 33.6941 38.6613 32.0089C38.6613 30.1931 38.0178 28.5281 36.9457 27.2288L36.9558 27.2411L41.0553 23.1428C41.7123 23.5826 42.52 23.8448 43.3885 23.8448C45.7252 23.8448 47.6185 21.9514 47.6185 19.6148C47.6185 17.2781 45.7252 15.3848 43.3885 15.3848C41.0519 15.3848 39.1585 17.2781 39.1585 19.6148C39.1585 20.4844 39.4207 21.2921 39.8707 21.9638L39.8605 21.948L35.7622 26.0464C34.474 24.9844 32.8068 24.3398 30.9877 24.3398C29.9335 24.3398 28.9312 24.5558 28.0199 24.9473L28.0694 24.9281L26.9084 22.8199C27.7983 22.0459 28.3574 20.913 28.3574 19.6485C28.3574 17.331 26.4787 15.4534 24.1623 15.4534C21.8459 15.4534 19.9672 17.3321 19.9672 19.6485C19.9672 21.966 21.8459 23.8436 24.1623 23.8436C24.1702 23.8436 24.1792 23.8436 24.187 23.8436C24.6348 23.8369 25.0612 23.7615 25.4605 23.6254L25.4313 23.6344L26.5979 25.7528C24.6213 27.1511 23.3467 29.4259 23.3422 31.9999V32.001C23.3534 32.7851 23.4828 33.5355 23.7134 34.2398L23.6988 34.1869L22.0979 34.8653C21.3318 33.7729 20.0785 33.0686 18.6599 33.0686C16.3469 33.0686 14.4727 34.9429 14.4727 37.2559C14.4727 39.5689 16.3469 41.4431 18.6599 41.4431C20.9729 41.4431 22.8472 39.5689 22.8472 37.2559C22.8472 36.9589 22.8168 36.6698 22.7583 36.3908L22.7628 36.4178L24.3592 35.7405C25.672 38.0951 28.147 39.6611 30.9877 39.6611C32.9339 39.6611 34.7092 38.9254 36.0502 37.7171L36.0434 37.7228L39.766 41.1056C39.3892 41.7176 39.1642 42.4568 39.1597 43.2499C39.1597 45.5798 41.0485 47.4698 43.3784 47.4698C45.7083 47.4698 47.5972 45.5809 47.5972 43.251C47.5972 40.9211 45.7083 39.0323 43.3784 39.0323H43.3762ZM21.6524 19.626C21.6524 18.2276 22.7853 17.0948 24.1837 17.0948C25.582 17.0948 26.7149 18.2276 26.7149 19.626C26.7149 21.0244 25.582 22.1573 24.1837 22.1573C22.7864 22.155 21.6547 21.0233 21.6524 19.626ZM18.6262 39.786C17.2289 39.7849 16.0972 38.6531 16.0972 37.2559C16.0972 35.8586 17.23 34.7258 18.6273 34.7258C20.0245 34.7258 21.1563 35.8575 21.1574 37.2548C21.1552 38.652 20.0234 39.7838 18.6262 39.786ZM43.3762 17.0948C44.7745 17.0948 45.9074 18.2276 45.9074 19.626C45.9074 21.0244 44.7745 22.1573 43.3762 22.1573C41.9778 22.1573 40.8449 21.0244 40.8449 19.626C40.8472 18.2288 41.9789 17.097 43.3762 17.0948ZM25.0274 32.001C25.0274 32.001 25.0274 32.001 25.0274 31.9999C25.0274 28.7014 27.7015 26.0273 31 26.0273C34.2985 26.0273 36.9727 28.7014 36.9727 31.9999C36.9727 35.2984 34.2985 37.9725 31 37.9725C27.7027 37.9691 25.0319 35.2973 25.0274 32.001ZM43.3762 45.7823C41.9778 45.7823 40.8449 44.6494 40.8449 43.251C40.8449 41.8526 41.9778 40.7198 43.3762 40.7198C44.7745 40.7198 45.9074 41.8526 45.9074 43.251C45.9052 44.6483 44.7734 45.78 43.3762 45.7823Z" fill="white" stroke="white"/>
</svg>
