<svg width="52" height="52" viewBox="0 0 52 52" fill="none" xmlns="http://www.w3.org/2000/svg">
<rect width="52" height="52" rx="26" fill="#2B6FF6"/>
<path d="M25.9998 27.1667L32.9998 37.6667H18.9998L25.9998 27.1667ZM25.9998 31.3667L23.3632 35.3333H28.6365L25.9998 31.3667ZM24.7624 24.3207C24.079 23.6373 24.079 22.5293 24.7624 21.8459C25.4458 21.1625 26.5539 21.1625 27.2373 21.8459C27.9206 22.5293 27.9206 23.6373 27.2373 24.3207C26.5539 25.0041 25.4458 25.0041 24.7624 24.3207ZM18.1627 15.2462L19.8127 16.8961C16.3956 20.3132 16.3956 25.8535 19.8127 29.2705L18.1627 30.9204C13.8344 26.5921 13.8344 19.5745 18.1627 15.2462ZM33.8369 15.2462C38.1653 19.5745 38.1653 26.5921 33.8369 30.9204L32.187 29.2705C35.6041 25.8535 35.6041 20.3132 32.187 16.8961L33.8369 15.2462ZM21.4626 18.5461L23.1125 20.196C21.5178 21.7906 21.5178 24.376 23.1125 25.9707L21.4626 27.6206C18.9567 25.1147 18.9567 21.0519 21.4626 18.5461ZM30.5371 18.5461C33.043 21.0519 33.043 25.1147 30.5371 27.6206L28.8872 25.9707C30.4818 24.376 30.4818 21.7906 28.8872 20.196L30.5371 18.5461Z" fill="white"/>
</svg>
