<svg width="52" height="52" viewBox="0 0 52 52" fill="none" xmlns="http://www.w3.org/2000/svg">
<rect width="52" height="52" rx="26" fill="#2B6FF6"/>
<path d="M26 17C30.2844 17 34.2191 18.4968 37.3099 20.9961L26 35L14.6895 20.9967C17.7803 18.4971 21.7153 17 26 17ZM26 26C24.5795 26 23.2359 26.3291 22.0412 26.9152L26 31.8169L29.9584 26.915C28.7638 26.329 27.4204 26 26 26ZM26 19C22.9725 19 20.0774 19.8418 17.5795 21.3918L20.758 25.327C22.3164 24.4807 24.1021 24 26 24C27.8978 24 29.6833 24.4806 31.2415 25.3267L34.4199 21.3913C31.9221 19.8417 29.0273 19 26 19Z" fill="white"/>
</svg>
