<svg width="52" height="52" viewBox="0 0 52 52" fill="none" xmlns="http://www.w3.org/2000/svg">
<rect width="52" height="52" rx="26" fill="#2B6FF6"/>
<path d="M28.6046 12.022L26.3486 23.878L34.5226 23.905L23.3956 39.977L25.6526 26.934L17.4786 26.905L28.6046 12.022ZM28.6056 10.023C28.5516 10.023 28.4976 10.025 28.4446 10.029C28.0916 10.057 27.8576 10.176 27.5806 10.362C27.4266 10.464 27.2856 10.59 27.1616 10.735C27.1246 10.778 27.0906 10.823 27.0586 10.869L15.8516 25.701C15.4096 26.308 15.3436 27.108 15.6836 27.777C16.0236 28.446 16.7096 28.87 17.4626 28.876L23.2356 28.918L21.4206 39.612C21.2486 40.531 21.7386 41.447 22.6006 41.816C22.8576 41.926 23.1276 41.979 23.3936 41.979C24.0226 41.979 24.5386 41.685 24.9266 41.154L36.1466 25.082C36.5886 24.475 36.6536 23.674 36.3146 23.006C35.9746 22.337 35.2886 21.913 34.5356 21.908L28.7626 21.898L30.5586 12.496C30.5966 12.345 30.6156 12.188 30.6156 12.026C30.6156 10.944 29.7546 10.062 28.6766 10.027C28.6526 10.026 28.6296 10.026 28.6056 10.026V10.023Z" fill="white"/>
</svg>
