<svg width="62" height="62" viewBox="0 0 62 62" fill="none" xmlns="http://www.w3.org/2000/svg">
<rect width="62" height="62" rx="31" fill="#2B6FF6"/>
<path fill-rule="evenodd" clip-rule="evenodd" d="M32.4169 17.2292V18.7928C32.4169 19.5752 31.7826 20.2094 31.0003 20.2094C30.2179 20.2094 29.5836 19.5752 29.5836 18.7928V17.2292C23.0697 17.8913 17.8913 23.0698 17.2292 29.5836H18.7928C19.5752 29.5836 20.2094 30.218 20.2094 31.0003C20.2094 31.7826 19.5752 32.417 18.7928 32.417H17.2292C17.8913 38.9308 23.0698 44.1091 29.5836 44.7713V43.2076C29.5836 42.4253 30.2179 41.791 31.0003 41.791C31.7826 41.791 32.4169 42.4253 32.4169 43.2076V44.7713C38.9308 44.1093 44.1092 38.9308 44.7714 32.417H43.2078C42.4254 32.417 41.7911 31.7826 41.7911 31.0003C41.7911 30.218 42.4254 29.5836 43.2078 29.5836H44.7714C44.1092 23.0697 38.9308 17.8913 32.4169 17.2292ZM31.0003 14.3242C21.7904 14.3242 14.3242 21.7904 14.3242 31.0003C14.3242 40.2101 21.7904 47.6763 31.0003 47.6763C40.2103 47.6763 47.6763 40.2101 47.6763 31.0003C47.6763 21.7904 40.2103 14.3242 31.0003 14.3242ZM31.0003 26.4225L28.4698 31.4836C27.5291 33.3648 28.8971 35.5781 31.0003 35.5781C33.1034 35.5781 34.4714 33.3648 33.5308 31.4836L31.0003 26.4225Z" fill="white" stroke="white"/>
</svg>
