<svg width="52" height="52" viewBox="0 0 52 52" fill="none" xmlns="http://www.w3.org/2000/svg">
<rect width="52" height="52" rx="26" fill="#2B6FF6"/>
<path d="M24.833 28.3333V24.8333H27.1663V28.3333H32.9996C33.644 28.3333 34.1663 28.8556 34.1663 29.5V36.5C34.1663 37.1443 33.644 37.6666 32.9996 37.6666H18.9997C18.3554 37.6666 17.833 37.1443 17.833 36.5V29.5C17.833 28.8556 18.3554 28.3333 18.9997 28.3333H24.833ZM14.9287 22.3096C16.4729 17.6749 20.8461 14.3333 25.9996 14.3333C31.1534 14.3333 35.5265 17.6749 37.0707 22.3096L34.8565 23.0477C33.6211 19.3399 30.1226 16.6666 25.9996 16.6666C21.8768 16.6666 18.3783 19.3399 17.1429 23.0477L14.9287 22.3096ZM19.3571 23.7858C20.2836 21.0049 22.9075 19 25.9996 19C29.0919 19 31.7157 21.0049 32.6423 23.7858L30.4281 24.5238C29.8104 22.67 28.0611 21.3333 25.9996 21.3333C23.9382 21.3333 22.189 22.67 21.5713 24.5238L19.3571 23.7858ZM20.1664 30.6666V35.3333H31.833V30.6666H20.1664Z" fill="white"/>
</svg>
