<svg width="52" height="52" viewBox="0 0 52 52" fill="none" xmlns="http://www.w3.org/2000/svg">
<rect width="52" height="52" rx="26" fill="#2B6FF6"/>
<path d="M28.3333 36.5C27.689 36.5 27.1667 35.9777 27.1667 35.3333V26C27.1667 25.3556 27.689 24.8333 28.3333 24.8333H35.3333C35.9777 24.8333 36.5 25.3556 36.5 26V35.3333C36.5 35.9777 35.9777 36.5 35.3333 36.5H28.3333ZM16.6667 27.1667C16.0223 27.1667 15.5 26.6444 15.5 26V16.6667C15.5 16.0223 16.0223 15.5 16.6667 15.5H23.6667C24.311 15.5 24.8333 16.0223 24.8333 16.6667V26C24.8333 26.6444 24.311 27.1667 23.6667 27.1667H16.6667ZM22.5 24.8333V17.8333H17.8333V24.8333H22.5ZM16.6667 36.5C16.0223 36.5 15.5 35.9777 15.5 35.3333V30.6667C15.5 30.0223 16.0223 29.5 16.6667 29.5H23.6667C24.311 29.5 24.8333 30.0223 24.8333 30.6667V35.3333C24.8333 35.9777 24.311 36.5 23.6667 36.5H16.6667ZM17.8333 34.1667H22.5V31.8333H17.8333V34.1667ZM29.5 34.1667H34.1667V27.1667H29.5V34.1667ZM27.1667 16.6667C27.1667 16.0223 27.689 15.5 28.3333 15.5H35.3333C35.9777 15.5 36.5 16.0223 36.5 16.6667V21.3333C36.5 21.9777 35.9777 22.5 35.3333 22.5H28.3333C27.689 22.5 27.1667 21.9777 27.1667 21.3333V16.6667ZM29.5 17.8333V20.1667H34.1667V17.8333H29.5Z" fill="white"/>
</svg>
