<svg width="115" height="115" viewBox="0 0 115 115" fill="none" xmlns="http://www.w3.org/2000/svg">
<rect width="115" height="115" rx="57.5" fill="#2B6FF6"/>
<g clip-path="url(#clip0_1776_5293)">
<path d="M73.4729 30.4223L83.4618 64.357C83.2059 65.0035 82.6612 65.1565 82.0518 64.8318L71.4262 57.3955C69.667 58.0694 61.3022 65.2416 60.1539 64.9386C59.9067 64.8736 59.7011 64.6326 59.5474 64.4277L69.6038 30.9938C69.6153 30.4064 68.0199 29.3804 67.6362 28.4784C66.2694 25.2675 68.8133 22.1489 72.1865 22.553C76.0714 23.0191 77.1522 28.7699 73.4729 30.4208V30.4223ZM71.4004 24.2847C68.1522 24.3699 68.5474 29.275 71.3989 29.301C74.798 29.3313 74.8368 24.1938 71.4004 24.2847ZM71.8057 31.1828C71.1158 31.0746 71.3874 31.2449 71.2437 31.5623C70.9117 32.2983 68.8938 38.7736 68.9484 39.1675L71.4435 41.4332C72.211 40.8545 73.973 39.8415 73.9788 38.8977C73.9903 36.9567 71.8172 33.3763 71.8057 31.1828ZM69.9229 42.2717L68.3117 41.1864L67.2338 44.9703C67.6621 44.6759 70.298 42.7941 69.9214 42.2717H69.9229ZM75.8443 44.9703L74.637 41.1864L72.8908 42.6728L75.8443 44.9703ZM77.4066 50.8625C78.6642 48.6978 72.9052 45.1723 71.6346 43.9096C69.2876 45.7712 66.0552 47.3067 65.4113 50.5219L71.4535 54.9277L77.4066 50.8611V50.8625ZM69.9243 56.3189L69.0936 55.4011L64.812 52.5408L62.1186 61.7306L69.9243 56.3189ZM78.269 52.5394L73.4944 55.7128L73.1567 56.1861L80.9609 61.7306L78.269 52.5394Z" fill="white"/>
<path d="M64.25 19.3131C64.8235 20.1155 63.2741 21.3508 62.968 21.9021C61.4905 24.5574 60.9616 27.2733 62.1775 30.1783C62.6101 31.2116 64.7114 33.3835 64.1523 34.1743C63.1965 35.525 61.2131 32.2665 60.8481 31.5146C59.2053 28.1334 59.3576 24.2904 61.3583 21.0968C61.7535 20.4662 63.4394 18.1774 64.2515 19.3146L64.25 19.3131Z" fill="white"/>
<path d="M79.2422 19.0332C80.2468 18.736 81.789 21.1777 82.1843 21.9815C83.7422 25.165 83.61 28.9099 81.914 32.0025C81.5576 32.6533 79.406 35.7979 78.8283 33.9868C78.5839 33.2176 80.7024 30.7585 81.0891 29.5535C81.9543 26.8664 81.4829 24.1072 80.0025 21.7376C79.7481 21.3307 77.6799 19.495 79.2422 19.0318V19.0332Z" fill="white"/>
<path d="M65.427 31.9086C62.6531 29.6126 62.8112 22.8791 66.2894 21.1733L67.1934 22.0811C65.5751 24.1447 64.6495 26.4811 65.6886 29.0845C65.966 29.7786 67.3012 30.9937 67.1934 31.5493C67.0439 32.3228 66.022 32.3993 65.4285 31.9072L65.427 31.9086Z" fill="white"/>
<path d="M76.5728 21.2095C77.6594 20.931 79.0133 23.7826 79.272 24.6354C79.8325 26.4884 79.6845 28.2605 78.8566 30.0154C78.3306 31.1323 76.6188 33.5192 75.8384 31.3185C77.6234 29.2289 78.4527 26.9141 77.2397 24.2444C76.8761 23.4463 74.8222 21.6597 76.5743 21.2109L76.5728 21.2095Z" fill="white"/>
<path d="M39.8213 40.6352C40.0283 39.169 41.2859 38.1285 42.7504 38.2699C44.9926 38.4864 45.3303 40.6669 45.5675 42.5141L45.7141 52.3965C47.9849 51.675 49.918 49.2203 50.8134 47.0556C51.7088 44.8909 51.591 41.9326 54.9196 42.6483C57.6878 43.2443 56.8973 46.8564 56.2433 48.757C54.8636 52.7703 51.6815 55.9423 47.8642 57.661C47.1915 57.9641 46.3666 58.0622 45.8563 58.5312V63.3656C47.4143 63.0972 49.0183 62.0452 50.1695 60.9859C51.1454 60.0883 52.3656 58.0333 54.0429 59.1142C56.0048 60.3784 53.5313 64.2286 52.4634 65.4538C50.7976 67.363 48.5397 68.5276 46.0619 68.9836L46.2875 76.7144L46.5031 77.0708L59.9299 69.4858C63.3951 67.1163 65.9304 63.6138 70.2853 62.7104C77.7877 61.1548 79.58 67.4857 83.5166 72.0921C85.2945 74.1731 87.6472 76.3089 90.0273 77.6769C91.1182 78.3032 94.1005 79.3033 94.7243 80.0306C95.4343 80.859 94.651 81.9009 93.6535 81.8432C86.3595 80.7926 78.926 79.1994 71.5127 79.8185C65.7924 80.2962 60.2935 81.8302 54.911 83.7149C54.924 83.9213 55.1324 83.9357 55.266 84.0064C59.8566 86.4135 62.882 88.0832 66.8416 91.577C67.2857 91.9681 69.6572 94.0981 69.7822 94.3954C70.2508 95.4993 69.3338 96.4706 68.2832 95.7577C62.3948 89.9621 55.3508 84.6977 46.8624 83.8592V88.2607C46.8624 88.4844 46.0576 89.2305 45.8147 89.3733C44.422 90.1945 41.204 90.131 39.863 89.2276C38.374 88.2246 39.4405 85.7742 39.028 84.2907C32.7774 85.4539 26.9062 87.9836 21.2866 90.8698C19.5935 91.0574 19.697 89.6923 20.8583 88.848C21.9017 88.089 24.1122 87.1351 25.3511 86.5766C29.7002 84.6168 34.4906 82.9183 39.2263 82.253L39.6776 73.4688H34.7191C28.9198 73.4688 28.1724 65.9199 29.2561 61.6339C29.7448 59.6987 31.4048 58.7578 33.2301 59.8112C35.7683 61.276 34.4546 67.2678 35.2164 67.7743L39.8213 67.985V40.6381V40.6352ZM52.4677 61.6324C50.9255 62.9731 49.4624 64.4162 47.4704 65.0555C45.6436 65.6414 44.0655 66.1523 43.8485 63.7235C43.722 62.3107 43.6703 58.8862 43.8586 57.534C44.0454 56.1962 45.6623 56.3752 46.7589 55.9726C49.3719 55.0143 51.8396 52.7472 53.2481 50.3661C53.8805 49.2967 55.3221 46.1955 54.8363 45.041C54.6767 44.66 53.9782 44.3988 53.6879 44.7481C53.4968 44.979 53.0929 46.7727 52.9017 47.2778C51.7002 50.4599 49.448 53.17 46.2415 54.4443C45.086 54.9032 43.8887 55.3015 43.7005 53.6246C43.2966 50.0371 43.9721 45.5187 43.5409 41.9513C43.4705 41.3726 43.1601 40.2629 42.4788 40.2614C41.947 40.2412 41.8263 40.7607 41.8263 41.2067L41.7573 69.4223C41.3276 70.4614 38.7937 69.8942 37.8854 69.8524C35.7367 69.7557 33.3207 70.3286 32.9613 67.4366C32.7788 65.9661 33.1137 63.3757 32.5618 62.0654C32.0099 60.755 31.1878 61.3482 31.0527 62.569C30.8658 64.2618 30.9578 67.9518 31.6247 69.5003C31.7526 69.7961 32.1938 70.5234 32.4166 70.7255C33.9559 72.1137 38.7879 71.1194 40.8892 71.4542C41.8967 71.6144 41.7199 72.73 41.6941 73.5439C41.592 76.8515 41.2025 80.1966 41.1077 83.4898C41.0804 84.461 40.9596 86.5463 41.1134 87.392C41.1551 87.62 41.2327 87.6964 41.4354 87.7902C42.0016 88.0543 44.7065 88.0428 44.8517 87.2476C44.9796 86.5506 44.8804 84.8694 44.8575 84.067C44.718 79.2211 44.1259 74.339 43.9836 69.5032C43.9592 68.7008 43.7709 67.4467 44.6246 67.1047C46.3982 66.9012 47.8886 66.5332 49.3546 65.5043C50.6165 64.6197 51.9675 63.1044 52.4677 61.6324ZM87.9692 78.664C83.3283 76.0491 80.8304 71.4441 77.6167 67.4828C75.9768 65.4625 74.5755 64.3383 71.8044 64.5215C67.2426 64.8217 64.7605 68.7802 61.2263 71.0733C57.2264 73.668 52.2507 76.2742 48.0223 78.5962C47.7046 78.7708 46.8998 78.9599 46.7201 79.1648C46.3738 79.5602 46.6871 81.1534 46.5692 81.7523L51.9503 82.6961C63.2542 77.7982 75.7957 76.5484 87.8973 78.9526L87.9706 78.664H87.9692Z" fill="white"/>
<path d="M74.1286 66.4409C74.5799 66.8449 75.4796 69.5796 75.9812 70.4253C76.1767 70.7543 76.4426 71.1584 76.6869 71.4484C77.1871 72.0416 78.5682 72.818 78.3182 73.6535C76.4253 75.557 74.3341 71.6736 73.6184 70.2002C73.2907 69.5262 72.3306 67.3846 72.4484 66.7627C72.5922 66.0036 73.6155 65.9834 74.1286 66.4423V66.4409Z" fill="white"/>
</g>
<defs>
<clipPath id="clip0_1776_5293">
<rect width="75" height="77" fill="white" transform="translate(20 19)"/>
</clipPath>
</defs>
</svg>
