<svg width="42" height="42" viewBox="0 0 42 42" fill="none" xmlns="http://www.w3.org/2000/svg">
<rect width="42" height="42" rx="21" fill="#3E4D6E"/>
<g clip-path="url(#clip0_1758_5064)">
<path d="M11.3298 13.7036L16.0595 18.5173L22.6208 16.5178C22.6437 16.5114 22.6666 16.5051 22.6894 16.503C22.7726 16.3527 22.8745 16.2152 22.995 16.0925C23.3277 15.7539 23.7851 15.5466 24.2903 15.5466C24.7955 15.5466 25.2549 15.7561 25.5855 16.0925C25.9181 16.431 26.1219 16.8965 26.1219 17.4107C26.1219 17.9248 25.916 18.3924 25.5855 18.7289C25.4503 18.8664 25.2944 18.9828 25.1239 19.0716L23.3464 25.9292L28.0013 30.6667C28.2341 30.9037 28.2341 31.2888 28.0013 31.5257C27.9202 31.6083 27.8225 31.6612 27.7206 31.6866C24.7061 32.6366 21.8661 32.5139 19.3651 31.6633L20.1156 34.3907C20.1323 34.4372 20.1406 34.4901 20.1406 34.543C20.1406 34.7948 19.9389 35 19.6915 35H12.336C12.3007 35 12.2653 34.9958 12.23 34.9873C11.9909 34.9281 11.8433 34.6805 11.9036 34.4372L13.5148 27.806C13.3589 27.6367 13.205 27.4654 13.0574 27.2897C11.7019 25.6859 10.6832 23.8218 10.0907 21.8942C9.25908 19.1838 9.26947 16.34 10.3651 13.8856C10.5002 13.5809 10.8537 13.4434 11.153 13.5809C11.2217 13.6105 11.2799 13.6529 11.3298 13.7036ZM18.3235 31.2613C18.2362 31.2232 18.1489 31.1851 18.0637 31.1449C16.6499 30.4911 15.3693 29.6024 14.2528 28.5508L12.9077 34.0881H19.1011L18.3235 31.2613ZM24.8017 9.90563C24.5564 9.86966 24.388 9.63903 24.4212 9.39147C24.4566 9.14179 24.6832 8.97041 24.9264 9.00426C27.0574 9.31318 28.8599 10.0008 30.1801 11.2386C31.5106 12.4891 32.3381 14.2792 32.4982 16.778C32.5127 17.0298 32.3256 17.2456 32.0803 17.2604C31.8329 17.2753 31.6208 17.0848 31.6063 16.8352C31.4628 14.5902 30.7393 12.9991 29.5751 11.9073C28.4004 10.807 26.7601 10.1892 24.8017 9.90563ZM24.9223 12.1739C24.679 12.1337 24.5127 11.8988 24.5522 11.6512C24.5917 11.4037 24.8225 11.2344 25.0657 11.2746C26.519 11.5201 27.7456 12.03 28.6499 12.9144C29.5626 13.8094 30.1302 15.0642 30.2508 16.7928C30.2674 17.0446 30.0824 17.2604 29.835 17.2795C29.5876 17.2964 29.3755 17.1081 29.3568 16.8563C29.2528 15.371 28.7809 14.3067 28.0283 13.5682C27.2674 12.8256 26.2009 12.3897 24.9223 12.1739ZM24.8911 14.6156C24.6458 14.5881 24.467 14.3659 24.494 14.1141C24.521 13.8645 24.7393 13.6825 24.9867 13.71C25.8474 13.8052 26.5626 14.0887 27.1011 14.6071C27.6395 15.1255 27.9805 15.864 28.0844 16.8627C28.1115 17.1123 27.9327 17.3366 27.6874 17.3641C27.442 17.3916 27.2217 17.2097 27.1946 16.96C27.1135 16.1898 26.8682 15.6376 26.4836 15.2673C26.099 14.897 25.5564 14.6896 24.8911 14.6156ZM22.4587 17.5165L16.7788 19.2473L19.2882 21.8011L22.7269 18.3882C22.573 18.1322 22.4774 17.836 22.4587 17.5165ZM23.3672 19.023L19.9202 22.4444L22.6125 25.1866L24.1468 19.2727C23.8641 19.2494 23.598 19.1626 23.3672 19.023ZM24.9514 16.7378C24.783 16.5664 24.5481 16.4585 24.2882 16.4585C24.0304 16.4585 23.7955 16.5643 23.625 16.7378C23.4566 16.9092 23.3506 17.1483 23.3506 17.4128C23.3506 17.6752 23.4545 17.9143 23.625 18.0878C23.7934 18.2613 24.0283 18.3671 24.2882 18.3671C24.546 18.3671 24.7809 18.2613 24.9514 18.0878C25.1198 17.9164 25.2258 17.6773 25.2258 17.4128C25.2258 17.1483 25.1198 16.9092 24.9514 16.7378Z" fill="white"/>
</g>
<defs>
<clipPath id="clip0_1758_5064">
<rect width="23" height="26" fill="white" transform="translate(9.5 9)"/>
</clipPath>
</defs>
</svg>
