<svg width="42" height="42" viewBox="0 0 42 42" fill="none" xmlns="http://www.w3.org/2000/svg">
<circle cx="21" cy="21" r="21" fill="#2B6FF6"/>
<path d="M30.4533 23.6329V26.8155C30.4533 28.0887 30.4533 28.7254 30.2055 29.2116C29.9876 29.6394 29.6398 29.9872 29.2121 30.2051C28.7258 30.4529 28.0892 30.4529 26.816 30.4529H23.6333M19.0866 12.2661H15.9039C14.6307 12.2661 13.9941 12.2661 13.5078 12.5139C13.0801 12.7319 12.7323 13.0796 12.5143 13.5074C12.2666 13.9937 12.2666 14.6303 12.2666 15.9035V19.0862M24.77 17.9495L31.59 11.1295M31.59 11.1295H24.77M31.59 11.1295V17.9495M17.9499 24.7695L11.1299 31.5896M11.1299 31.5896H17.9499M11.1299 31.5896V24.7695" stroke="white" stroke-width="2.27335" stroke-linecap="round" stroke-linejoin="round"/>
</svg>
