<svg width="62" height="62" viewBox="0 0 62 62" fill="none" xmlns="http://www.w3.org/2000/svg">
<rect width="62" height="62" rx="31" fill="#2B6FF6"/>
<path d="M19.75 28C20.164 28 20.5 27.664 20.5 27.25V23.0605L27.0948 29.6552C27.241 29.8019 27.433 29.875 27.625 29.875C27.817 29.875 28.009 29.8019 28.1552 29.6552C28.4481 29.3624 28.4481 28.8876 28.1552 28.5948L21.5605 22H25.75C26.164 22 26.5 21.664 26.5 21.25C26.5 20.836 26.164 20.5 25.75 20.5H19.75C19.336 20.5 19 20.836 19 21.25V27.25C19 27.664 19.336 28 19.75 28Z" fill="white"/>
<path d="M19.75 41.4999H25.75C26.164 41.4999 26.5 41.1639 26.5 40.7499C26.5 40.3359 26.164 39.9999 25.75 39.9999H21.5605L28.1552 33.4052C28.4481 33.1123 28.4481 32.6375 28.1552 32.3447C27.8628 32.0518 27.3872 32.0518 27.0948 32.3447L20.5 38.9394V34.7499C20.5 34.3359 20.164 33.9999 19.75 33.9999C19.336 33.9999 19 34.3359 19 34.7499V40.7499C19 41.1639 19.336 41.4999 19.75 41.4999Z" fill="white"/>
<path d="M42.2499 33.9999C41.8359 33.9999 41.4999 34.3359 41.4999 34.7499V38.9394L34.9052 32.3447C34.6127 32.0518 34.1372 32.0518 33.8447 32.3447C33.5518 32.6375 33.5518 33.1123 33.8447 33.4052L40.4394 39.9999H36.2499C35.8359 39.9999 35.4999 40.3359 35.4999 40.7499C35.4999 41.1639 35.8359 41.4999 36.2499 41.4999H42.2499C42.6639 41.4999 42.9999 41.1639 42.9999 40.7499V34.7499C42.9999 34.3359 42.6639 33.9999 42.2499 33.9999Z" fill="white"/>
<path d="M42.2499 20.5H36.2499C35.8359 20.5 35.4999 20.836 35.4999 21.25C35.4999 21.664 35.8359 22 36.2499 22H40.4394L33.8447 28.5948C33.5518 28.8876 33.5518 29.3624 33.8447 29.6552C33.9909 29.8019 34.1829 29.875 34.3749 29.875C34.5669 29.875 34.7589 29.8019 34.9052 29.6552L41.4999 23.0605V27.25C41.4999 27.664 41.8359 28 42.2499 28C42.6639 28 42.9999 27.664 42.9999 27.25V21.25C42.9999 20.836 42.6639 20.5 42.2499 20.5Z" fill="white"/>
</svg>
