<svg width="300" height="108" viewBox="0 0 255 92" fill="none" xmlns="http://www.w3.org/2000/svg">
    <g clip-path="url(#clip0_3014_3316)">
    <path d="M180.296 8.29155e-06C181.202 0.969332 181.016 2.2732 180.693 3.45483C179.586 7.51441 177.094 11.7777 175.437 15.6593C171.699 24.409 168.976 33.5961 165.804 42.5623L165.921 42.7832H169.769C169.846 42.7832 170.085 42.6417 170.224 42.6503C170.833 41.014 172.992 38.5649 174.636 38.0138C176.497 37.3919 176.889 39.1869 177.699 39.3284C177.919 39.367 178.404 38.7387 178.703 39.2083C179.094 39.8195 177.895 42.7403 177.84 43.6946C177.823 43.997 178.333 43.8448 178.487 43.8062C180.633 43.2829 183.22 39.693 184.949 38.387C186.841 36.9608 187.537 39.6308 186.958 40.9325C186.67 41.5823 186.037 40.6451 185.804 40.6387C185.169 40.6215 182.957 43.5638 183.765 44.2887C185.069 45.4617 188.414 42.6374 189.384 41.7646C192.522 38.9381 195.204 35.627 197.442 32.0499C199.075 29.44 200.428 26.4913 202.098 23.9608C202.412 23.4847 203.1 22.2387 203.765 22.7234C204.24 23.0686 203.893 23.7699 203.722 24.1988C202.985 26.0624 201.512 28.194 200.548 30.0212C199.349 32.2901 198.144 34.5761 197.021 36.8836C196.701 37.542 194.198 42.6374 194.407 42.8904L200.223 38.4963C200.356 38.5864 200.439 38.7408 200.473 38.8931C200.809 40.3771 199.388 42.1249 199.693 43.6432C199.986 44.2351 202 43.6668 202.495 43.448C203.536 42.9891 203.222 42.4058 203.408 41.5759C203.643 40.5208 204.688 39.0753 205.625 38.5456C206.478 38.061 207.602 37.5356 207.929 38.8137C208.435 40.7931 205.99 42.2664 205.3 43.6882C205.236 43.819 205.165 43.907 205.201 44.0699C208.202 43.7697 211.169 41.7388 213.431 39.8366C213.939 39.4099 214.814 38.0288 215.442 38.8866C216.254 39.9953 214.878 41.6745 214.711 42.7832C216.203 41.9104 217.27 40.3856 218.614 39.3541C219.042 39.026 219.495 38.6379 219.888 39.2491C220.536 40.257 219.505 41.7195 219.627 42.7811C219.931 43.1242 224.052 40.0318 224.578 39.7616C226.871 38.5821 225.212 41.7153 225.824 42.6224C226.51 43.6389 230.12 44.1257 231.341 44.2694C238.2 45.0821 245.544 44.7412 252.484 45.0371C253.322 45.0736 254.235 44.8741 255 45.2473V45.7834C254.53 46.1373 253.825 46.1544 253.235 46.2102C248.224 46.6991 242.477 46.4182 237.424 46.3131C234.433 46.2509 228.767 46.6069 226.324 44.9042C225.236 44.145 224.46 43.2014 224.432 41.8139C224.161 41.5673 220.57 44.8398 219.775 44.9235C219.106 44.9921 218.514 44.0699 218.291 43.5274C218.189 43.2786 218.184 42.5516 217.881 42.5795C217.022 42.6546 214.408 45.9078 213.354 46.3045C211.535 44.9663 212.492 43.2057 213.106 41.4944C211.178 42.5688 208.352 45.7084 206.088 45.7427C205.084 45.7577 204.366 44.9985 203.543 44.9835C202.908 44.9706 202.382 45.4767 201.713 45.5582C200.659 45.6891 199.704 45.6247 199.06 44.7047C198.904 44.4838 198.466 43.4823 198.466 43.2636V41.4944L192.518 46.727C191.128 46.1544 191.496 44.8613 191.868 43.7204C192.338 42.275 193.163 40.9368 193.55 39.4571C191.975 41.1684 190.56 43.0727 188.792 44.6018C187.168 46.0064 184.913 47.5033 183.13 45.4639C182.502 44.7455 182.393 44.0699 182.063 43.2143C179.945 45.1594 176.416 47.6427 176.664 42.5688C175.377 43.6882 174.238 45.0779 172.926 46.163C172.498 46.5168 171.667 47.2717 171.107 47.1345C170.16 46.905 169.452 45.1937 169.501 44.2844C168.242 44.4002 166.712 44.1278 165.489 44.278C165.372 44.293 165.252 44.2715 165.173 44.3895C163.01 51.4042 160.926 58.4339 159.122 65.5538C157.393 72.3819 155.497 79.6326 154.163 86.5272C154.084 86.9411 153.763 88.3307 153.791 88.6224C153.812 88.8411 154.062 88.914 154.112 89.1607C154.304 90.1364 153.797 91.1679 153.366 92H152.19C151.675 91.5346 151.13 90.7305 151.113 90.0163C151.091 89.1757 151.72 87.0633 151.942 86.1219C155.11 72.6629 159.363 59.4633 163.251 46.2145C163.318 45.985 163.711 44.6918 163.626 44.6061L146.308 45.0843C145.59 47.2781 144.989 49.5149 144.397 51.7452C143.561 54.8848 142.518 58.479 141.979 61.6529C141.783 62.8088 142.103 63.1798 142.041 64.1813C141.99 64.9898 141.439 66.7182 140.688 67.1128C139.746 67.6082 138.73 66.1371 138.726 65.2492C138.718 63.6151 139.387 61.4041 139.803 59.7893C140.584 56.7548 141.552 53.686 142.499 50.6987C142.715 50.0167 144.164 46.1201 144.016 45.7813C143.79 45.5325 143.29 45.4875 142.952 45.4617C140.075 45.2387 134.379 45.9442 132 44.5482C130.563 43.7054 130.36 41.6724 130.743 40.1905C130.835 39.8302 131.709 38.1017 131.566 37.9623C130.867 38.0117 130.136 38.2669 129.454 38.4684C128.528 38.7408 126.359 39.3327 125.794 40.0511C125.561 40.3492 125.452 40.7588 125.22 41.0826C123.772 43.1113 120.519 45.3331 117.937 45.0371C116.965 44.9256 116.293 44.1557 115.588 43.566C114.479 44.1 113.357 44.8441 112.219 45.3052C111.548 45.5754 110.945 45.9185 110.462 45.1401C109.934 44.2887 110.648 43.4437 110.486 42.6503C110.323 41.8568 109.238 41.044 109.334 40.1069C109.152 40.0704 109.052 40.1991 108.919 40.2784C107.765 40.9775 105.995 42.6352 104.952 43.5896C104.36 44.1321 102.402 46.401 101.791 46.4332C101.07 46.4718 100.705 44.9771 100.949 44.3959C101.139 43.9391 102.077 43.8362 102.171 43.1521C102.272 42.4315 101.695 41.2842 101.367 40.643C100.822 40.5165 97.6355 44.5632 96.0302 44.5546C95.5215 44.5525 94.3737 43.5424 94.3737 43.1607V41.1234C94.3737 41.074 94.6729 40.8403 94.3224 40.8553C93.352 41.8053 92.5098 42.9033 91.4902 43.804C90.7336 44.471 89.6734 45.6118 88.7286 44.6425C86.993 42.8626 89.1326 39.7745 90.4172 38.3312C90.7806 37.9237 92.093 36.5963 92.5568 36.5019C93.0955 36.3925 94.3993 37.7415 94.2711 38.3848C94.7413 38.5821 95.7481 37.5785 96.0324 38.1725C96.368 38.878 95.5023 41.4579 95.4446 42.4101C95.4296 42.6481 95.3762 42.9419 95.6027 43.0985C97.7295 42.0884 99.9119 40.3621 101.483 38.6014C102.248 37.7457 103.595 35.4146 105.035 36.0001C105.649 36.251 105.786 36.9694 105.679 37.557C105.533 38.3419 104.877 38.5842 104.418 39.0796C103.531 40.0382 102.633 41.6724 103.511 42.884C103.864 42.9097 108.216 39.1869 108.804 38.655C109.599 37.9345 110.913 36.2682 111.807 35.8757C112.529 35.5583 113.277 35.9765 113.164 36.8022C112.97 38.2025 111.01 39.5922 110.978 40.7073C110.956 41.4708 111.912 42.5709 112.222 43.2722C112.335 43.3451 113.637 42.7746 113.865 42.6588C114.224 42.4744 115.03 42.0691 115.107 41.6531C115.261 40.8339 115.126 40.3771 115.556 39.53C116.054 38.5435 118.595 36.0687 119.583 37.4905C120.335 38.5735 118.563 40.8553 117.785 41.6573C117.384 42.0712 116.909 42.2728 116.61 42.7275C118.072 43.5681 120.169 43.0256 121.556 42.2235C122.293 41.7967 124.488 40.0189 124.523 39.1869C124.55 38.5521 123.834 38.0953 124.108 37.1732C124.298 36.5319 126.162 36.6992 126.705 36.6692C128.137 36.5877 129.648 36.4569 131.093 36.5577C131.651 36.5963 132.899 36.7464 133.045 37.3898C133.35 38.7558 131.123 41.4215 131.796 42.5023C131.891 42.6546 132.316 42.9012 132.493 42.9827C134.237 43.774 141.052 43.7804 143.172 43.6432C143.467 43.6239 144.446 43.5188 144.643 43.403C144.923 43.24 145.295 42.1956 145.438 41.8418C148.678 33.8556 149.713 24.1774 153.355 16.6522C153.695 15.9488 153.904 15.4877 154.531 16.367C155.582 17.8446 155.061 19.2578 154.646 20.8448C153.069 26.9095 150.166 33.3881 148.133 39.4013C147.691 40.7073 147.233 42.0112 146.962 43.3687L164.168 42.7296C167.544 33.3538 170.459 23.8128 173.783 14.4176C175.183 10.4631 176.628 6.19768 178.195 2.3311C178.528 1.50761 178.87 0.679822 179.449 -0.00213623H180.304L180.296 8.29155e-06ZM116.92 40.6387C117.155 40.8489 118.578 39.2319 118.734 38.9767C118.561 38.7665 118.621 38.8416 118.467 38.9188C117.888 39.2062 117.249 40.0811 116.92 40.6387ZM93.0848 39.1375C92.901 39.0904 92.8711 39.2147 92.7642 39.2984C92.4265 39.56 91.828 40.1926 91.5351 40.5315C91.3492 40.7438 89.9513 42.528 90.0945 42.676C90.5284 42.4937 90.9559 42.1163 91.3193 41.816C91.7382 41.4708 93.2558 40.1969 93.2515 39.7273C93.2515 39.5386 93.0869 39.337 93.0827 39.1375H93.0848ZM204.772 41.9254C205.362 41.8654 207.292 39.6093 207.014 39.2448C206.83 39.352 206.642 39.4807 206.48 39.6179C206.18 39.8731 204.558 41.6466 204.772 41.9254ZM174.916 42.3157C175.14 42.0991 176.378 40.7802 176.343 40.5872C176.2 40.3728 176.185 40.4779 176.044 40.4972C175.198 40.6044 173.714 41.8697 173.139 42.5194C172.676 43.0427 172.066 43.8469 171.855 44.4988C172.073 44.7347 174.655 42.5709 174.916 42.3179V42.3157Z" fill="black"/>
    <path d="M61.131 -5.27436e-05C61.458 0.563957 61.8962 1.33813 61.9774 1.99221C62.11 3.05589 60.7805 5.7344 60.2952 6.82811C57.7132 12.6569 54.7977 18.3635 52.1344 24.1601C44.9098 39.8945 38.3755 56.0041 33.6111 72.6992C32.7411 75.7488 31.7793 79.0685 31.3283 82.2038C31.2642 82.652 31.2706 84.2754 30.9948 84.4448C30.6763 84.6378 30.2916 84.2668 30.1612 83.988C29.7551 83.113 30.3194 79.8984 30.4882 78.7897C32.3607 66.4866 36.6741 54.1985 41.1713 42.6502C44.8862 33.1071 49.2552 23.847 53.1134 14.3704C52.8953 14.5655 52.6645 14.8486 52.4914 15.0845C44.4972 25.9465 37.5804 37.4926 28.9578 47.9815C24.8924 52.9289 16.7636 63.2162 11.0672 54.0333C9.0644 50.8058 9.08791 47.2373 8.75874 43.5895C8.74591 43.4415 8.70744 42.944 8.54713 42.8925C7.13426 46.8535 5.64658 50.823 3.8276 54.6188C3.31674 55.6868 2.73749 56.9456 2.11121 57.9364C2.00006 58.1144 1.66662 58.6827 1.55119 58.7684C0.98904 59.1888 0.243064 58.2452 -0.00488281 57.7948V57.1515C2.91062 49.8923 7.26037 43.1971 9.17768 35.5368C9.81037 33.0127 10.1246 29.8903 11.1356 27.5292C11.3622 27.0016 11.6037 26.7057 12.2471 26.7014C12.8905 26.6971 13.5509 28.6593 13.7882 29.2191C12.6682 35.6655 12.2706 42.1848 12.4929 48.7364C12.5356 50.0123 12.619 52.9482 13.2624 53.969C13.9613 55.0756 15.5495 54.8847 16.6695 54.6338C21.1069 53.6366 27.3782 46.223 30.3429 42.7253C40.9918 30.1648 50.931 15.4662 59.436 1.35957C59.7203 0.887779 60.0537 0.441719 60.3765 -0.00219727H61.1246L61.131 -5.27436e-05Z" fill="black"/>
    <path d="M90.8426 29.8089C95.2757 29.8775 99.7174 29.8367 104.153 29.9118C108.966 29.9933 114.588 29.856 119.322 30.3471C119.502 30.3664 122.261 30.7374 121.727 31.2028C120.079 31.0076 118.412 31.1299 116.753 31.0999C110.454 30.9862 104.148 30.9733 97.845 31.0999C95.218 31.1535 92.5996 31.0613 89.9855 31.3636C88.951 33.3044 87.9891 35.331 87.0807 37.349C84.6953 42.6545 81.9016 49.013 80.3135 54.5781C80.2151 54.9191 79.9351 56.551 79.7684 56.6068L79.4029 56.5639C78.9305 56.2787 79.3238 54.7025 79.435 54.2328C80.322 50.5271 81.9828 46.163 83.2503 42.513C83.7569 41.0569 84.2891 39.605 84.8534 38.1725C84.676 38.2668 84.5072 38.4491 84.3725 38.5993C82.7609 40.3835 79.9586 44.7433 77.5219 45.0221C75.1536 45.2944 75.1344 42.7468 74.9591 41.0612C74.9441 40.9196 74.9057 40.8103 75.0189 40.6902L74.8095 40.6387L69.9959 45.9979C69.8634 46.0858 69.049 45.2473 68.9272 45.0907C68.1598 44.1171 68.551 43.6089 68.5018 42.4615C67.8007 43.1049 67.3091 43.9305 66.5674 44.5417C64.9579 45.8692 63.5792 46.2102 62.6793 43.9606C62.5083 43.5295 62.4741 43.0641 62.2497 42.6781C61.9954 42.6846 59.4753 45.8756 58.4856 46.0815C57.3934 46.311 56.5127 45.2516 56.2627 44.2865C55.7839 42.4379 56.6624 40.9925 57.2801 39.352C56.7008 39.6801 55.2281 39.8795 55.0593 40.6087C54.9524 41.0719 54.9823 41.563 54.8284 42.0927C54.3518 43.7354 51.8915 47.1087 50.0683 47.1881C47.7363 47.2889 46.7659 44.4988 47.0459 42.543C47.249 41.1212 49.4356 36.8386 51.0387 36.785C51.8381 36.7571 52.4473 37.973 52.4473 38.6572C52.4494 39.916 51.5474 39.9031 50.8613 40.5829C50.1751 41.2627 49.4783 42.7661 49.2325 43.6668C48.9867 44.5675 48.9739 44.8098 50.0084 44.4452C51.214 44.0206 53.5395 42.2085 53.4369 40.8038C53.3899 40.1626 52.2378 39.4378 53.0543 38.818C53.7169 38.314 53.9029 38.8373 54.3432 38.9209C55.0037 39.0496 56.1152 38.5971 56.7414 38.3355C57.3677 38.0738 58.0902 37.2868 58.7763 38.0138C60.0032 39.3155 57.7974 42.4358 57.8123 43.967C58.0432 44.2115 59.7574 42.7854 59.999 42.5709C61.2024 41.5137 62.192 40.1111 63.3676 39.0882C64.2482 38.3205 65.2379 37.6321 65.0776 39.5192C64.9835 40.6237 63.949 42.6181 64.0003 43.4888C64.0302 44.0056 64.2953 43.8598 64.6394 43.6903C65.9561 43.0406 68.9699 39.9503 69.8057 38.6872C70.0194 38.3634 70.4768 37.2096 70.7974 37.2117C72.5416 38.2733 71.1779 40.4092 70.9599 41.934C72.5267 40.6773 73.8091 39.0989 75.3973 37.8615C75.8013 37.5484 76.419 36.8708 76.8401 37.3726C77.8276 38.5499 75.9808 41.9469 76.5088 43.388C76.6434 43.4866 76.8059 43.4158 76.9491 43.388C79.5076 42.8926 84.4837 36.4118 86.0697 34.2008C86.2834 33.9027 87.7946 31.8268 87.63 31.6403L86.6104 31.5266C81.0723 31.9662 75.5426 32.4895 70.0408 33.2379C69.7394 33.2208 68.1919 31.3979 68.4377 30.8833C68.7049 30.4951 70.6799 30.7932 71.2292 30.7846C71.4814 30.7803 71.7166 30.6731 71.9688 30.6688C77.4578 30.5594 82.9404 30.3278 88.408 29.8989L88.7907 29.6394C89.7568 27.8016 90.5348 25.8093 91.7575 24.1387C92.0246 24.0916 92.3816 24.8164 92.4457 25.0394C92.9758 26.9116 91.3257 28.1983 90.8383 29.8153L90.8426 29.8089Z" fill="black"/>
    </g>
    <defs>
    <clipPath id="clip0_3014_3316">
    <rect width="255" height="92" fill="white"/>
    </clipPath>
    </defs>
</svg>