<svg width="42" height="42" viewBox="0 0 42 42" fill="none" xmlns="http://www.w3.org/2000/svg">
<rect width="42" height="42" rx="21" fill="#3E4D6E"/>
<g clip-path="url(#clip0_1758_5087)">
<path fill-rule="evenodd" clip-rule="evenodd" d="M34.3631 24.829L34.3489 24.7746C34.1716 24.1265 33.7582 23.6104 33.2308 23.2992C32.9554 23.1365 32.6512 23.0309 32.3358 22.9887C32.0204 22.9464 31.6999 22.9683 31.3928 23.053C30.7474 23.2298 30.2329 23.6575 29.9233 24.2057L29.9224 24.2052C29.6064 24.765 29.5178 25.4291 29.6755 26.055L29.6899 26.1097C29.867 26.7566 30.2811 27.2724 30.8101 27.5846L30.8096 27.5855C31.3571 27.9085 32.0067 27.9991 32.6187 27.8379L32.6728 27.8231C33.3065 27.6417 33.8109 27.2193 34.1153 26.6802C34.4321 26.1202 34.521 25.4554 34.3631 24.829ZM21.8067 16.5188C22.4954 16.5188 23.1562 16.6399 23.7705 16.8618L24.4177 15.3788C23.7635 14.9238 23.2601 14.2373 23.04 13.3972C22.7961 12.4663 22.9447 11.5215 23.3822 10.7468L23.4012 10.7159C23.841 9.95618 24.5594 9.36523 25.4565 9.11961C26.3672 8.87022 27.2914 9.02221 28.0492 9.46951L28.0794 9.48891C28.8225 9.93846 29.4006 10.6728 29.6409 11.5899C29.8848 12.5207 29.7362 13.4656 29.2986 14.2404L29.2797 14.2713C28.8399 15.0309 28.1215 15.6219 27.2244 15.8675C26.6173 16.0346 25.9769 16.0264 25.3742 15.8437L24.7332 17.3126C26.5069 18.3516 27.702 20.3058 27.702 22.5453C27.702 22.9075 27.6708 23.262 27.6109 23.6066L28.8627 23.9473C28.9065 23.851 28.9543 23.7568 29.0062 23.6648V23.6627C29.4515 22.8744 30.1911 22.2596 31.119 22.0053C32.0455 21.7515 32.9862 21.9064 33.7577 22.3617C34.5305 22.8178 35.1326 23.5738 35.381 24.5215L35.3819 24.5251C35.6288 25.4711 35.4772 26.4312 35.0324 27.219C34.5864 28.0088 33.8467 28.6244 32.9198 28.8784L32.9094 28.881C31.9863 29.1309 31.0496 28.9757 30.281 28.5221H30.2789C29.5077 28.0669 28.9064 27.311 28.6577 26.3625L28.6559 26.3555C28.5395 25.9099 28.5095 25.4454 28.5675 24.9881L27.3315 24.6517C26.4958 26.9412 24.3377 28.5718 21.8067 28.5718C18.9219 28.5718 16.521 26.4533 16.0115 23.655L13.3338 23.9727C13.3264 24.5328 13.1865 25.0992 12.9015 25.6222C12.8867 25.656 12.8686 25.6881 12.8473 25.7181C12.3927 26.4974 11.6586 27.0645 10.8012 27.2988C9.96952 27.5264 9.05319 27.4342 8.24413 26.9695C8.21557 26.9554 8.18828 26.9388 8.16257 26.9198C7.37051 26.435 6.83831 25.6735 6.61674 24.8282C6.39391 23.9781 6.48414 23.0412 6.93868 22.2142C6.95024 22.1899 6.9636 22.1661 6.97884 22.1434C7.45162 21.3275 8.20046 20.7788 9.03331 20.5508C9.86564 20.3228 10.7831 20.4158 11.593 20.8826L11.626 20.9006C12.404 21.3598 12.9388 22.0849 13.1833 22.8989L15.9119 22.575L15.9115 22.5453C15.9115 21.0233 16.4635 19.6332 17.3741 18.5726L15.5313 16.4328C15.1929 16.6799 14.8136 16.8627 14.4117 16.9723L14.4048 16.9742C13.4805 17.2252 12.5425 17.0701 11.773 16.6159C11.0003 16.16 10.3981 15.4038 10.1497 14.4564L10.1479 14.4493C9.90229 13.5044 10.054 12.5455 10.4982 11.7587C10.9442 10.9689 11.6839 10.3532 12.611 10.0993C13.5375 9.84547 14.4782 10.0004 15.2497 10.4556C16.0224 10.9116 16.6246 11.6678 16.873 12.6154C17.1212 13.5625 16.9697 14.5242 16.5244 15.3129C16.4539 15.4377 16.3761 15.5581 16.2915 15.6734L18.1434 17.8237C19.1494 17.0069 20.4222 16.5188 21.8067 16.5188ZM15.6073 14.7742C15.7665 14.4926 15.8697 14.1817 15.9111 13.8593C15.9524 13.5369 15.931 13.2093 15.8481 12.8953C15.6749 12.2346 15.2574 11.7086 14.7227 11.3931C14.4473 11.2304 14.1432 11.1248 13.8278 11.0826C13.5124 11.0403 13.1919 11.0622 12.8848 11.1469C12.2384 11.3241 11.724 11.7508 11.4153 12.2975C11.0986 12.8575 11.0097 13.5223 11.1675 14.1488L11.1819 14.2035C11.351 14.826 11.7525 15.3557 12.2999 15.6784C12.8477 16.0022 13.498 16.0931 14.1107 15.9317L14.1644 15.9171C14.7982 15.7357 15.3029 15.3133 15.6073 14.7742ZM28.3816 13.6974C28.5365 13.4235 28.6369 13.1212 28.6772 12.8075C28.7174 12.4939 28.6966 12.1753 28.616 11.8699C28.4501 11.2367 28.0538 10.7307 27.5452 10.422L27.518 10.407C27.2501 10.2486 26.9543 10.1459 26.6476 10.1048C26.3408 10.0636 26.0291 10.0849 25.7303 10.1673C25.111 10.3369 24.6161 10.742 24.314 11.262L24.2993 11.2898C24.1444 11.5636 24.0439 11.866 24.0037 12.1796C23.9635 12.4932 23.9843 12.8119 24.0649 13.1173C24.2308 13.7504 24.6271 14.2564 25.1357 14.5651L25.1629 14.5801C25.4307 14.7385 25.7266 14.8412 26.0333 14.8823C26.3401 14.9235 26.6518 14.9022 26.9506 14.8198C27.5699 14.6502 28.0648 14.2451 28.3669 13.7251L28.3816 13.6974ZM8.7398 26.0113C9.30229 26.3434 9.94443 26.4106 10.5273 26.251C11.1106 26.0913 11.6339 25.7052 11.9582 25.1308L11.9593 25.1288C12.2835 24.5536 12.3489 23.8972 12.1927 23.301C12.0367 22.7054 11.6582 22.1706 11.0947 21.8381L11.07 21.8225C10.5135 21.5037 9.88167 21.4411 9.30711 21.5985C8.7245 21.7579 8.20143 22.1449 7.87614 22.7209L7.87523 22.7225C7.55119 23.2971 7.48555 23.9529 7.64165 24.5483C7.79792 25.1446 8.17566 25.6796 8.73747 26.0111L8.7398 26.0113ZM23.7332 19.1836C23.649 19.1248 23.5533 19.0985 23.4566 19.1185C23.3601 19.1374 23.2768 19.19 23.2191 19.2752L22.8912 19.7481C22.6697 19.6466 22.387 19.5804 22.1468 19.5451L22.044 18.9273C22.0246 18.823 21.9731 18.7442 21.896 18.6844C21.8127 18.6256 21.7232 18.6056 21.6204 18.6256L20.8626 18.7633C20.766 18.7832 20.6889 18.8294 20.6252 18.9146C20.5675 18.9997 20.5418 19.0921 20.5604 19.1973L20.657 19.7617C20.4239 19.8613 20.1926 20.0063 19.9959 20.1684L19.4819 19.807C19.3985 19.7481 19.309 19.7218 19.2124 19.7418C19.1158 19.7617 19.0325 19.8142 18.9749 19.8994L18.538 20.5363C18.4804 20.6215 18.4547 20.7193 18.4742 20.8181C18.4928 20.9231 18.5442 21.002 18.6284 21.0609L19.0902 21.3961C18.9927 21.6207 18.9262 21.9134 18.8916 22.1571L18.288 22.2622C18.1852 22.2821 18.1082 22.3347 18.0496 22.4135C17.9921 22.4987 17.9735 22.5901 17.9921 22.6952L18.1268 23.4699C18.1463 23.5687 18.1915 23.6475 18.2748 23.7126C18.3581 23.7725 18.4485 23.7987 18.5513 23.7788L19.1034 23.6801C19.2053 23.9274 19.3445 24.1494 19.5013 24.3632L19.1478 24.8815C19.0902 24.9666 19.0645 25.0589 19.084 25.1568C19.1034 25.2556 19.1548 25.3407 19.2381 25.3996L19.8674 25.8526C19.9069 25.8814 19.9517 25.9015 19.9992 25.9118C20.0466 25.9221 20.0955 25.9223 20.143 25.9124C20.2396 25.8925 20.3229 25.8463 20.3875 25.7612L20.7146 25.2818C20.9397 25.3833 21.2163 25.4477 21.4599 25.4857L21.5628 26.1026C21.5814 26.2078 21.6328 26.2866 21.7099 26.3455C21.794 26.4043 21.8836 26.4243 21.9864 26.4043L22.7441 26.2666C22.8407 26.2467 22.9169 26.2005 22.9816 26.1153C23.0393 26.0302 23.0649 25.9386 23.0455 25.8336L22.9497 25.2692C23.1935 25.1641 23.4061 25.0227 23.6171 24.8615L24.1249 25.2229C24.2082 25.2818 24.2977 25.3081 24.4005 25.2882C24.5033 25.2692 24.5804 25.2166 24.638 25.1306L25.0812 24.4873C25.1388 24.4021 25.1583 24.3034 25.1388 24.2055C25.1202 24.1068 25.075 24.0216 24.9916 23.9555L24.5229 23.6276C24.6204 23.4029 24.6868 23.1102 24.7213 22.8665L25.3249 22.7614C25.4277 22.7415 25.5048 22.689 25.5633 22.6102C25.6209 22.525 25.6404 22.4335 25.6209 22.3284L25.4862 21.5538C25.4666 21.455 25.4215 21.3761 25.3382 21.311C25.2548 21.2511 25.1645 21.2249 25.0617 21.2448L24.5095 21.3436C24.4032 21.098 24.2764 20.877 24.1116 20.6677L24.4653 20.1422C24.5229 20.057 24.5486 19.9646 24.529 19.8668C24.5095 19.7681 24.4581 19.6829 24.3748 19.623L23.7518 19.1773L23.7332 19.1836ZM21.8073 20.8597C22.7016 20.8597 23.4265 21.6008 23.4265 22.5149C23.4265 23.4291 22.7016 24.1702 21.8073 24.1702C20.9132 24.1702 20.1882 23.4291 20.1882 22.5149C20.1882 21.6008 20.9132 20.8597 21.8073 20.8597Z" fill="white"/>
</g>
<defs>
<clipPath id="clip0_1758_5087">
<rect width="29" height="20" fill="white" transform="translate(6.5 9)"/>
</clipPath>
</defs>
</svg>
