<svg width="42" height="42" viewBox="0 0 42 42" fill="none" xmlns="http://www.w3.org/2000/svg">
<rect width="42" height="42" rx="21" fill="#3E4D6E"/>
<g clip-path="url(#clip0_1758_5048)">
<path fill-rule="evenodd" clip-rule="evenodd" d="M33.9023 24.0375L33.8886 23.9859C33.7174 23.3701 33.3183 22.8799 32.809 22.5843C32.5431 22.4296 32.2495 22.3294 31.9449 22.2892C31.6404 22.2491 31.331 22.2699 31.0344 22.3504C30.4113 22.5184 29.9146 22.9246 29.6156 23.4454L29.6147 23.445C29.3096 23.9767 29.2241 24.6077 29.3764 25.2022L29.3902 25.2542C29.5613 25.8688 29.9611 26.3587 30.4718 26.6554L30.4714 26.6563C31 26.9631 31.6271 27.0491 32.2181 26.896L32.2703 26.8819C32.8822 26.7096 33.3692 26.3083 33.6631 25.7962C33.9689 25.2642 34.0548 24.6327 33.9023 24.0375ZM21.7789 16.1428C22.4439 16.1428 23.0818 16.2579 23.675 16.4687L24.2998 15.0598C23.6682 14.6276 23.1821 13.9754 22.9696 13.1773C22.7341 12.293 22.8776 11.3954 23.3001 10.6594L23.3184 10.6301C23.743 9.90837 24.4366 9.34696 25.3028 9.11362C26.1821 8.87671 27.0744 9.0211 27.8061 9.44603L27.8353 9.46446C28.5528 9.89154 29.1109 10.5891 29.343 11.4604C29.5784 12.3446 29.4349 13.2423 29.0125 13.9783L28.9942 14.0077C28.5695 14.7294 27.876 15.2908 27.0097 15.5242C26.4236 15.6829 25.8053 15.6751 25.2234 15.5015L24.6045 16.897C26.317 17.8841 27.4709 19.7406 27.4709 21.868C27.4709 22.2121 27.4408 22.5489 27.3829 22.8762L28.5916 23.2C28.6338 23.1085 28.6801 23.0189 28.7301 22.9316V22.9295C29.16 22.1807 29.8741 21.5966 30.77 21.3551C31.6646 21.114 32.5729 21.2611 33.3178 21.6936C34.0639 22.1269 34.6453 22.8451 34.8851 23.7454L34.886 23.7488C35.1244 24.6475 34.978 25.5596 34.5485 26.3081C34.1179 27.0584 33.4037 27.6431 32.5088 27.8845L32.4987 27.887C31.6075 28.1243 30.7031 27.9769 29.961 27.546H29.959C29.2143 27.1135 28.6338 26.3955 28.3936 25.4944L28.3919 25.4877C28.2796 25.0644 28.2506 24.6231 28.3065 24.1886L27.1131 23.8691C26.3063 26.0441 24.2226 27.5933 21.7789 27.5933C18.9935 27.5933 16.6754 25.5806 16.1836 22.9222L13.5982 23.2241C13.591 23.7562 13.456 24.2942 13.1808 24.7911C13.1665 24.8232 13.149 24.8537 13.1284 24.8822C12.6895 25.6225 11.9807 26.1612 11.1529 26.3838C10.3499 26.6001 9.46515 26.5125 8.68399 26.071C8.65641 26.0576 8.63006 26.0418 8.60524 26.0238C7.84049 25.5633 7.32665 24.8398 7.11271 24.0368C6.89757 23.2292 6.98469 22.3391 7.42355 21.5535C7.43471 21.5304 7.44762 21.5078 7.46233 21.4863C7.9188 20.7111 8.64183 20.1899 9.44595 19.9732C10.2496 19.7566 11.1354 19.845 11.9173 20.2885L11.9492 20.3056C12.7004 20.7418 13.2168 21.4306 13.4528 22.204L16.0873 21.8963L16.0869 21.868C16.0869 20.4221 16.62 19.1015 17.4991 18.094L15.7199 16.0612C15.3931 16.2959 15.0269 16.4696 14.6389 16.5737L14.6322 16.5754C13.7398 16.814 12.8342 16.6666 12.0911 16.2351C11.3451 15.802 10.7637 15.0837 10.5238 14.1836L10.5221 14.1768C10.285 13.2792 10.4314 12.3682 10.8603 11.6208C11.2909 10.8705 12.0052 10.2856 12.9003 10.0443C13.7948 9.80319 14.7031 9.95034 15.448 10.3829C16.194 10.816 16.7754 11.5344 17.0153 12.4346C17.255 13.3344 17.1087 14.248 16.6787 14.9972C16.6107 15.1158 16.5356 15.2302 16.4539 15.3397L18.2419 17.3825C19.2132 16.6065 20.4421 16.1428 21.7789 16.1428ZM15.7933 14.4855C15.947 14.218 16.0466 13.9226 16.0865 13.6163C16.1264 13.31 16.1058 12.9988 16.0258 12.7005C15.8585 12.0728 15.4554 11.5732 14.9391 11.2735C14.6733 11.1189 14.3796 11.0186 14.0751 10.9785C13.7706 10.9383 13.4612 10.9591 13.1646 11.0396C12.5405 11.2079 12.0438 11.6133 11.7458 12.1326C11.44 12.6647 11.3542 13.2962 11.5066 13.8913L11.5205 13.9434C11.6837 14.5347 12.0714 15.0379 12.5999 15.3445C13.1289 15.6521 13.7567 15.7385 14.3483 15.5852L14.4001 15.5712C15.0121 15.399 15.4993 14.9976 15.7933 14.4855ZM28.127 13.4625C28.2766 13.2024 28.3736 12.9151 28.4124 12.6172C28.4513 12.3192 28.4312 12.0165 28.3534 11.7264C28.1932 11.1249 27.8106 10.6442 27.3195 10.3509L27.2932 10.3367C27.0346 10.1862 26.749 10.0886 26.4528 10.0495C26.1566 10.0105 25.8557 10.0306 25.5672 10.1089C24.9692 10.27 24.4914 10.6549 24.1997 11.1489L24.1855 11.1753C24.036 11.4354 23.939 11.7227 23.9001 12.0206C23.8613 12.3186 23.8814 12.6213 23.9592 12.9114C24.1194 13.5129 24.502 13.9936 24.9931 14.2869L25.0194 14.3011C25.278 14.4516 25.5636 14.5491 25.8598 14.5882C26.156 14.6273 26.4569 14.6071 26.7454 14.5289C27.3434 14.3677 27.8212 13.9829 28.1129 13.4889L28.127 13.4625ZM9.16256 25.1607C9.70566 25.4762 10.3257 25.5401 10.8884 25.3885C11.4516 25.2367 11.9569 24.87 12.27 24.3242L12.2711 24.3224C12.584 23.7759 12.6472 23.1523 12.4964 22.5859C12.3458 22.0201 11.9803 21.5121 11.4363 21.1962L11.4124 21.1814C10.8751 20.8785 10.2651 20.8191 9.71031 20.9685C9.1478 21.12 8.64276 21.4876 8.32869 22.0348L8.32781 22.0364C8.01495 22.5823 7.95156 23.2052 8.10228 23.7709C8.25316 24.3374 8.61787 24.8456 9.16032 25.1606L9.16256 25.1607ZM23.6389 18.6745C23.5576 18.6185 23.4653 18.5935 23.3719 18.6126C23.2787 18.6306 23.1983 18.6805 23.1426 18.7614L22.826 19.2107C22.6121 19.1143 22.3392 19.0514 22.1073 19.0179L22.008 18.4309C21.9892 18.3319 21.9395 18.257 21.8651 18.2002C21.7847 18.1444 21.6982 18.1253 21.599 18.1444L20.8674 18.2752C20.7741 18.2941 20.6997 18.3379 20.6381 18.4188C20.5825 18.4998 20.5576 18.5875 20.5756 18.6874L20.6688 19.2236C20.4438 19.3182 20.2205 19.456 20.0305 19.61L19.5342 19.2667C19.4538 19.2107 19.3673 19.1858 19.2741 19.2047C19.1808 19.2236 19.1004 19.2735 19.0448 19.3544L18.6229 19.9595C18.5673 20.0404 18.5425 20.1333 18.5613 20.2272C18.5793 20.327 18.6289 20.4019 18.7102 20.4578L19.156 20.7763C19.0619 20.9897 18.9977 21.2677 18.9643 21.4992L18.3816 21.5991C18.2823 21.618 18.2079 21.668 18.1514 21.7429C18.0958 21.8238 18.0778 21.9106 18.0958 22.0105L18.2259 22.7464C18.2447 22.8403 18.2883 22.9151 18.3688 22.977C18.4492 23.0338 18.5364 23.0588 18.6357 23.0399L19.1688 22.9461C19.2672 23.181 19.4016 23.3919 19.553 23.5951L19.2117 24.0874C19.156 24.1683 19.1312 24.256 19.15 24.349C19.1688 24.4428 19.2184 24.5237 19.2989 24.5796L19.9065 25.01C19.9446 25.0373 19.9879 25.0564 20.0337 25.0662C20.0794 25.0759 20.1267 25.0762 20.1726 25.0668C20.2658 25.0479 20.3463 25.004 20.4087 24.9231L20.7244 24.4678C20.9418 24.5642 21.2089 24.6253 21.4441 24.6614L21.5434 25.2475C21.5613 25.3474 21.611 25.4223 21.6854 25.4782C21.7667 25.5341 21.8531 25.5531 21.9524 25.5341L22.684 25.4033C22.7772 25.3844 22.8508 25.3405 22.9133 25.2596C22.969 25.1787 22.9937 25.0917 22.975 24.9919L22.8825 24.4558C23.1178 24.3559 23.3232 24.2216 23.5268 24.0685L24.0171 24.4118C24.0976 24.4678 24.184 24.4927 24.2833 24.4738C24.3825 24.4558 24.4569 24.4058 24.5126 24.3241L24.9405 23.7129C24.9961 23.632 25.0149 23.5382 24.9961 23.4452C24.9781 23.3514 24.9344 23.2705 24.854 23.2078L24.4014 22.8962C24.4955 22.6827 24.5597 22.4047 24.593 22.1732L25.1758 22.0733C25.275 22.0544 25.3495 22.0045 25.406 21.9297C25.4616 21.8488 25.4804 21.7618 25.4616 21.662L25.3315 20.9261C25.3126 20.8323 25.269 20.7573 25.1886 20.6954C25.1081 20.6385 25.0209 20.6136 24.9216 20.6325L24.3885 20.7264C24.2858 20.4931 24.1635 20.2831 24.0043 20.0843L24.3458 19.585C24.4014 19.5041 24.4262 19.4164 24.4073 19.3234C24.3885 19.2296 24.3389 19.1487 24.2584 19.0919L23.6569 18.6684L23.6389 18.6745ZM21.7795 20.2668C22.6429 20.2668 23.3429 20.9708 23.3429 21.8392C23.3429 22.7076 22.6429 23.4117 21.7795 23.4117C20.9162 23.4117 20.2162 22.7076 20.2162 21.8392C20.2162 20.9708 20.9162 20.2668 21.7795 20.2668Z" fill="white"/>
</g>
<defs>
<clipPath id="clip0_1758_5048">
<rect width="28" height="19" fill="white" transform="translate(7 9)"/>
</clipPath>
</defs>
</svg>
