<svg width="42" height="42" viewBox="0 0 42 42" fill="none" xmlns="http://www.w3.org/2000/svg">
<rect width="42" height="42" rx="21" fill="#354197"/>
<g clip-path="url(#clip0_1758_5105)">
<path d="M14.8217 20.0625C14.9285 20.194 14.983 20.3641 14.9735 20.5371C14.964 20.714 14.8896 20.88 14.7661 21L14.7476 21.0156C14.6231 21.1301 14.4608 21.1883 14.2959 21.1777C14.1298 21.1659 13.9742 21.0877 13.8608 20.959L13.8423 20.9375C13.1081 20.082 12.5104 19.1064 12.0725 18.0488C11.6845 17.1043 11.4896 16.084 11.5004 15.0547C11.5218 14.0203 11.7488 13.0023 12.1669 12.0664C12.6394 11.0192 13.2703 10.06 14.0349 9.22656C14.0932 9.1615 14.1631 9.10922 14.2407 9.07269C14.3182 9.03616 14.4017 9.01611 14.4866 9.01367C14.5711 9.01221 14.6549 9.02876 14.7332 9.06232C14.8114 9.09588 14.8825 9.14576 14.942 9.20898L14.9531 9.2207C15.0665 9.34508 15.1324 9.50919 15.1383 9.68164C15.1412 9.77023 15.1274 9.85856 15.0975 9.94142C15.0676 10.0243 15.0223 10.1 14.9642 10.1641H14.955C14.3027 10.8821 13.7617 11.704 13.3517 12.5996C12.996 13.3707 12.8003 14.213 12.7778 15.0703C12.7723 15.93 12.9388 16.7812 13.2666 17.5684C13.6422 18.461 14.1489 19.2856 14.768 20.0117C14.7816 20.0204 14.794 20.0309 14.805 20.043L14.8217 20.0625ZM14.0275 30.875H16.249L20.0424 16.8398C19.9514 16.7818 19.8647 16.7165 19.7832 16.6445L19.6462 16.5215C19.2891 16.1388 19.0895 15.6229 19.0908 15.0859C19.0907 14.8217 19.1404 14.5601 19.2371 14.3164C19.3319 14.07 19.4708 13.8452 19.6462 13.6543C19.825 13.467 20.037 13.3188 20.2702 13.2183C20.5034 13.1177 20.7531 13.0668 21.0051 13.0684C21.259 13.067 21.5107 13.1188 21.7456 13.2207C21.9796 13.3225 22.1927 13.471 22.3732 13.6582C22.5507 13.8468 22.6911 14.0705 22.7864 14.3165C22.8818 14.5626 22.9301 14.826 22.9286 15.0918C22.9282 15.2415 22.9127 15.3908 22.8823 15.5371C22.8515 15.6799 22.8062 15.8187 22.7471 15.9512C22.6061 16.2775 22.3825 16.5566 22.101 16.7578L26.2868 30.875H27.5069V32.9961H14.0275V30.875ZM18.4243 30.875H25.2742L24.4485 28.1211L18.4243 30.875ZM20.2756 19.707L22.2973 20.8789L21.168 17.0762C21.1112 17.0762 21.0495 17.0762 20.9828 17.0762L20.2775 19.7109L20.2756 19.707ZM22.8119 22.6113L19.4481 25.1035L24.0338 26.7187L22.8138 22.6172L22.8119 22.6113ZM17.4431 30.2109L23.2933 27.5332L18.6095 25.8887L17.4413 30.2148L17.4431 30.2109ZM19.0908 24.1211L22.0696 21.916L20.0053 20.7187L19.0797 24.1172L19.0908 24.1211ZM17.3024 17.8086C17.3994 17.9452 17.4431 18.1157 17.4246 18.2852C17.4171 18.3725 17.393 18.4574 17.3535 18.5346C17.314 18.6118 17.2601 18.6798 17.1951 18.7344L17.1691 18.7559C17.0404 18.8566 16.8807 18.9032 16.7211 18.8867C16.6383 18.878 16.558 18.852 16.4848 18.81C16.4117 18.7681 16.3473 18.7112 16.2953 18.6426L16.2842 18.6289C15.8798 18.1114 15.5538 17.531 15.3178 16.9082C15.1002 16.3237 14.986 15.7021 14.9809 15.0742C14.9791 14.4526 15.089 13.8362 15.3049 13.2578C15.5399 12.6343 15.8674 12.0542 16.275 11.5391C16.3813 11.3997 16.5357 11.3106 16.7042 11.2914C16.8728 11.2722 17.0417 11.3244 17.1738 11.4365C17.3058 11.5487 17.3903 11.7116 17.4085 11.8894C17.4267 12.0672 17.3773 12.2454 17.271 12.3848C16.9574 12.7828 16.7038 13.2294 16.5193 13.709C16.1799 14.5785 16.1799 15.5543 16.5193 16.4238C16.7069 16.9173 16.9647 17.3777 17.2839 17.7891L17.3024 17.8184V17.8086ZM28.1437 20.957C28.0304 21.0838 27.8754 21.16 27.7105 21.1699C27.6265 21.1754 27.5424 21.1631 27.4629 21.134C27.3835 21.1048 27.3103 21.0593 27.2477 21L27.2366 20.9883C27.1165 20.8695 27.0443 20.7066 27.0348 20.5332C27.0292 20.4443 27.0405 20.3551 27.0682 20.2709C27.0959 20.1866 27.1393 20.1092 27.1958 20.043L27.2069 20.0312C27.8374 19.2987 28.353 18.4646 28.7343 17.5605C29.0623 16.7708 29.2288 15.9169 29.223 15.0547C29.2028 14.1961 29.0097 13.3519 28.6565 12.5781C28.2427 11.6817 27.6966 10.8602 27.0385 10.1445L27.0237 10.1289C26.9159 9.99914 26.8595 9.8306 26.8663 9.6582C26.8705 9.48479 26.9366 9.31944 27.0514 9.19531L27.0662 9.17968C27.1266 9.11984 27.1976 9.07317 27.2751 9.04233C27.3526 9.0115 27.4352 8.99711 27.518 9C27.6863 9.00572 27.8458 9.08074 27.9623 9.20898L27.9752 9.22265C28.7344 10.0537 29.3603 11.0095 29.8284 12.0527C30.2465 12.9872 30.4736 14.004 30.4949 15.0371C30.5062 16.0697 30.3113 17.0932 29.9228 18.041C29.4923 19.0842 28.9039 20.0466 28.1807 20.8906C28.172 20.9141 28.1588 20.9354 28.1419 20.9531L28.1437 20.957ZM25.3501 18.6836C25.2447 18.7937 25.1069 18.8626 24.9595 18.8789C24.7914 18.8978 24.623 18.8459 24.4911 18.7344C24.36 18.6222 24.2761 18.46 24.2577 18.283C24.2394 18.106 24.288 17.9285 24.393 17.7891C24.7097 17.3851 24.9662 16.9327 25.1538 16.4473C25.494 15.5711 25.494 14.589 25.1538 13.7129V13.7031C24.9687 13.2275 24.7151 12.7848 24.4022 12.3906L24.3856 12.3691C24.2955 12.2332 24.2559 12.067 24.2745 11.9023C24.2829 11.8147 24.3076 11.7297 24.3474 11.6523C24.3871 11.5749 24.441 11.5065 24.5059 11.4512L24.5188 11.4414C24.6488 11.3334 24.8134 11.283 24.978 11.3008C25.1418 11.3188 25.2922 11.4045 25.3964 11.5391L25.4075 11.5527C25.8114 12.0666 26.1357 12.6447 26.3683 13.2656C26.5842 13.844 26.6941 14.4604 26.6923 15.082C26.6872 15.708 26.573 16.3277 26.3553 16.9102C26.1197 17.5399 25.7924 18.127 25.3853 18.6504C25.3751 18.6625 25.3639 18.6736 25.3519 18.6836H25.3501Z" fill="white"/>
</g>
<defs>
<clipPath id="clip0_1758_5105">
<rect width="19" height="24" fill="white" transform="translate(11.5 9)"/>
</clipPath>
</defs>
</svg>
