<svg width="52" height="52" viewBox="0 0 52 52" fill="none" xmlns="http://www.w3.org/2000/svg">
<rect width="52" height="52" rx="26" fill="#2B6FF6"/>
<path d="M27.1665 13.1667L27.1677 16.7391C31.3889 17.266 34.7346 20.612 35.261 24.8334H38.8332V27.1667L35.2608 27.1679C34.734 31.3888 31.3886 34.7342 27.1677 35.2611L27.1665 38.8334H24.8332V35.2612C20.6117 34.7348 17.2658 31.3891 16.7388 27.1679L13.1665 27.1667V24.8334H16.7387C17.2651 20.6116 20.6113 17.2654 24.8332 16.739V13.1667H27.1665ZM25.9998 19.0001C22.1338 19.0001 18.9998 22.1341 18.9998 26.0001C18.9998 29.8661 22.1338 33.0001 25.9998 33.0001C29.8658 33.0001 32.9998 29.8661 32.9998 26.0001C32.9998 22.1341 29.8658 19.0001 25.9998 19.0001ZM25.9998 23.6667C27.2885 23.6667 28.3332 24.7114 28.3332 26.0001C28.3332 27.2888 27.2885 28.3334 25.9998 28.3334C24.7111 28.3334 23.6665 27.2888 23.6665 26.0001C23.6665 24.7114 24.7111 23.6667 25.9998 23.6667Z" fill="white"/>
</svg>
