<svg width="52" height="52" viewBox="0 0 52 52" fill="none" xmlns="http://www.w3.org/2000/svg">
<rect width="52" height="52" rx="26" fill="#2B6FF6"/>
<path d="M19.1358 35.4346L20.3194 33.406C18.0984 31.6999 16.6668 29.0172 16.6668 26C16.6668 20.8454 20.8455 16.6667 26.0002 16.6667C31.1548 16.6667 35.3335 20.8454 35.3335 26C35.3335 29.0172 33.9019 31.6999 31.6809 33.406L32.8645 35.4346C35.7752 33.3132 37.6668 29.8776 37.6668 26C37.6668 19.5567 32.4434 14.3334 26.0002 14.3334C19.5568 14.3334 14.3335 19.5567 14.3335 26C14.3335 29.8776 16.2251 33.3132 19.1358 35.4346ZM21.5081 31.3688C19.9751 30.0848 19.0002 28.1563 19.0002 26C19.0002 22.134 22.1342 19 26.0002 19C29.8661 19 33.0002 22.134 33.0002 26C33.0002 28.1563 32.0253 30.0848 30.4922 31.3688L29.2905 29.3093C30.1407 28.464 30.6668 27.2935 30.6668 26C30.6668 23.4227 28.5774 21.3334 26.0002 21.3334C23.4228 21.3334 21.3335 23.4227 21.3335 26C21.3335 27.2935 21.8597 28.464 22.7098 29.3093L21.5081 31.3688ZM24.8335 27.1667H27.1668V37.6667H24.8335V27.1667Z" fill="white"/>
</svg>
