<svg width="61" height="60" viewBox="0 0 61 60" fill="none" xmlns="http://www.w3.org/2000/svg">
<path d="M19.777 17.05C19.1774 17.5361 18.6203 18.0725 18.112 18.6533L17.4028 17.9442L14.6895 15.2308L16.3236 13.5967L19.037 16.31L19.777 17.05Z" fill="#4285F4"/>
<path d="M47.4032 44.6768L45.769 46.3109L42.4082 42.9193C42.9978 42.4326 43.5446 41.8962 44.0424 41.3159L47.4032 44.6768Z" fill="#4285F4"/>
<path d="M14.2881 28.7666C14.2566 29.1771 14.2566 29.5894 14.2881 29.9999C14.2566 30.359 14.2566 30.7201 14.2881 31.0791H9.01562V28.7666H14.2881Z" fill="#4285F4"/>
<path d="M52.9845 28.7666V31.0791H47.8662C47.8662 30.7399 47.8662 30.3699 47.8662 29.9999C47.8662 29.6299 47.8662 29.1674 47.8662 28.7666H52.9845Z" fill="#4285F4"/>
<path d="M18.0192 41.2542C18.5166 41.8442 19.0633 42.3908 19.6533 42.8883L16.2308 46.3108L14.5967 44.6767L18.0192 41.2542Z" fill="#4285F4"/>
<path d="M43.0246 16.2483L45.6763 13.5967L47.3104 15.2308L43.9496 18.5917C43.4521 18.0017 42.9054 17.455 42.3154 16.9575L43.0246 16.2483Z" fill="#4285F4"/>
<path d="M31.0002 46.8659H32.1719V52.015H29.8594V46.8042L31.0002 46.8659Z" fill="#4285F4"/>
<path d="M32.2338 8.01587V13.2267C31.885 13.196 31.5343 13.196 31.1855 13.2267C30.7749 13.196 30.3627 13.196 29.9521 13.2267V8.01587H32.2338Z" fill="#4285F4"/>
<path fill-rule="evenodd" clip-rule="evenodd" d="M49.2535 28.7667C48.9802 24.7274 47.363 20.8959 44.6593 17.8825C44.1429 17.3094 43.5865 16.7736 42.9943 16.2792C40.0058 13.6313 36.2184 12.0578 32.2334 11.8083H31.0001H29.8593C25.8507 12.0599 22.0413 13.6444 19.0368 16.31C18.4616 16.8234 17.916 17.369 17.4026 17.9442C14.7359 20.9508 13.1419 24.7571 12.8701 28.7667C12.8701 29.1675 12.8701 29.5992 12.8701 30C12.8701 30.4008 12.8701 30.74 12.8701 31.0792C13.1026 35.0991 14.6644 38.9278 17.3101 41.9633C17.8156 42.546 18.3617 43.092 18.9443 43.5975C21.986 46.314 25.8511 47.9317 29.9209 48.1917H32.2334C36.2538 47.9266 40.072 46.3321 43.0868 43.6592C43.6768 43.1617 44.2235 42.615 44.721 42.025C47.4253 38.9934 49.0229 35.1351 49.2535 31.0792C49.2535 30.74 49.2535 30.37 49.2535 30C49.2535 29.63 49.2843 29.1675 49.2535 28.7667ZM31.0001 45.91C27.8534 45.91 24.7774 44.9769 22.161 43.2287C19.5446 41.4805 17.5054 38.9957 16.3012 36.0885C15.097 33.1813 14.7819 29.9824 15.3958 26.8961C16.0097 23.8099 17.525 20.975 19.75 18.7499C21.9751 16.5249 24.81 15.0096 27.8962 14.3957C30.9825 13.7818 34.1814 14.0969 37.0886 15.3011C39.9958 16.5053 42.4806 18.5445 44.2288 21.1609C45.977 23.7773 46.9101 26.8533 46.9101 30C46.9101 34.2196 45.2339 38.2664 42.2502 41.2501C39.2665 44.2338 35.2197 45.91 31.0001 45.91ZM31.0001 17.8825C28.6132 17.925 26.2919 18.6717 24.3278 20.0288C22.3637 21.3858 20.8442 23.2929 19.9601 25.5105C19.0759 27.728 18.8665 30.1574 19.3582 32.4936C19.8498 34.8297 21.0206 36.9686 22.7236 38.6418C24.4265 40.3149 26.5857 41.4477 28.9302 41.8981C31.2747 42.3484 33.7 42.0961 35.9016 41.173C38.1032 40.2498 39.9831 38.6969 41.3053 36.7092C42.6275 34.7214 43.3331 32.3874 43.3335 30C43.3296 28.3916 43.0063 26.7999 42.3824 25.3174C41.7586 23.8349 40.8465 22.491 39.6992 21.3638C38.5518 20.2365 37.1921 19.3483 35.6988 18.7507C34.2055 18.1531 32.6084 17.858 31.0001 17.8825Z" fill="#669DF6"/>
<path fill-rule="evenodd" clip-rule="evenodd" d="M31 8.41671C29.9221 8.32537 28.9178 7.83265 28.1859 7.03609C27.454 6.23954 27.0479 5.19721 27.0479 4.11546C27.0479 3.03371 27.454 1.99138 28.1859 1.19483C28.9178 0.398271 29.9221 -0.0944479 31 -0.185791V2.25004C30.5152 2.31052 30.0692 2.54602 29.7458 2.91225C29.4224 3.27848 29.244 3.75022 29.244 4.23879C29.244 4.72736 29.4224 5.1991 29.7458 5.56533C30.0692 5.93157 30.5152 6.16706 31 6.22754V8.41671Z" fill="#AECBFA"/>
<path fill-rule="evenodd" clip-rule="evenodd" d="M31 8.41667V6.2275C31.4848 6.16702 31.9308 5.93152 32.2542 5.56529C32.5776 5.19906 32.7561 4.72732 32.7561 4.23875C32.7561 3.75018 32.5776 3.27844 32.2542 2.91221C31.9308 2.54598 31.4848 2.31048 31 2.25V-0.0625C31.986 0.126377 32.8753 0.653024 33.515 1.42682C34.1546 2.20061 34.5045 3.17315 34.5045 4.17708C34.5045 5.18102 34.1546 6.15356 33.515 6.92735C32.8753 7.70114 31.986 8.22779 31 8.41667Z" fill="#669DF6"/>
<path fill-rule="evenodd" clip-rule="evenodd" d="M30.9997 60.0624C30.0137 59.8735 29.1243 59.3469 28.4847 58.5731C27.845 57.7993 27.4951 56.8268 27.4951 55.8228C27.4951 54.8189 27.845 53.8464 28.4847 53.0726C29.1243 52.2988 30.0137 51.7721 30.9997 51.5833V53.8958C30.5809 54.0154 30.2124 54.2682 29.9502 54.6159C29.6879 54.9636 29.546 55.3873 29.546 55.8228C29.546 56.2584 29.6879 56.6821 29.9502 57.0298C30.2124 57.3775 30.5809 57.6303 30.9997 57.7499V60.0624Z" fill="#AECBFA"/>
<path fill-rule="evenodd" clip-rule="evenodd" d="M31 60.0624V57.7499C31.4848 57.6894 31.9308 57.4539 32.2542 57.0877C32.5776 56.7215 32.7561 56.2497 32.7561 55.7612C32.7561 55.2726 32.5776 54.8009 32.2542 54.4346C31.9308 54.0684 31.4848 53.8329 31 53.7724V51.5833C32.0779 51.6746 33.0822 52.1673 33.8141 52.9639C34.546 53.7604 34.9522 54.8028 34.9522 55.8845C34.9522 56.9663 34.546 58.0086 33.8141 58.8051C33.0822 59.6017 32.0779 60.0944 31 60.1858V60.0624Z" fill="#669DF6"/>
<path fill-rule="evenodd" clip-rule="evenodd" d="M12.777 16.0634C11.6404 16.0634 10.5503 15.6118 9.7465 14.8081C8.94275 14.0043 8.49121 12.9142 8.49121 11.7775C8.49121 10.6409 8.94275 9.55074 9.7465 8.74699C10.5503 7.94324 11.6404 7.4917 12.777 7.4917V9.8042C12.2537 9.8042 11.7518 10.0121 11.3817 10.3822C11.0116 10.7522 10.8037 11.2542 10.8037 11.7775C10.8037 12.3009 11.0116 12.8028 11.3817 13.1729C11.7518 13.543 12.2537 13.7509 12.777 13.7509V16.0634Z" fill="#AECBFA"/>
<path fill-rule="evenodd" clip-rule="evenodd" d="M12.7773 16.0634V13.7509C13.3007 13.7509 13.8026 13.543 14.1727 13.1729C14.5428 12.8028 14.7507 12.3009 14.7507 11.7775C14.7507 11.2542 14.5428 10.7522 14.1727 10.3822C13.8026 10.0121 13.3007 9.8042 12.7773 9.8042V7.4917C13.914 7.4917 15.0041 7.94324 15.8079 8.74699C16.6116 9.55074 17.0632 10.6409 17.0632 11.7775C17.0632 12.9142 16.6116 14.0043 15.8079 14.8081C15.0041 15.6118 13.914 16.0634 12.7773 16.0634Z" fill="#669DF6"/>
<path fill-rule="evenodd" clip-rule="evenodd" d="M49.2224 52.5084C48.0857 52.5084 46.9956 52.0569 46.1918 51.2531C45.3881 50.4494 44.9365 49.3593 44.9365 48.2226C44.9365 47.0859 45.3881 45.9958 46.1918 45.1921C46.9956 44.3883 48.0857 43.9368 49.2224 43.9368V46.2493C48.699 46.2493 48.1971 46.4572 47.827 46.8272C47.4569 47.1973 47.249 47.6992 47.249 48.2226C47.249 48.746 47.4569 49.2479 47.827 49.618C48.1971 49.988 48.699 50.1959 49.2224 50.1959V52.5084Z" fill="#AECBFA"/>
<path fill-rule="evenodd" clip-rule="evenodd" d="M49.2227 52.5084V50.1959C49.746 50.1959 50.2479 49.988 50.618 49.618C50.9881 49.2479 51.196 48.746 51.196 48.2226C51.196 47.6992 50.9881 47.1973 50.618 46.8272C50.2479 46.4572 49.746 46.2493 49.2227 46.2493V43.9368C50.3593 43.9368 51.4494 44.3883 52.2532 45.1921C53.0569 45.9958 53.5085 47.0859 53.5085 48.2226C53.5085 49.3593 53.0569 50.4494 52.2532 51.2531C51.4494 52.0569 50.3593 52.5084 49.2227 52.5084Z" fill="#669DF6"/>
<path fill-rule="evenodd" clip-rule="evenodd" d="M5.22333 34.2858C4.08666 34.2858 2.99654 33.8342 2.19279 33.0305C1.38904 32.2267 0.9375 31.1366 0.9375 29.9999C0.9375 28.8633 1.38904 27.7732 2.19279 26.9694C2.99654 26.1657 4.08666 25.7141 5.22333 25.7141V28.0266C4.96419 28.0266 4.70759 28.0777 4.46817 28.1768C4.22875 28.276 4.01122 28.4213 3.82798 28.6046C3.64473 28.7878 3.49938 29.0054 3.40021 29.2448C3.30104 29.4842 3.25 29.7408 3.25 29.9999C3.25 30.2591 3.30104 30.5157 3.40021 30.7551C3.49938 30.9945 3.64473 31.2121 3.82798 31.3953C4.01122 31.5785 4.22875 31.7239 4.46817 31.8231C4.70759 31.9222 4.96419 31.9733 5.22333 31.9733V34.2858Z" fill="#AECBFA"/>
<path fill-rule="evenodd" clip-rule="evenodd" d="M5.22363 34.2858V31.9733C5.48277 31.9733 5.73938 31.9222 5.97879 31.8231C6.21821 31.7239 6.43575 31.5785 6.61899 31.3953C6.80223 31.2121 6.94758 30.9945 7.04675 30.7551C7.14592 30.5157 7.19697 30.2591 7.19697 29.9999C7.19697 29.7408 7.14592 29.4842 7.04675 29.2448C6.94758 29.0054 6.80223 28.7878 6.61899 28.6046C6.43575 28.4213 6.21821 28.276 5.97879 28.1768C5.73938 28.0777 5.48277 28.0266 5.22363 28.0266V25.7141C6.36031 25.7141 7.45042 26.1657 8.25417 26.9694C9.05792 27.7732 9.50947 28.8633 9.50947 29.9999C9.50947 31.1366 9.05792 32.2267 8.25417 33.0305C7.45042 33.8342 6.36031 34.2858 5.22363 34.2858Z" fill="#669DF6"/>
<path fill-rule="evenodd" clip-rule="evenodd" d="M56.7772 34.2858C56.2068 34.2974 55.6399 34.1942 55.1102 33.9823C54.5805 33.7705 54.0988 33.4542 53.6938 33.0524C52.9489 32.2133 52.5519 31.1216 52.5838 29.9999C52.592 28.8604 53.0503 27.7704 53.859 26.9675C54.6676 26.1646 55.761 25.7141 56.9005 25.7141V28.0266C56.3742 28.0265 55.8691 28.2335 55.4941 28.6027C55.1191 28.9719 54.9044 29.4738 54.8963 29.9999C54.9005 30.5217 55.1111 31.0206 55.4822 31.3874C55.6629 31.5809 55.883 31.7333 56.1277 31.8344C56.3724 31.9354 56.6359 31.9828 56.9005 31.9733L56.7772 34.2858Z" fill="#AECBFA"/>
<path fill-rule="evenodd" clip-rule="evenodd" d="M56.7764 34.2858V31.9733C57.2997 31.9733 57.8016 31.7654 58.1717 31.3953C58.5418 31.0252 58.7497 30.5233 58.7497 29.9999C58.7497 29.4766 58.5418 28.9747 58.1717 28.6046C57.8016 28.2345 57.2997 28.0266 56.7764 28.0266V25.7141C57.913 25.7141 59.0032 26.1657 59.8069 26.9694C60.6107 27.7732 61.0622 28.8633 61.0622 29.9999C61.0622 31.1366 60.6107 32.2267 59.8069 33.0305C59.0032 33.8342 57.913 34.2858 56.7764 34.2858Z" fill="#669DF6"/>
<path fill-rule="evenodd" clip-rule="evenodd" d="M12.6851 52.5082C12.1106 52.51 11.5416 52.3963 11.0119 52.1739C10.4822 51.9514 10.0027 51.6247 9.60175 51.2132C9.20364 50.8084 8.89393 50.3253 8.69225 49.7945C8.49056 49.2638 8.40129 48.6969 8.43008 48.1299C8.47803 46.9793 8.97111 45.8924 9.80527 45.0985C10.6394 44.3046 11.7494 43.8659 12.9009 43.8749V46.1874C12.3521 46.1785 11.8211 46.3821 11.4189 46.7556C11.0166 47.1291 10.7743 47.6436 10.7426 48.1916C10.7281 48.442 10.7673 48.6927 10.8577 48.9267C10.9482 49.1607 11.0876 49.3726 11.2667 49.5482C11.6544 49.9258 12.1748 50.1361 12.7159 50.1341L12.6851 52.5082Z" fill="#AECBFA"/>
<path fill-rule="evenodd" clip-rule="evenodd" d="M12.6846 52.5085V50.196C13.2334 50.2048 13.7644 50.0012 14.1666 49.6277C14.5688 49.2543 14.8112 48.7398 14.8429 48.1918C14.8595 47.9411 14.8212 47.6899 14.7306 47.4556C14.6401 47.2213 14.4995 47.0095 14.3187 46.8351C13.9311 46.4576 13.4107 46.2472 12.8696 46.2493V43.9368C13.4441 43.935 14.0131 44.0487 14.5428 44.2711C15.0724 44.4936 15.552 44.8203 15.9529 45.2318C16.3526 45.6355 16.6633 46.1184 16.8651 46.6494C17.0669 47.1805 17.1553 47.7479 17.1246 48.3151C17.0615 49.4494 16.566 50.5164 15.74 51.2964C14.9141 52.0764 13.8206 52.5102 12.6846 52.5085Z" fill="#669DF6"/>
<path fill-rule="evenodd" clip-rule="evenodd" d="M49.2224 16.0634C48.0857 16.0634 46.9956 15.6118 46.1918 14.8081C45.3881 14.0043 44.9365 12.9142 44.9365 11.7775C44.9365 10.6409 45.3881 9.55074 46.1918 8.74699C46.9956 7.94324 48.0857 7.4917 49.2224 7.4917V9.8042C48.699 9.8042 48.1971 10.0121 47.827 10.3822C47.4569 10.7522 47.249 11.2542 47.249 11.7775C47.249 12.3009 47.4569 12.8028 47.827 13.1729C48.1971 13.543 48.699 13.7509 49.2224 13.7509V16.0634Z" fill="#AECBFA"/>
<path fill-rule="evenodd" clip-rule="evenodd" d="M49.2227 16.0634V13.7509C49.746 13.7509 50.2479 13.543 50.618 13.1729C50.9881 12.8028 51.196 12.3009 51.196 11.7775C51.196 11.2542 50.9881 10.7522 50.618 10.3822C50.2479 10.0121 49.746 9.8042 49.2227 9.8042V7.4917C50.3593 7.4917 51.4494 7.94324 52.2532 8.74699C53.0569 9.55074 53.5085 10.6409 53.5085 11.7775C53.5085 12.9142 53.0569 14.0043 52.2532 14.8081C51.4494 15.6118 50.3593 16.0634 49.2227 16.0634Z" fill="#669DF6"/>
<path fill-rule="evenodd" clip-rule="evenodd" d="M31 17.8826V42.0868C29.3594 42.1696 27.719 41.918 26.1786 41.3472C24.6382 40.7764 23.23 39.8984 22.0395 38.7664C20.8489 37.6345 19.901 36.2723 19.2532 34.7627C18.6055 33.253 18.2715 31.6274 18.2715 29.9847C18.2715 28.3419 18.6055 26.7164 19.2532 25.2067C19.901 23.6971 20.8489 22.3349 22.0395 21.2029C23.23 20.071 24.6382 19.193 26.1786 18.6222C27.719 18.0514 29.3594 17.7998 31 17.8826Z" fill="#AECBFA"/>
<path fill-rule="evenodd" clip-rule="evenodd" d="M43.3333 30C43.3337 31.6083 43.0131 33.2004 42.3903 34.6831C41.7675 36.1658 40.8551 37.5094 39.7065 38.635C38.5579 39.7606 37.1962 40.6457 35.7012 41.2384C34.2061 41.8311 32.6079 42.1195 31 42.0867V17.8825C32.6094 17.8539 34.2083 18.1461 35.7035 18.7422C37.1986 19.3383 38.5601 20.2264 39.7082 21.3545C40.8564 22.4825 41.7683 23.8281 42.3907 25.3125C43.0132 26.7969 43.3336 28.3904 43.3333 30Z" fill="#4285F4"/>
<path d="M37.5674 33.2065H31.0615V35.519H37.5674V33.2065Z" fill="#AECBFA"/>
<path d="M37.5674 28.9824H31.0615V31.2949H37.5674V28.9824Z" fill="#AECBFA"/>
<path d="M37.5674 24.7891H31.0615V27.1016H37.5674V24.7891Z" fill="#AECBFA"/>
<path d="M31.0615 33.2065H24.5557V35.519H31.0615V33.2065Z" fill="white"/>
<path d="M31.0615 28.9824H24.5557V31.2949H31.0615V28.9824Z" fill="white"/>
<path d="M31.0615 24.7891H24.5557V27.1016H31.0615V24.7891Z" fill="white"/>
</svg>
