<svg width="42" height="42" viewBox="0 0 42 42" fill="none" xmlns="http://www.w3.org/2000/svg">
<rect width="42" height="42" rx="21" fill="#2B6FF6"/>
<path fill-rule="evenodd" clip-rule="evenodd" d="M28.5738 22.3398C29.4623 23.3616 30 24.7032 30 26.1716C30 29.3764 27.4368 31.9756 24.2724 31.9756C22.0776 31.9756 20.1701 30.7234 19.2093 28.887H16.5985V30.1267H12.7025V28.887H10.0018V27.4471H12.7025V26.1949H13.9401V23.3599H11.2763C10.9255 23.3599 10.6064 23.2152 10.3755 22.9811C10.1428 22.7471 10 22.4238 10 22.0683V17.5255C10 17.2093 10.1128 16.9181 10.3015 16.693C10.1128 16.4679 10 16.1768 10 15.8588V11.3178C10 10.9623 10.1428 10.6389 10.3737 10.4049C10.6047 10.1691 10.9238 10.0244 11.2763 10.0244H27.3292C27.68 10.0244 27.9991 10.1691 28.2301 10.4031C28.461 10.6371 28.6038 10.9605 28.6038 11.316V15.8588C28.6038 16.175 28.4892 16.4662 28.3023 16.6912C28.491 16.9163 28.6038 17.2075 28.6038 17.5237V22.0665C28.6038 22.1594 28.5932 22.2505 28.5738 22.3398ZM21.4306 25.784H23.3098V28.7887H25.4288V25.7858H27.3627L24.3993 22.8614L21.4306 25.784ZM18.6858 27.4471C18.5941 27.0363 18.5465 26.6093 18.5465 26.1716C18.5465 25.1516 18.8074 24.1923 19.2622 23.3599H15.3592V26.1966H16.5967V27.4489H18.6858V27.4471ZM14.6505 27.2649C15.1388 27.2649 15.5355 27.6668 15.5355 28.1617C15.5355 28.6565 15.1388 29.0585 14.6505 29.0585C14.1622 29.0585 13.7655 28.6565 13.7655 28.1617C13.7655 27.6668 14.1604 27.2649 14.6505 27.2649ZM12.498 12.3521H13.4412V14.8262H12.498V12.3521ZM25.4588 19.0386C25.8713 19.0386 26.2063 19.378 26.2063 19.796C26.2063 20.1533 25.963 20.4516 25.6351 20.532C25.9312 20.6052 26.2186 20.7017 26.4954 20.8196C26.9273 21.0036 27.3327 21.2376 27.7047 21.5181V17.5255C27.7047 17.4219 27.6624 17.3254 27.5937 17.2575C27.5408 17.2039 27.472 17.1664 27.3962 17.1521C27.3733 17.1539 27.3504 17.1539 27.3292 17.1539H11.2763C11.2534 17.1539 11.2305 17.1539 11.2093 17.1521C11.1335 17.1664 11.0648 17.2039 11.0119 17.2575C10.9414 17.3254 10.8991 17.4201 10.8991 17.5255V22.0683C10.8991 22.1719 10.9414 22.2684 11.0101 22.3362C11.0789 22.4059 11.1723 22.4488 11.2746 22.4488H19.8369C20.3552 21.8271 20.9969 21.3162 21.7232 20.9572C22.4901 20.5784 23.3504 20.3659 24.26 20.3659C24.5209 20.3659 24.7783 20.3837 25.0304 20.4177C24.8365 20.2801 24.7113 20.0532 24.7113 19.796C24.7113 19.378 25.0463 19.0386 25.4588 19.0386ZM22.6117 19.0386C23.0242 19.0386 23.3592 19.378 23.3592 19.796C23.3592 20.214 23.0242 20.5534 22.6117 20.5534C22.1992 20.5534 21.8643 20.214 21.8643 19.796C21.8643 19.378 22.1992 19.0386 22.6117 19.0386ZM17.7126 18.5598H18.6558V21.034H17.7126V18.5598ZM15.1053 18.5598H16.0485V21.034H15.1053V18.5598ZM12.498 18.5598H13.4412V21.034H12.498V18.5598ZM25.4588 12.8308C25.8713 12.8308 26.2063 13.1703 26.2063 13.5883C26.2063 14.0063 25.8713 14.3457 25.4588 14.3457C25.0463 14.3457 24.7113 14.0063 24.7113 13.5883C24.7113 13.1703 25.0463 12.8308 25.4588 12.8308ZM22.6117 12.8308C23.0242 12.8308 23.3592 13.1703 23.3592 13.5883C23.3592 14.0063 23.0242 14.3457 22.6117 14.3457C22.1992 14.3457 21.8643 14.0063 21.8643 13.5883C21.8643 13.1703 22.1992 12.8308 22.6117 12.8308ZM17.7126 12.3521H18.6558V14.8262H17.7126V12.3521ZM15.1053 12.3521H16.0485V14.8262H15.1053V12.3521ZM11.2076 16.2339C11.2305 16.2321 11.2534 16.2321 11.2746 16.2321H27.3275C27.3504 16.2321 27.3733 16.2321 27.3944 16.2339C27.4703 16.2196 27.539 16.1821 27.5919 16.1285C27.6606 16.0589 27.703 15.9642 27.703 15.8606V11.3178C27.703 11.2142 27.6606 11.1177 27.5919 11.048C27.5231 10.9783 27.4297 10.9355 27.3275 10.9355H11.2763C11.1741 10.9355 11.0789 10.9783 11.0101 11.048C10.9414 11.1177 10.8991 11.2124 10.8991 11.3178V15.8606C10.8991 15.9642 10.9414 16.0606 11.0101 16.1285C11.063 16.1821 11.1318 16.2196 11.2076 16.2339ZM27.2693 22.3237C26.929 22.0558 26.5535 21.8307 26.1516 21.6592C25.5716 21.4127 24.9317 21.2769 24.2618 21.2769C23.844 21.2769 23.4385 21.3305 23.0507 21.4305C20.9722 21.9808 19.4385 23.8958 19.4385 26.1734C19.4385 28.8798 21.6034 31.0753 24.2759 31.0753C26.9484 31.0753 29.1133 28.8816 29.1133 26.1734C29.1097 24.6121 28.3905 23.2223 27.2693 22.3237Z" fill="white"/>
</svg>
