<svg width="52" height="52" viewBox="0 0 52 52" fill="none" xmlns="http://www.w3.org/2000/svg">
<rect width="52" height="52" rx="26" fill="#2B6FF6"/>
<path d="M26.3337 23.3332C27.5579 23.3332 28.5619 24.276 28.6593 25.4751L28.667 25.6664V37C28.667 38.2243 27.7242 39.2283 26.525 39.3256L26.3337 39.3334H15.0003C13.7761 39.3334 12.7721 38.3906 12.6747 37.1914L12.667 37V25.6664C12.667 24.4423 13.6098 23.4383 14.809 23.3408L15.0003 23.3332H26.3337ZM20.0003 25.332L15.0003 25.3331C14.8425 25.3331 14.7103 25.4428 14.6758 25.59L14.667 25.6664V37C14.667 37.1578 14.7766 37.29 14.9239 37.3246L15.0003 37.3334L20.0003 37.332V25.332ZM26.3337 25.3331L21.3337 25.332V37.332L26.3337 37.3334C26.4914 37.3334 26.6237 37.2238 26.6582 37.0764L26.667 37V25.6664C26.667 25.5087 26.5574 25.3766 26.4101 25.3419L26.3337 25.3331ZM24.167 34C24.7193 34 25.167 34.4478 25.167 35C25.167 35.5063 24.7907 35.9247 24.3027 35.991L24.167 36H23.5003C22.948 36 22.5003 35.5523 22.5003 35C22.5003 34.4938 22.8765 34.0754 23.3646 34.0091L23.5003 34H24.167ZM17.8337 34C18.3859 34 18.8337 34.4478 18.8337 35C18.8337 35.5063 18.4575 35.9247 17.9694 35.991L17.8337 36H17.167C16.6147 36 16.167 35.5523 16.167 35C16.167 34.4938 16.5432 34.0754 17.0313 34.0091L17.167 34H17.8337ZM36.3337 12.6667C37.9215 12.6667 39.2211 13.9002 39.3267 15.4613L39.3337 15.6667V27.6667C39.3337 29.2546 38.1001 30.5542 36.539 30.6598L36.3337 30.6667H32.6723V33.3334H34.3337C34.8859 33.3334 35.3337 33.7811 35.3337 34.3334C35.3337 34.8396 34.9574 35.258 34.4694 35.3243L34.3337 35.3334H30.0003V33.3334H30.6723V30.6667H30.0003V28.6667H36.3337C36.8399 28.6667 37.2583 28.2904 37.3246 27.8024L37.3337 27.6667V15.6667C37.3337 15.1144 36.8859 14.6667 36.3337 14.6667H18.3337C17.8274 14.6667 17.409 15.0429 17.3428 15.531L17.3337 15.6667V22H15.3337V15.6667C15.3337 14.0789 16.5672 12.7792 18.1283 12.6736L18.3337 12.6667H36.3337Z" fill="white"/>
</svg>
