<svg width="115" height="115" viewBox="0 0 115 115" fill="none" xmlns="http://www.w3.org/2000/svg">
<rect width="115" height="115" rx="57.5" fill="#2B6FF6"/>
<g clip-path="url(#clip0_1776_5457)">
<path d="M78.9405 29.6532H77.0807C76.4031 30.4761 76.0483 30.9816 76.2617 31.7876C76.2681 31.7982 76.2778 31.8138 76.2919 31.8351C76.3367 31.9026 76.4042 31.9965 76.496 32.1178C76.6788 32.3591 76.9366 32.6808 77.2517 33.0657C77.6335 33.532 78.0893 34.0787 78.5842 34.6723C78.9072 35.0597 79.2468 35.4671 79.5934 35.8852C80.4667 36.9385 81.3779 38.0522 82.1487 39.0505C82.9099 40.0365 83.5652 40.949 83.9004 41.5874L83.9004 41.5875C89.2466 51.7736 88.9954 64.5203 83.2448 74.501L78.9405 29.6532ZM78.9405 29.6532C95.345 44.0833 95.9311 71.9918 78.0192 85.349M78.9405 29.6532L78.0192 85.349M78.0192 85.349C76.7746 85.3669 75.9622 84.2941 76.2673 83.1764C76.2729 83.1671 76.2813 83.1537 76.2932 83.1357C76.3337 83.0746 76.3951 82.9895 76.4791 82.8792C76.6464 82.6597 76.8821 82.3684 77.1706 82.0209C77.6016 81.5015 78.1371 80.8723 78.7146 80.1938C78.9095 79.9648 79.1092 79.7302 79.3112 79.4923C80.109 78.553 80.941 77.5656 81.6443 76.6903C82.3382 75.8269 82.937 75.0357 83.2447 74.5012L78.0192 85.349Z" fill="white" stroke="#2B6FF6" stroke-width="1.3"/>
<path d="M31.7549 74.4981L31.7552 74.4985C32.0636 75.0326 32.6629 75.8236 33.3573 76.6872C34.061 77.5625 34.8932 78.5498 35.6909 79.489C35.8861 79.7188 36.0791 79.9456 36.2676 80.1672C36.8525 80.8545 37.3952 81.4922 37.8308 82.0175C38.119 82.365 38.3544 82.6561 38.5212 82.8755C38.6051 82.9857 38.6662 83.0707 38.7064 83.1316C38.7181 83.1493 38.7264 83.1626 38.732 83.1719C39.038 84.29 38.2255 85.3637 36.9804 85.3457C19.0671 71.9907 19.6513 44.0791 36.0627 29.65H37.9451C38.5173 30.2879 38.7291 30.756 38.7784 31.096C38.8282 31.4399 38.7259 31.7552 38.4518 32.1236C38.1616 32.5134 37.7333 32.8918 37.2079 33.3558C36.705 33.7998 36.1284 34.3105 35.6585 34.9142C26.4961 46.6827 24.0913 61.2026 31.7549 74.4981ZM38.72 83.1299L38.7206 83.1321L38.72 83.1299Z" fill="white" stroke="#2B6FF6" stroke-width="1.3"/>
<path d="M67.7475 57.4693C67.7475 62.7808 63.1831 67.1485 57.4742 67.1485C51.7653 67.1485 47.2008 62.7808 47.2008 57.4693C47.2008 52.1578 51.7653 47.7901 57.4742 47.7901C63.1831 47.7901 67.7475 52.1578 67.7475 57.4693ZM64.1402 57.4499C64.1402 53.9135 61.1181 51.1054 57.4707 51.1054C53.8234 51.1054 50.8012 53.9135 50.8012 57.4499C50.8012 60.9862 53.8234 63.7943 57.4707 63.7943C61.1181 63.7943 64.1402 60.9862 64.1402 57.4499Z" fill="white" stroke="#2B6FF6" stroke-width="1.3"/>
<path d="M44.5774 41.2367C44.5902 41.2388 44.608 41.2424 44.6314 41.2482C44.6856 41.2618 44.7543 41.284 44.8363 41.3164C45.001 41.3812 45.1925 41.476 45.3867 41.5879C45.8005 41.8263 46.1124 42.0757 46.201 42.1858C46.4889 42.5452 46.5308 42.8621 46.4553 43.1874C46.3696 43.5566 46.1203 43.9745 45.7312 44.4474C45.3978 44.8525 45.0049 45.2485 44.6027 45.6537C44.5396 45.7172 44.4763 45.781 44.413 45.8451C43.9669 46.2966 43.4986 46.7823 43.1989 47.256L43.1987 47.2564C39.6859 52.8168 39.0458 58.9182 41.7375 64.9706L41.7375 64.9706C42.0574 65.6897 42.6529 66.4857 43.2675 67.2584C43.4587 67.4986 43.6529 67.7381 43.8466 67.977C44.2988 68.5346 44.7485 69.0891 45.1505 69.6431C45.7285 70.4396 46.138 71.1446 46.284 71.7307C46.3545 72.0136 46.3551 72.2374 46.3077 72.4168C46.2637 72.5834 46.168 72.7526 45.9719 72.9223C45.365 73.3548 44.8193 73.4475 44.3167 73.3618C43.7828 73.2707 43.23 72.9659 42.6697 72.4882C41.5397 71.5248 40.5707 70.0295 39.8655 68.9185C35.9856 62.8005 35.4181 56.0401 38.1224 49.3645C38.5068 48.416 39.6233 46.3283 40.9485 44.48C41.61 43.5573 42.3052 42.7203 42.9676 42.1209C43.6589 41.4955 44.1967 41.2372 44.5533 41.2367L44.5774 41.2367Z" fill="white" stroke="#2B6FF6" stroke-width="1.3"/>
<path d="M69.5434 41.6564L69.5438 41.6563C70.5655 41.3293 71.5435 41.7503 72.5111 42.6361C73.4772 43.5204 74.2879 44.7413 74.919 45.6936C78.9908 51.845 79.6285 58.8077 76.8776 65.5967L76.8775 65.597C76.3791 66.8285 74.935 69.6177 73.2367 71.5753C72.3784 72.5645 71.5269 73.2564 70.7684 73.4972C70.4057 73.6123 70.0822 73.6189 69.7835 73.5233C69.4823 73.4268 69.148 73.2076 68.799 72.7722C68.5111 72.4127 68.4692 72.0958 68.5447 71.7706C68.6304 71.4013 68.8796 70.9834 69.2688 70.5106C69.6022 70.1055 69.9951 69.7095 70.3973 69.3043C70.4603 69.2407 70.5237 69.1769 70.587 69.1128C71.0331 68.6614 71.5014 68.1756 71.8011 67.7019L71.8013 67.7016C75.314 62.1412 75.9541 56.0398 73.2624 49.9873L73.2622 49.9869C72.9697 49.3304 72.3173 48.4831 71.6553 47.6397C71.5748 47.5371 71.4935 47.4339 71.4118 47.33C70.7931 46.5442 70.1485 45.7254 69.6266 44.9313C69.0203 44.0085 68.6633 43.2385 68.6338 42.6792C68.6204 42.4264 68.676 42.2501 68.7813 42.1117C68.8929 41.965 69.1117 41.7943 69.5434 41.6564Z" fill="white" stroke="#2B6FF6" stroke-width="1.3"/>
</g>
<defs>
<clipPath id="clip0_1776_5457">
<rect width="69" height="57" fill="white" transform="translate(23 29)"/>
</clipPath>
</defs>
</svg>
